<?xml version="1.0" encoding="utf-8"?>
<!-- Generator: Adobe Illustrator 16.2.0, SVG Export Plug-In . SVG Version: 6.00 Build 0)  -->
<!DOCTYPE svg PUBLIC "-//W3C//DTD SVG 1.1//EN" "http://www.w3.org/Graphics/SVG/1.1/DTD/svg11.dtd">
<svg version="1.1" id="Layer_1" xmlns="http://www.w3.org/2000/svg" xmlns:xlink="http://www.w3.org/1999/xlink" x="0px" y="0px"
	 width="65.3896484px" height="58.1591797px" viewBox="0 0 65.3896484 58.1591797"
	 enable-background="new 0 0 65.3896484 58.1591797" xml:space="preserve">
<path fill="#F9BB17" d="M44.0537109,53.6357422c-0.1796875-0.1396484-0.5097656-0.1796875-0.7285156-0.109375l-0.6699219,0.2402344
	c-0.2207031,0.0800781-0.5703125,0.0898438-0.7910156,0.0195312c-0.21875-0.0800781-0.5703125-0.2197266-0.7792969-0.3300781
	l-0.3007812-0.1503906c-0.2089844-0.0996094-0.5605469-0.109375-0.7695312-0.0195312l-0.1503906,0.0703125
	c-0.2089844,0.0898438-0.4003906,0.3496094-0.4101562,0.5800781l-0.0898438,1.4101562
	c-0.0097656,0.2402344-0.109375,0.5996094-0.2089844,0.8095703l-0.4199219,0.8300781
	c-0.1015625,0.2099609-0.0507812,0.5,0.1289062,0.6591797l0.4199219,0.3710938
	c0.1796875,0.1494141,0.4902344,0.1894531,0.7011719,0.0800781l1.5-0.8007812l0.75-0.4003906l0.4492188-0.25
	c0.1992188-0.1191406,0.4804688-0.3691406,0.6191406-0.5585938l0.4414062-0.6308594
	c0.1289062-0.1894531,0.359375-0.4902344,0.5195312-0.6699219l0.2402344-0.2792969
	c0.1503906-0.1806641,0.1191406-0.4404297-0.0605469-0.5800781L44.0537109,53.6357422z"/>
<path fill="#F9BB17" d="M64.9541016,24.7958984l-0.5390625-0.6601562l-1.5996094-1.9902344
	c-0.140625-0.1796875-0.3417969-0.5-0.4316406-0.71875l-1.7890625-4.1308594
	c-0.0898438-0.2089844-0.2792969-0.5292969-0.4296875-0.7089844l-0.6601562-0.8105469l-0.5410156-0.6503906l-1.5800781-1.8691406
	c-0.1484375-0.1806641-0.2285156-0.5107422-0.1796875-0.7402344l0.2207031-1.0205078
	c0.0488281-0.2294922,0.0898438-0.6103516,0.0898438-0.8398438V9.6455078c0-0.2392578-0.0410156-0.6191406-0.0703125-0.8398438
	l-0.390625-2.21875c-0.0390625-0.2304688-0.1992188-0.5605469-0.3496094-0.7402344l-1.4296875-1.6103516
	c-0.1503906-0.1806641-0.3398438-0.5-0.4199219-0.7197266l-0.5195312-1.4609375
	c-0.0800781-0.21875-0.2207031-0.5693359-0.3105469-0.7792969l-0.4492188-0.9599609
	c-0.0898438-0.2099609-0.3515625-0.3505859-0.5703125-0.3095703c-0.2207031,0.0292969-0.4902344,0.2294922-0.5996094,0.4296875
	l-0.9316406,1.7792969c-0.109375,0.2001953-0.1894531,0.5605469-0.1894531,0.8007812v0.2089844
	c0,0.2304688-0.0898438,0.5908203-0.1992188,0.8007812l-0.0097656,0.0400391
	c-0.1113281,0.2099609-0.1796875,0.5693359-0.1699219,0.7998047l0.0898438,2.0703125
	c0.0097656,0.2402344-0.1113281,0.5595703-0.28125,0.7294922l-0.4589844,0.4599609
	c-0.1699219,0.1601562-0.4003906,0.4609375-0.5195312,0.6601562l-0.5,0.859375
	c-0.1113281,0.2011719-0.2714844,0.5205078-0.3398438,0.7011719c-0.0703125,0.1796875-0.2910156,0.4394531-0.4804688,0.5800781
	l-0.6308594,0.4296875c-0.1894531,0.1396484-0.4902344,0.1191406-0.6699219-0.0400391l-0.8300781-0.75
	c-0.1699219-0.1601562-0.46875-0.3896484-0.6699219-0.5107422l-0.7402344-0.4794922l-0.71875-0.4599609l-1.9414062-1.2597656
	c-0.1894531-0.1201172-0.4492188-0.390625-0.5800781-0.5898438l-0.2089844-0.3398438
	c-0.1210938-0.2011719-0.2207031-0.5507812-0.2207031-0.78125V5.2666016c0-0.2304688,0.1210938-0.5703125,0.28125-0.7402344
	l0.5-0.5605469c0.1484375-0.1796875,0.3789062-0.4794922,0.5097656-0.6699219l0.3300781-0.4902344
	c0.1289062-0.1894531,0.0996094-0.4892578-0.0703125-0.6494141l-0.1894531-0.2001953
	c-0.1699219-0.1601562-0.4804688-0.359375-0.7011719-0.4394531l-3.0488281-1.0410156
	c-0.2207031-0.0800781-0.5703125-0.0595703-0.78125,0.0507812l-2.4296875,1.2099609
	c-0.1992188,0.1005859-0.5605469,0.2294922-0.7890625,0.2705078l-1.1503906,0.2294922
	c-0.2304688,0.0498047-0.5605469,0.2197266-0.7207031,0.3896484l-0.1992188,0.1904297
	c-0.1601562,0.1699219-0.3613281,0.4794922-0.4296875,0.7001953c-0.0800781,0.2197266-0.2714844,0.5292969-0.4316406,0.6992188
	l-0.0683594,0.0605469c-0.1601562,0.1601562-0.390625,0.4697266-0.5117188,0.6699219l-0.109375,0.1894531
	c-0.109375,0.2011719-0.1191406,0.5410156-0.0195312,0.75l0.0195312,0.0302734
	c0.0996094,0.2099609,0.0703125,0.4697266-0.0703125,0.5800781c-0.1503906,0.1103516-0.4394531,0.1103516-0.6386719,0
	l-0.4511719-0.25c-0.2089844-0.1201172-0.5488281-0.2802734-0.7695312-0.3603516l-0.2695312-0.0996094
	c-0.2207031-0.0800781-0.53125-0.2792969-0.7011719-0.4492188l-0.4589844-0.4609375
	c-0.1601562-0.1601562-0.4707031-0.2197266-0.6894531-0.1298828l-2.6601562,1.1201172
	c-0.2207031,0.0996094-0.5117188,0.3203125-0.6503906,0.5l-0.4101562,0.5292969
	c-0.1503906,0.1806641-0.3496094,0.5107422-0.4511719,0.7109375l-0.0195312,0.0390625
	c-0.0996094,0.2109375-0.359375,0.4609375-0.5800781,0.5605469l-0.9492188,0.4394531
	c-0.2109375,0.1005859-0.390625,0.2910156-0.390625,0.4414062c0,0.1494141,0.03125,0.4492188,0.0703125,0.6796875
	l0.0097656,0.0898438c0.03125,0.2402344-0.0292969,0.4492188-0.140625,0.4902344
	c-0.109375,0.0390625-0.3789062,0.0195312-0.609375-0.0410156l-0.7695312-0.1894531
	c-0.2304688-0.0605469-0.5292969,0.0400391-0.6894531,0.2207031l-0.2402344,0.2792969
	c-0.1503906,0.1796875-0.3710938,0.4902344-0.4804688,0.7001953l-0.390625,0.7099609
	c-0.109375,0.2099609-0.2890625,0.5498047-0.3886719,0.7597656l-0.4199219,0.8300781
	c-0.1015625,0.2099609-0.3515625,0.4804688-0.5410156,0.609375l-1.5488281,1c-0.1914062,0.1210938-0.5410156,0.2402344-0.78125,0.25
	l-1.2695312,0.0800781c-0.2402344,0.0205078-0.5996094,0.1005859-0.8203125,0.1904297l-5.0507812,2.0703125l-0.7792969,0.3193359
	l-2.2695312,1c-0.2207031,0.0898438-0.4902344,0.3300781-0.609375,0.5302734l-0.3613281,0.6005859
	c-0.1191406,0.1894531-0.2988281,0.5292969-0.4101562,0.7402344l-0.5488281,1.0996094
	c-0.0996094,0.2099609-0.1699219,0.5703125-0.140625,0.7998047l0.0507812,0.4794922
	c0.0195312,0.2304688,0.0996094,0.6005859,0.1699219,0.8203125c0.0703125,0.2207031,0.0898438,0.5800781,0.0488281,0.8105469
	l-0.0996094,0.5c-0.0507812,0.2294922-0.0800781,0.5996094-0.0800781,0.8398438v2.4697266
	c0,0.2294922-0.0605469,0.6005859-0.1289062,0.8300781l-0.1503906,0.5097656
	c-0.0703125,0.2197266-0.1113281,0.6005859-0.0800781,0.8300781l0.1894531,2.2099609
	c0.0195312,0.2304688,0.0703125,0.5996094,0.1210938,0.8300781l0.359375,1.8203125
	c0.0488281,0.2304688,0,0.5898438-0.0898438,0.7998047l-0.5703125,1.2294922
	c-0.0996094,0.2109375-0.2304688,0.5605469-0.2910156,0.7910156l-0.0488281,0.2392578
	c-0.0605469,0.2197266-0.2597656,0.5302734-0.4394531,0.6708984l-0.53125,0.4091797
	c-0.1796875,0.1396484-0.3105469,0.4501953-0.2792969,0.6806641l0.0195312,0.21875
	c0.0292969,0.2304688,0.2304688,0.5,0.4492188,0.5908203l1.8808594,0.8505859
	c0.2109375,0.0898438,0.5703125,0.1191406,0.7910156,0.0585938l2.0996094-0.5693359
	c0.2285156-0.0595703,0.5703125-0.2099609,0.7695312-0.3300781l1-0.6201172
	c0.1992188-0.1191406,0.5507812-0.2402344,0.7890625-0.2597656l2.6015625-0.2001953
	c0.2285156-0.0097656,0.609375-0.0498047,0.8398438-0.0791016l1.5488281-0.1708984
	c0.2304688-0.0205078,0.6015625-0.1201172,0.8105469-0.2001953l4.7910156-1.9394531
	c0.2089844-0.0898438,0.578125-0.1894531,0.8085938-0.2207031l4.5996094-0.6699219l0.8417969-0.1191406l1.9492188-0.2802734
	c0.2207031-0.0400391,0.5703125,0.0400391,0.7695312,0.1699219l1.28125,0.8603516
	c0.1894531,0.1289062,0.5195312,0.3300781,0.71875,0.4394531l0.4609375,0.25
	c0.1992188,0.1201172,0.4492188,0.3808594,0.5488281,0.5898438l0.5703125,1.2207031
	c0.0996094,0.2089844,0.2402344,0.5703125,0.3105469,0.7890625l0.1289062,0.390625
	c0.0703125,0.2197266,0.28125,0.3105469,0.4609375,0.1992188c0.1894531-0.109375,0.4707031-0.3291016,0.6289062-0.5
	l0.2011719-0.1894531c0.1699219-0.1699219,0.4492188-0.3300781,0.6289062-0.3691406
	c0.1914062-0.0410156,0.4902344-0.1806641,0.6699219-0.3203125l0.5214844-0.4199219
	c0.1894531-0.140625,0.5097656-0.3300781,0.7285156-0.4199219l0.1503906-0.0703125
	c0.2109375-0.0898438,0.4511719-0.0097656,0.5214844,0.1699219c0.0683594,0.1796875,0.0097656,0.4697266-0.1503906,0.6503906
	l-0.3710938,0.4199219l-0.5488281,0.6396484l-0.25,0.2900391c-0.1503906,0.1699219-0.3300781,0.4697266-0.4003906,0.6503906
	c-0.0800781,0.1796875-0.0292969,0.4892578,0.0996094,0.6894531l0.0605469,0.0898438
	c0.1289062,0.1894531,0.3789062,0.2597656,0.5703125,0.1503906c0.1796875-0.1103516,0.3886719-0.3496094,0.4589844-0.5302734
	s0.28125-0.4199219,0.4609375-0.5302734c0.1894531-0.109375,0.2988281-0.0097656,0.2597656,0.2207031l-0.1113281,0.6191406
	c-0.0488281,0.2304688-0.0097656,0.6005859,0.0703125,0.8203125l0.2402344,0.6601562
	c0.0703125,0.2207031,0.0898438,0.5800781,0.0410156,0.8105469l-0.3300781,1.2988281
	c-0.0507812,0.2207031,0.0390625,0.5410156,0.1992188,0.7109375l0.0605469,0.0595703
	c0.1699219,0.1699219,0.4589844,0.4101562,0.6601562,0.5302734l1.5390625,1
	c0.2011719,0.1298828,0.5410156,0.2304688,0.7597656,0.2304688c0.2207031,0,0.5703125,0.0898438,0.7714844,0.1894531
	l0.0390625,0.0195312c0.2109375,0.1005859,0.5292969,0.0703125,0.7109375-0.0800781l0.1386719-0.1191406
	c0.1796875-0.1503906,0.5097656-0.3300781,0.7304688-0.390625l0.1191406-0.0292969
	c0.2207031-0.0703125,0.5507812,0.0097656,0.7304688,0.1601562l1.0703125,0.9091797
	c0.1796875,0.1503906,0.4902344,0.1708984,0.6894531,0.0498047l0.6015625-0.359375
	c0.1992188-0.1201172,0.5390625-0.2900391,0.75-0.390625l1.21875-0.5703125
	c0.2109375-0.0996094,0.5703125-0.2089844,0.8105469-0.2392578l1.0097656-0.1494141
	c0.2304688-0.03125,0.5898438,0.0292969,0.8007812,0.1289062l0.2988281,0.1503906
	c0.2109375,0.109375,0.5,0.0400391,0.640625-0.1503906l0.6796875-0.9101562l0.5097656-0.6796875l1.6113281-2.109375
	c0.1386719-0.1796875,0.4082031-0.4404297,0.5996094-0.5800781l0.6386719-0.4404297
	c0.1914062-0.1396484,0.4511719-0.3994141,0.5800781-0.5898438l0.9804688-1.4306641
	c0.1308594-0.1894531,0.3300781-0.5,0.4394531-0.6796875c0.1113281-0.1796875,0.3710938-0.4101562,0.5800781-0.5097656
	l1.7597656-0.8300781c0.2109375-0.0996094,0.5117188-0.3203125,0.671875-0.5l2.078125-2.2890625
	c0.1601562-0.1708984,0.3808594-0.4804688,0.4902344-0.6806641l1.1816406-2.1806641
	c0.109375-0.1992188,0.2988281-0.5292969,0.4199219-0.7294922l0.7597656-1.2597656
	c0.1191406-0.2001953,0.2402344-0.5595703,0.2597656-0.7900391l0.3105469-3
	c0.0292969-0.2304688,0.0898438-0.609375,0.1484375-0.8398438l0.3300781-1.2900391
	c0.0507812-0.2294922-0.0292969-0.5595703-0.1796875-0.7402344L64.9541016,24.7958984z"/>
<g>
</g>
<g>
</g>
<g>
</g>
<g>
</g>
<g>
</g>
<g>
</g>
</svg>
