<?xml version="1.0" encoding="utf-8"?>
<!-- Generator: Adobe Illustrator 16.2.0, SVG Export Plug-In . SVG Version: 6.00 Build 0)  -->
<!DOCTYPE svg PUBLIC "-//W3C//DTD SVG 1.1//EN" "http://www.w3.org/Graphics/SVG/1.1/DTD/svg11.dtd">
<svg version="1.1" id="Layer_1" xmlns="http://www.w3.org/2000/svg" xmlns:xlink="http://www.w3.org/1999/xlink" x="0px" y="0px"
	 width="64.3544922px" height="68.1601562px" viewBox="0 0 64.3544922 68.1601562"
	 enable-background="new 0 0 64.3544922 68.1601562" xml:space="preserve">
<path fill="#FBBC16" d="M63.9238281,19.3095703c-0.0488281-0.2294922-0.2294922-0.5488281-0.3994141-0.7089844l-0.4599609-0.4707031
	c-0.1699219-0.1601562-0.4804688-0.3496094-0.7099609-0.4101562l-2.1005859-0.5703125
	c-0.2197266-0.0595703-0.5595703-0.21875-0.7597656-0.359375l-0.6298828-0.4394531
	c-0.1904297-0.1308594-0.5097656-0.3398438-0.7001953-0.4707031l-0.3496094-0.2099609
	c-0.1894531-0.1201172-0.4599609-0.3798828-0.5800781-0.5800781l-0.4804688-0.7392578
	c-0.1191406-0.2011719-0.4101562-0.390625-0.6396484-0.4306641l-0.7597656-0.1298828l-0.8408203-0.1201172l-2.3398438-0.2900391
	c-0.2294922-0.0292969-0.5996094-0.109375-0.8193359-0.1796875l-0.9199219-0.2802734
	c-0.2197266-0.0693359-0.5800781-0.0595703-0.7998047,0.0205078l-0.2705078,0.0996094
	c-0.2099609,0.0898438-0.5302734,0.2900391-0.6904297,0.4501953l-0.1992188,0.2001953
	c-0.1601562,0.1601562-0.4501953,0.1796875-0.6308594,0.0292969c-0.1796875-0.1396484-0.2695312-0.4394531-0.1992188-0.6601562
	c0.0703125-0.2197266,0.0605469-0.5693359-0.0302734-0.7890625l-0.0693359-0.1503906
	C47.4550781,11.9101562,47.2148438,11.6298828,47.0244141,11.5l-1.9404297-1.2597656
	c-0.1992188-0.1298828-0.5498047-0.2294922-0.7792969-0.2294922h-0.4804688c-0.2304688,0-0.5898438,0.0898438-0.7998047,0.2089844
	l-0.4501953,0.25c-0.1992188,0.1103516-0.4902344,0.3496094-0.6503906,0.5205078l-0.5,0.5595703
	c-0.1494141,0.1699219-0.4589844,0.390625-0.6699219,0.4804688l-0.1494141,0.0703125
	c-0.2099609,0.0898438-0.5703125,0.0996094-0.7900391,0.0097656l-0.2597656-0.0898438
	c-0.2207031-0.0800781-0.25-0.2705078-0.0605469-0.4101562l1.0507812-0.8105469
	c0.1894531-0.1396484,0.46875-0.4003906,0.6396484-0.5595703l0.0595703-0.0595703
	c0.1601562-0.1699219,0.2402344-0.4511719,0.1699219-0.6308594c-0.0800781-0.1894531-0.2695312-0.4697266-0.4394531-0.6396484
	l-0.1904297-0.1904297c-0.1699219-0.1699219-0.4892578-0.3300781-0.7197266-0.359375L39.84375,8.3398438
	c-0.2294922-0.0302734-0.5996094,0.0107422-0.8193359,0.1005859l-0.2705078,0.0898438
	c-0.2197266,0.0800781-0.5195312,0.2890625-0.6894531,0.4599609l-1.4003906,1.5
	c-0.1601562,0.1796875-0.4589844,0.4091797-0.6601562,0.5302734l-0.1894531,0.0996094
	c-0.2099609,0.1201172-0.5195312,0.1894531-0.7001953,0.1503906c-0.1904297-0.0410156-0.2197266-0.2207031-0.0800781-0.4101562
	l0.2900391-0.3808594C35.4648438,10.2998047,35.7050781,10,35.8544922,9.8300781l0.6298828-0.7001953
	c0.1601562-0.1699219,0.4296875-0.4394531,0.5996094-0.5996094l0.5605469-0.4902344
	c0.1699219-0.1601562,0.3798828-0.4707031,0.4492188-0.6894531l0.2607422-0.78125
	c0.0800781-0.21875,0.1396484-0.5898438,0.1396484-0.7988281c0-0.2207031-0.1191406-0.4902344-0.2695312-0.6005859
	c-0.140625-0.1103516-0.3203125-0.3798828-0.4003906-0.6005859l-0.1298828-0.3886719l-0.25-0.8105469l-0.4199219-1.4394531
	c-0.0693359-0.2304688-0.2705078-0.53125-0.4404297-0.6904297l-0.0595703-0.0498047L36.0136719,1.75l-0.4892578,0.6396484
	l-0.4697266,0.7402344l-0.4707031,0.7207031l-0.3203125,0.4892578c-0.1699219,0.25-0.5488281,0.4306641-0.8496094,0.4101562
	l-0.8798828-0.0693359l-0.8798828-0.1904297l-0.2700195-0.1005859l-0.7397461-0.1289062h-1.1401367
	c-0.2001953,0-0.5,0.0898438-0.6601562,0.1894531l-0.4897461,0.3300781
	c-0.2202148,0.1503906-0.6000977,0.2890625-0.8603516,0.3203125l-1.1499023,0.1601562l-0.7597656,0.1992188l-1.4702148,0.5996094
	c-0.2597656,0.1103516-0.6796875,0.1308594-0.9399414,0.0605469l-0.1098633-0.0302734
	c-0.2802734-0.0791016-0.6098633-0.3193359-0.7700195-0.5498047l-0.1699219-0.2304688l-0.4199219-0.7988281l-0.2402344-0.6601562
	c-0.1000977-0.28125-0.0600586-0.6904297,0.1098633-0.9404297l0.0600586-0.0908203
	c0.1098633-0.1591797,0.2202148-0.4794922,0.2299805-0.6699219L21.9345703,1
	c0.0200195-0.1601562-0.090332-0.3994141-0.2202148-0.4892578l-0.3798828-0.2910156
	C21.2543945,0.1699219,21.1943359,0.0898438,21.1342773,0l-0.0200195,0.0107422h-0.5
	c-0.1899414,0-0.4799805,0.0996094-0.6201172,0.21875l-0.6699219,0.53125L18.5844727,1.25l-1.2402344,0.6601562
	c-0.2597656,0.1396484-0.6699219,0.1591797-0.9399414,0.0400391l-0.8100586-0.3300781
	c-0.1098633-0.0507812-0.2397461,0-0.2797852,0.109375l-0.0703125,0.1503906c-0.0698242,0.1601562-0.0698242,0.4599609,0,0.6201172
	l0.2104492,0.5400391l0.409668,0.6201172l0.4599609,0.4599609C16.4545898,4.25,16.5141602,4.4101562,16.4941406,4.5693359
	c-0.0200195,0.1708984-0.1098633,0.3203125-0.25,0.4101562l-0.0898438,0.0605469l-0.5200195,0.5400391l-0.2099609,0.3398438
	C15.2744141,6.1494141,14.9545898,6.4101562,14.6845703,6.5l-1.8500977,0.6494141
	C12.5541992,7.25,12.1445312,7.2099609,11.8945312,7.0400391l-0.7402344-0.4707031
	c-0.2397461-0.1494141-0.5-0.4589844-0.6098633-0.71875l-0.25-0.6308594l-0.1801758-0.3691406
	C9.984375,4.8896484,9.6845703,5.0595703,9.5341797,5.1904297l-0.159668,0.1396484
	C9.1445312,5.5400391,8.7744141,5.6396484,8.5141602,5.5693359L7.8442383,5.3398438
	C7.7841797,5.2998047,7.5742188,5.2998047,7.4243164,5.3798828L6.6445312,5.7402344
	C6.5244141,5.7998047,6.4345703,5.9697266,6.4545898,6.1103516l0.0395508,0.2197266c0,0,0.25,0.7197266,0.2802734,0.7705078
	c0.1601562,0.2988281,0.1000977,0.6992188-0.1499023,0.9199219L6.1845703,8.4199219
	C6.0644531,8.5302734,5.984375,8.7705078,6.0141602,8.9404297l0.0302734,0.2197266l0.2597656,0.7197266l0.4702148,0.8496094
	l0.2597656,0.8808594L7.0644531,12c0.0200195,0.2705078-0.0600586,0.6806641-0.1801758,0.9199219l-0.0600586,0.1201172
	l-0.2197266,0.7304688l-0.090332,0.8300781l-0.1298828,0.859375l-0.1000977,0.5
	c-0.0498047,0.3007812-0.2797852,0.5996094-0.5097656,0.7001953c-0.2602539,0.1103516-0.6201172,0.0097656-0.8398438-0.2294922
	l-0.2202148-0.2607422l-0.0097656-0.0097656l-0.5400391,0.2802734l-0.7900391,0.2402344l-1.0600586,0.4091797
	C2.1245117,17.1601562,1.8442383,17.3505859,1.7143555,17.5l-0.3100586,0.3398438
	c-0.1298828,0.1396484-0.2797852,0.4404297-0.3198242,0.6298828l-0.1899414,1.0205078l-0.3100586,0.8496094l-0.2099609,0.4003906
	l-0.2700195,0.7392578l-0.090332,0.4003906c-0.0400391,0.1796875,0.0102539,0.4804688,0.1000977,0.6308594l1.1699219,2.0097656
	c0.090332,0.1699219,0.3300781,0.3896484,0.5,0.4794922l0.1303711,0.0595703c0,0,0.7299805,0.5302734,0.75,0.5507812
	C2.8041992,25.75,3.0942383,25.9199219,3.3544922,26c0.199707,0.0595703,0.409668,0.0400391,0.4599609,0.0107422
	c0.199707-0.1210938,0.5498047-0.1005859,0.7998047-0.0205078l0.25,0.0898438
	c0.2802734,0.0898438,0.590332,0.3603516,0.7099609,0.6298828l0.3500977,0.7304688
	c0.0800781,0.1699219,0.2900391,0.3896484,0.4599609,0.4589844l0.9101562,0.4404297
	c0.0800781,0.0302734,0.1499023,0.0800781,0.2299805,0.1396484l0.6699219-0.609375l0.7202148-0.5195312l1.1196289-0.6503906
	l0.8500977-0.3105469l0.4902344-0.0996094l0.5698242-0.1894531c0.2099609-0.1308594,0.5600586-0.0800781,0.8300781,0.0292969
	c0.2700195,0.1308594,0.5297852,0.4394531,0.6098633,0.7304688l0.2299805,0.859375l0.2802734,0.7402344l0.9399414,1.8105469
	c0.0898438,0.1699219,0.3100586,0.3896484,0.4799805,0.4697266l0.1298828,0.0693359l0.7202148,0.2109375l0.9296875,0.0898438
	l0.8701172,0.2402344l3.4799805,1.6699219c0.2602539,0.1191406,0.5400391,0.4296875,0.6401367,0.6992188l0.2299805,0.6201172
	l0.2998047,0.7900391l0.3203125,0.8007812l0.3896484,0.6494141l0.1499023,0.1601562
	c0.1201172,0.1396484,0.4003906,0.3095703,0.5800781,0.3496094l1.0302734,0.25l0.8198242,0.2900391
	c0.2202148,0.1103516,0.5102539,0.390625,0.6601562,0.6103516l0.2597656,0.4296875l0.4702148,0.6699219l0.2597656,0.3203125
	c0.1699219,0.2001953,0.3500977,0.5693359,0.4101562,0.8798828c0,0,0,0.9199219-0.0097656,0.9707031l-0.1801758,0.8398438
	l-0.0800781,0.3193359c-0.0600586,0.2705078-0.2797852,0.6201172-0.5,0.7900391l-0.3300781,0.2597656
	c0.050293,0.0605469,0.1000977,0.1201172,0.1401367,0.1904297l0.2597656,0.4199219l0.4204102,0.7705078l0.4296875,0.9101562
	l0.2299805,0.8789062l0.0302734,0.390625l0.1499023,0.7792969l0.0898438,0.25c0.050293,0.1699219,0.25,0.390625,0.4101562,0.4707031
	l0.2998047,0.1503906c0.2402344,0.1191406,0.5302734,0.3691406,0.6801758,0.5693359
	c0.1000977,0.1396484,0.3398438,0.3398438,0.5200195,0.4199219l1.8798828,0.8798828l0.7304688,0.3007812
	c0.2197266,0.0898438,0.5390625,0.3095703,0.7089844,0.5097656l0.6806641,0.7792969
	c0.1806641,0.2001953,0.3603516,0.5703125,0.4199219,0.8300781l0.0898438,0.4101562l0.2607422,0.7304688l0.21875,0.4003906
	l0.4003906,0.7597656l0.0605469,0.1289062c0.1298828,0.2607422,0.1601562,0.640625,0.0595703,0.8613281l-0.3496094,0.6992188
	L35.125,58.2402344l-0.5908203,0.7001953l-0.1298828,0.0898438l-0.7197266,0.4599609L33.09375,59.9404297l-0.6591797,0.6992188
	l-0.4301758,0.6601562c-0.0600586,0.1503906-0.0498047,0.4199219,0.0400391,0.5605469l0.0898438,0.1601562l0.1201172,0.25
	c0.0097656,0.0097656,0.0297852,0.0097656,0.0400391,0.0195312c0.0297852,0.0400391,0.0297852,0.0898438,0.0297852,0.140625
	l0.1801758,0.3886719c0.0600586,0.1708984,0.2495117,0.4208984,0.3999023,0.53125L33.625,63.8398438l0.6992188,0.4003906
	l1.1699219,0.5302734l0.7402344,0.5390625l0.4003906,0.4306641c0.1396484,0.1494141,0.3789062,0.2802734,0.5097656,0.2900391
	c0.25,0.0292969,0.5800781,0.2099609,0.7792969,0.4003906l1.7910156,1.7294922
	c0.1191406-0.1601562,0.2402344-0.3505859,0.2890625-0.5l0.3300781-0.8896484
	c0.0800781-0.2109375,0.2705078-0.5410156,0.4101562-0.7304688l1.3300781-1.7207031
	c0.1503906-0.1796875,0.2900391-0.5195312,0.3105469-0.75l0.1699219-1.5488281
	c0.0292969-0.2304688,0.1796875-0.5605469,0.3398438-0.7304688l0.75-0.8300781
	c0.1601562-0.1796875,0.3398438-0.5,0.4003906-0.7197266l0.5693359-1.9697266
	c0.0595703-0.2304688,0.0595703-0.5898438-0.0097656-0.8203125l-0.2802734-0.9101562
	c-0.0703125-0.2207031-0.1503906-0.5996094-0.1699219-0.8300781l-0.0498047-0.4804688
	c-0.0205078-0.2294922,0.0898438-0.5595703,0.2597656-0.71875l0.7294922-0.7304688
	c0.1601562-0.1601562,0.4511719-0.4101562,0.640625-0.5400391l1.0292969-0.7099609
	c0.1914062-0.1308594,0.5410156-0.2802734,0.7607422-0.3300781l1.1601562-0.2304688
	c0.2294922-0.0390625,0.5595703-0.1992188,0.7392578-0.359375l0.4199219-0.3701172
	c0.1806641-0.1503906,0.5107422-0.2998047,0.7402344-0.3203125l0.4804688-0.0498047l0.8496094-0.0800781l0.7402344-0.0605469
	c0.2402344-0.0195312,0.5703125-0.1601562,0.75-0.3095703l0.4199219-0.3701172L54.4746094,49
	c0.1796875-0.1396484,0.4101562-0.4404297,0.4902344-0.6494141l1.6699219-4c0.0898438-0.2109375,0.1992188-0.5800781,0.25-0.8007812
	l0.8789062-4.0800781c0.0507812-0.2294922,0.1113281-0.5996094,0.1308594-0.8398438l0.1894531-2.4697266
	c0.0205078-0.2294922,0.0097656-0.6103516-0.0292969-0.8408203l-0.2705078-1.8085938
	c-0.0302734-0.2304688,0.0302734-0.5908203,0.1298828-0.8007812l0.2802734-0.5703125
	c0.1103516-0.2089844,0.3300781-0.5097656,0.4902344-0.6796875l0.3291016-0.3300781
	c0.1708984-0.1601562,0.4003906-0.4599609,0.5107422-0.6699219l1.3095703-2.3105469
	c0.1103516-0.1992188,0.3105469-0.5292969,0.4404297-0.71875l0.8603516-1.28125
	c0.1289062-0.1992188,0.3691406-0.4892578,0.5292969-0.6591797l0.5996094-0.5908203
	c0.1601562-0.1699219,0.3613281-0.4794922,0.4414062-0.6992188l0.5-1.3300781
	c0.0791016-0.2099609,0.1494141-0.5800781,0.1494141-0.8203125v-0.609375c0-0.2304688-0.0400391-0.6103516-0.1005859-0.8300781
	L63.9238281,19.3095703z"/>
<g>
</g>
<g>
</g>
<g>
</g>
<g>
</g>
<g>
</g>
<g>
</g>
</svg>
