<?xml version="1.0" encoding="utf-8"?>
<!-- Generator: Adobe Illustrator 16.2.0, SVG Export Plug-In . SVG Version: 6.00 Build 0)  -->
<!DOCTYPE svg PUBLIC "-//W3C//DTD SVG 1.1//EN" "http://www.w3.org/Graphics/SVG/1.1/DTD/svg11.dtd">
<svg version="1.1" id="Layer_1" xmlns="http://www.w3.org/2000/svg" xmlns:xlink="http://www.w3.org/1999/xlink" x="0px" y="0px"
	 width="123.3876953px" height="64.1601562px" viewBox="0 0 123.3876953 64.1601562"
	 enable-background="new 0 0 123.3876953 64.1601562" xml:space="preserve">
<g>
	<path fill="#FBBC16" d="M0.7202148,51.1298828l0.3999023,0.5205078c0.1499023,0.1894531,0.4199219,0.4501953,0.6098633,0.5898438
		l0.2402344,0.1699219l0.6899414,0.4902344l0.2397461,0.1699219c0.1899414,0.1396484,0.5302734,0.2197266,0.7602539,0.1904297
		l0.2197266-0.0205078c0.2299805-0.0302734,0.4799805-0.1796875,0.5600586-0.3203125
		C4.5102539,52.7705078,4.5400391,52.4707031,4.5,52.25c-0.0297852-0.2197266-0.1801758-0.5400391-0.3300781-0.7294922
		c-0.1499023-0.1806641-0.3500977-0.5-0.449707-0.7099609l-0.0200195-0.0302734
		c-0.1103516-0.2099609-0.3500977-0.4902344-0.550293-0.6201172l-0.0898438-0.0595703
		c-0.1899414-0.1298828-0.5-0.3505859-0.6699219-0.5l-0.1499023-0.1201172c-0.1801758-0.1503906-0.4399414-0.25-0.590332-0.2099609
		C1.5,49.3105469,1.2700195,49.4306641,1.1201172,49.5400391c-0.1499023,0.1005859-0.4101562,0.25-0.6000977,0.3300781
		C0.3398438,49.9404297,0.25,50.1806641,0.3198242,50.4003906C0.3999023,50.6201172,0.5698242,50.9501953,0.7202148,51.1298828z"/>
	<g>
		<path fill="#FBBC16" d="M76.5898438,14.1904297c0.2207031,0.0703125,0.5703125,0.0498047,0.7802734-0.0400391l0.6904297-0.3203125
			c0.2089844-0.0898438,0.5800781-0.1699219,0.8095703-0.1699219h2.2001953c0.2304688,0,0.5595703-0.1396484,0.7197266-0.2998047
			l0.4697266-0.4599609c0.1601562-0.1699219,0.1308594-0.4101562-0.0595703-0.5302734l-0.75-0.4697266
			c-0.1904297-0.1298828-0.5400391-0.2099609-0.7802734-0.1904297l-0.609375,0.0507812
			c-0.2304688,0.0195312-0.6005859,0.1191406-0.8105469,0.2099609l-0.1503906,0.0595703
			c-0.2197266,0.0898438-0.5800781,0.2099609-0.8095703,0.25l-0.4892578,0.0996094
			c-0.2304688,0.0507812-0.53125,0.2402344-0.6708984,0.4208984l-0.6904297,0.9199219
			C76.3007812,13.9003906,76.3701172,14.1201172,76.5898438,14.1904297z"/>
		<path fill="#FBBC16" d="M81.3105469,26.2402344l-0.6904297-0.6298828
			c-0.1806641-0.1503906-0.5107422-0.2998047-0.7402344-0.3203125l-0.4794922-0.0498047
			c-0.2402344-0.0195312-0.6103516-0.0195312-0.8496094,0.0097656l-0.2207031,0.0302734
			c-0.2304688,0.0302734-0.5605469,0.1699219-0.7402344,0.3203125l-1.5996094,1.3193359
			c-0.1796875,0.1503906-0.2304688,0.4306641-0.0996094,0.6201172l0.0595703,0.0898438
			c0.1298828,0.1904297,0.4296875,0.3808594,0.6591797,0.4101562l0.0908203,0.0205078
			c0.2294922,0.0292969,0.6005859,0,0.8193359-0.0800781l1.1806641-0.390625
			c0.2294922-0.0791016,0.5693359-0.0498047,0.7802734,0.0703125l0.4492188,0.25
			c0.2001953,0.1103516,0.5507812,0.2597656,0.7802734,0.3300781l0.5107422,0.1503906
			c0.21875,0.0693359,0.4794922-0.0507812,0.5693359-0.2705078l0.0693359-0.1494141
			c0.0908203-0.2099609,0.1005859-0.5605469,0.0205078-0.7802734l-0.0996094-0.2705078
			C81.6894531,26.7001953,81.4804688,26.4003906,81.3105469,26.2402344z"/>
		<path fill="#FBBC16" d="M14.3198242,21l-0.6699219,0.5107422L8.4799805,25.5l-0.6601562,0.5302734L4.5,28.6806641
			l-0.6801758,0.5195312l-2.0996094,1.4902344l-0.7001953,0.4902344l-0.0898438,0.0595703
			c-0.1699219,0.1103516-0.4101562,0.3603516-0.5102539,0.5302734l-0.3598633,0.5996094
			C-0.0200195,32.5-0.0200195,32.75,0.0600586,32.890625l0.1000977,0.1894531l0.4599609,0.6806641l0.4101562,0.5195312
			c0.1098633,0.1396484,0.3598633,0.2998047,0.5200195,0.3300781c0.159668,0.0195312,0.4296875-0.0498047,0.5996094-0.1904297
			c0.3803711-0.1796875,0.7299805-0.2197266,1.0600586-0.109375l0.6298828,0.2294922
			c0.2602539,0.0898438,0.590332,0.3505859,0.7299805,0.5898438l0.6201172,1
			c0.1103516,0.1708984,0.1601562,0.4101562,0.1601562,0.640625c0,0.109375-0.0102539,0.2099609-0.0400391,0.2998047
			l-0.1499023,0.5195312l-0.1499023,0.7802734l-0.0600586,0.6201172v0.0302734c0,0.1699219,0.0898438,0.4101562,0.199707,0.5195312
			l0.2001953,0.1904297C5.5,39.890625,5.5898438,40.140625,5.5898438,40.3798828
			c0,0.0908203-0.0097656,0.1904297-0.0395508,0.2802734l-0.1000977,0.2597656l-0.5,0.7802734L4.75,41.890625
			c-0.2099609,0.2197266-0.6000977,0.3398438-0.8999023,0.2792969l-0.6401367-0.109375
			c-0.0297852,0.0595703-0.0698242,0.1201172-0.1098633,0.1699219l-0.25,0.2900391
			c-0.1499023,0.1699219-0.2998047,0.5097656-0.3300781,0.7402344l-0.1499023,1.1494141
			c-0.0302734,0.2304688,0,0.6005859,0.0600586,0.8203125L2.5898438,45.75
			c0.0703125,0.2207031,0.0102539,0.5605469-0.1298828,0.7402344l-0.2900391,0.3798828
			c-0.1396484,0.1904297-0.199707,0.4306641-0.1196289,0.5400391c0.0698242,0.1103516,0.1899414,0.3505859,0.2597656,0.5302734
			C2.3901367,48.1298828,2.5800781,48.4101562,2.75,48.5800781l0.1899414,0.1904297
			c0.1699219,0.1699219,0.4501953,0.359375,0.6298828,0.4296875c0.1904297,0.0800781,0.4604492,0.2802734,0.6201172,0.4501953
			l0.4902344,0.5595703c0.159668,0.1806641,0.3701172,0.4902344,0.4799805,0.7001953l0.1499023,0.2998047
			c0.1000977,0.2099609,0.2597656,0.5605469,0.3398438,0.7705078l0.1899414,0.4599609h39.1503906l0.5996094-0.1796875
			c0.2900391-0.1308594,0.5703125-0.1201172,0.8300781,0.0292969l0.6000977,0.3603516l0.7202148,0.3300781l0.7900391,0.2597656
			l0.7998047,0.2402344L50.5,53.8007812l0.8198242,0.2099609l0.7802734,0.1894531l0.75-0.3203125
			c0.2197266-0.0898438,0.5800781-0.1699219,0.8198242-0.1699219h0.8701172c0.2402344,0,0.5800781-0.109375,0.7700195-0.2392578
			l0.2402344-0.1699219c0.1899414-0.140625,0.5297852-0.25,0.7397461-0.25c0.2202148,0,0.5200195,0.0898438,0.6699219,0.1992188
			c0.1401367,0.1103516,0.4399414,0.2001953,0.6601562,0.2001953c0.2197266,0,0.5200195,0.1396484,0.6699219,0.3203125
			l0.7797852,0.9394531c0.1503906,0.1806641,0.1601562,0.4501953,0.0102539,0.5908203
			c-0.1499023,0.1494141-0.2402344,0.4599609-0.2099609,0.6894531l0.0200195,0.0898438
			c0.0297852,0.2304688,0.2099609,0.5400391,0.3901367,0.6806641l1.1899414,0.9394531
			c0.1796875,0.1396484,0.449707,0.1699219,0.5996094,0.0605469c0.1503906-0.1103516,0.4404297-0.2802734,0.6503906-0.3701172
			l0.1499023-0.0605469c0.2197266-0.0898438,0.5498047-0.0595703,0.7392578,0.0703125l1.03125,0.7099609
			c0.1894531,0.1396484,0.3896484,0.4296875,0.4492188,0.6601562L64.1503906,59
			c0.0595703,0.2304688,0.0195312,0.5898438-0.0898438,0.8007812l-0.0205078,0.0292969
			c-0.1005859,0.2099609-0.3603516,0.4404297-0.5800781,0.5097656c-0.2197266,0.0800781-0.5693359,0.0507812-0.7802734-0.0498047
			l-0.0390625-0.0195312c-0.2104492-0.1005859-0.5507812-0.1005859-0.7607422,0l-0.0297852,0.0195312
			c-0.2099609,0.1005859-0.4799805,0.3505859-0.5898438,0.5605469l-0.25,0.4501953
			C60.8999023,61.5,60.6201172,61.7304688,60.3999023,61.8105469l-0.7797852,0.2597656l-0.0898438,0.0097656L59.5,62.2304688
			c-0.0498047,0.2597656-0.2299805,0.6298828-0.3999023,0.8300781l-0.25,0.2792969
			c-0.1000977,0.1201172-0.1401367,0.3603516-0.0898438,0.5107422l0.0996094,0.2695312
			c0.0102539,0.0097656,0.0302734,0.0205078,0.0400391,0.0400391l2.1699219-0.7597656
			c0.2202148-0.0703125,0.5200195-0.1103516,0.6601562-0.0703125l0.0703125,0.0302734l0.9204102-0.4804688l0.7890625-0.359375
			l1.3808594-0.5302734c0.0097656-0.0302734,0.0292969-0.0595703,0.0595703-0.0898438l0.3300781-0.3300781
			c0.1591797-0.1601562,0.4794922-0.3398438,0.7099609-0.4003906l0.7695312-0.1894531
			c0.2207031-0.0605469,0.5996094-0.1005859,0.8300781-0.1005859h0.1699219L68,60.7802734l3.7402344-1.6503906l0.8896484-0.1992188
			l3.2607422-0.1103516l0.6796875-0.1298828c0,0,0.8095703-0.2099609,0.8896484-0.2197266
			c0.1904297-0.0302734,0.4599609-0.1699219,0.5908203-0.3007812l1.9394531-2.0400391
			c0.1796875-0.1992188,0.5400391-0.4091797,0.7998047-0.4794922l0.6396484-0.1699219l0.6796875-0.2900391
			c0.2109375-0.1201172,0.53125-0.2099609,0.7607422-0.1601562c0.2392578,0.0595703,0.4697266,0.3398438,0.5800781,0.5800781
			l0.0595703,0.1503906c0.1103516,0.25,0.1601562,0.6494141,0.1103516,1.0097656l-0.2099609,0.75l-0.1796875,0.5498047
			c-0.0302734,0.1103516,0.0292969,0.3496094,0.1396484,0.5l0.4697266,0.6396484l0.1699219-0.0800781l0.2705078-0.0996094
			c0.2197266-0.0800781,0.5898438-0.1601562,0.8193359-0.1796875l2.0703125-0.1904297
			c0.2402344-0.0195312,0.5507812,0.0498047,0.6894531,0.1601562c0.1503906,0.1103516,0.0908203,0.2802734-0.1191406,0.3798828
			l-1.2207031,0.5703125c-0.2089844,0.0996094-0.5292969,0.2998047-0.7089844,0.4501953l-1.0703125,0.9091797
			c-0.1796875,0.1503906-0.1503906,0.3300781,0.0800781,0.390625l0.109375,0.0400391
			c0.2304688,0.0595703,0.6005859,0.0898438,0.8300781,0.0595703l0.2207031-0.0302734
			c0.2294922-0.0292969,0.5800781-0.1494141,0.7890625-0.2695312l1.9199219-1.1503906
			c0.2011719-0.1191406,0.5507812-0.25,0.7910156-0.2792969l1.2792969-0.1601562
			c0.2304688-0.0205078,0.5800781-0.1503906,0.7802734-0.2705078l1.9199219-1.1494141
			c0.2099609-0.1201172,0.2802734-0.3398438,0.1699219-0.4804688c-0.1103516-0.1494141-0.3896484-0.2597656-0.6201172-0.2402344
			l-0.8798828,0.0703125l-0.8496094,0.0703125l-0.4794922,0.0498047c-0.2304688,0.0302734-0.6005859-0.0195312-0.8203125-0.0898438
			l-0.390625-0.1298828c-0.2197266-0.0703125-0.5097656-0.2900391-0.6503906-0.4804688l-1.0996094-1.5595703
			c-0.1298828-0.1904297-0.0996094-0.4697266,0.0703125-0.6298828l0.4296875-0.3701172
			c0.1699219-0.1503906,0.4501953-0.4101562,0.6201172-0.5800781l0.3203125-0.3203125
			c0.1699219-0.1699219,0.3496094-0.4902344,0.3994141-0.7197266l0.0800781-0.3603516
			c0.0507812-0.2294922-0.0996094-0.4296875-0.3300781-0.4394531l-1.4101562-0.0898438
			C87.7900391,52,87.4101562,52.0400391,87.1894531,52.1005859l-0.6386719,0.1796875
			c-0.2304688,0.0595703-0.5800781,0.2001953-0.78125,0.3203125l-2.9794922,1.7001953
			c-0.2001953,0.109375-0.4599609,0.1191406-0.5693359,0.0097656c-0.1113281-0.1103516-0.140625-0.3798828-0.0605469-0.6005859
			c0.0703125-0.2197266,0.2998047-0.4794922,0.5-0.5898438l3.5-1.859375c0.2099609-0.1103516,0.5605469-0.25,0.7792969-0.3203125
			L89.3105469,50.25c0.2294922-0.0595703,0.5996094-0.1201172,0.8300781-0.1201172h1.6699219
			c0.2402344,0,0.6191406,0.0302734,0.8496094,0.0703125l0.75,0.1298828
			c0.2304688,0.0400391,0.609375,0.0498047,0.8398438,0.0302734l0.609375-0.0595703
			c0.2402344-0.0205078,0.6113281-0.0908203,0.8408203-0.1503906l0.1103516-0.0302734
			c0.2197266-0.0693359,0.5898438-0.1494141,0.8193359-0.2001953l2.0908203-0.3691406
			c0.2294922-0.0507812,0.5898438-0.1708984,0.7890625-0.2705078l2.6904297-1.3496094l0.7705078-0.3603516L104.1894531,47
			c0.2109375-0.0996094,0.4511719-0.359375,0.53125-0.5800781l0.2392578-0.6591797
			c0.0800781-0.2207031,0.2607422-0.5205078,0.4101562-0.6708984c0.1396484-0.1396484,0.1298828-0.3994141-0.0400391-0.5595703
			l-1.1201172-1.1298828c-0.1699219-0.1601562-0.4892578-0.2705078-0.7197266-0.2304688l-0.890625,0.1308594
			c-0.2294922,0.0390625-0.5898438,0.1298828-0.8095703,0.2099609L101.1201172,43.75
			c-0.2099609,0.0800781-0.5400391,0.0605469-0.7294922-0.0498047c-0.1806641-0.1103516-0.1699219-0.3095703,0.0292969-0.4296875
			l0.8808594-0.6005859c0.1992188-0.1191406,0.2597656-0.3193359,0.1494141-0.4296875
			c-0.1005859-0.1103516-0.2705078-0.3701172-0.3701172-0.5800781l-0.3105469-0.6894531
			c-0.0996094-0.2099609-0.2695312-0.5507812-0.3994141-0.75l-0.3505859-0.6005859
			c-0.1191406-0.2001953-0.1601562-0.5097656-0.0898438-0.7001953c0.0703125-0.1796875,0.2705078-0.4599609,0.4296875-0.6298828
			l0.0703125-0.0595703c0.1601562-0.1601562,0.1904297-0.4599609,0.0703125-0.6601562l-0.4804688-0.7402344
			c-0.1191406-0.2001953-0.1894531-0.5400391-0.1601562-0.7597656c0.0410156-0.2197266,0.0703125-0.5898438,0.0703125-0.8203125
			v-0.0800781c0-0.2294922-0.0595703-0.5996094-0.1289062-0.8300781l-0.1308594-0.3798828
			c-0.0800781-0.2294922-0.3105469-0.3300781-0.5292969-0.2392578l-0.1503906,0.0595703
			c-0.2099609,0.0996094-0.5400391,0.2802734-0.7402344,0.4101562l-0.4902344,0.3203125
			c-0.1894531,0.1298828-0.5,0.3496094-0.6894531,0.4892578l-0.7802734,0.5605469
			c-0.1806641,0.1396484-0.5205078,0.2900391-0.75,0.3496094l-0.2392578,0.0605469
			c-0.2207031,0.0595703-0.5908203,0.1699219-0.8105469,0.25l-0.6601562,0.2392578
			c-0.2207031,0.0800781-0.5097656-0.0097656-0.640625-0.1992188l-0.7089844-1.0302734
			C92.3496094,35.0400391,92.3203125,34.7099609,92.4296875,34.5l0.1503906-0.2998047
			c0.0996094-0.2099609,0.109375-0.5595703,0.0195312-0.7695312l-0.3300781-0.8105469
			c-0.0898438-0.2197266-0.3095703-0.5097656-0.4892578-0.6601562l-1.4697266-1.1894531
			c-0.1806641-0.1503906-0.5205078-0.2998047-0.7402344-0.3398438l-1.4199219-0.25l-0.8398438-0.1503906l-0.6210938-0.1103516
			C86.4599609,29.8701172,86.0898438,29.9101562,85.8701172,30l-1.8603516,0.7402344
			c-0.2197266,0.0898438-0.4794922,0.3300781-0.5996094,0.5302734l-1.3203125,2.4394531
			c-0.109375,0.2099609-0.3691406,0.4599609-0.5800781,0.5605469l-0.2998047,0.1494141
			C81,34.5302734,80.6894531,34.7402344,80.5097656,34.890625l-0.4199219,0.3701172
			c-0.1796875,0.1591797-0.2890625,0.4697266-0.2597656,0.6992188l0.1503906,1.1503906
			c0.0292969,0.2294922,0.0292969,0.6103516,0.0097656,0.8398438l-0.0400391,0.3505859
			c-0.0302734,0.2392578-0.1699219,0.5693359-0.3203125,0.75l-0.25,0.2792969
			C79.2304688,39.5107422,79,39.8105469,78.8701172,40.0107422l-0.0595703,0.0898438
			c-0.1308594,0.1894531-0.4003906,0.4394531-0.6103516,0.5400391l-0.5703125,0.2792969
			c-0.2099609,0.1103516-0.5400391,0.2900391-0.7392578,0.4101562l-1.9306641,1.1601562
			c-0.2001953,0.1201172-0.4794922,0.3701172-0.6201172,0.5498047l-0.8095703,1.0498047
			c-0.1396484,0.1904297-0.3300781,0.5107422-0.4306641,0.7304688l-0.859375,2
			c-0.0898438,0.2197266-0.3300781,0.4804688-0.5400391,0.5898438l-1.2402344,0.6699219
			c-0.2001953,0.1005859-0.5498047,0.2001953-0.7705078,0.2001953c-0.21875,0-0.46875-0.1796875-0.5488281-0.4003906
			l-0.6210938-1.5996094C68.4296875,46.0703125,68.4394531,45.7099609,68.5302734,45.5l0.5996094-1.4697266
			c0.0908203-0.2197266,0.2001953-0.5800781,0.2402344-0.8095703l0.1103516-0.6308594
			c0.0390625-0.2294922-0.0703125-0.5292969-0.25-0.6796875c-0.1904297-0.1494141-0.5302734-0.2695312-0.7597656-0.2695312
			h-0.3505859c-0.2294922,0-0.6005859-0.0605469-0.8193359-0.140625l-1.0605469-0.3798828
			c-0.2207031-0.0693359-0.5605469-0.2294922-0.7695312-0.3398438l-3.1005859-1.7197266
			c-0.2099609-0.1103516-0.5600586-0.2402344-0.7900391-0.2802734l-1.2900391-0.2402344
			c-0.2299805-0.0400391-0.5097656-0.25-0.6201172-0.4501953l-0.25-0.4492188
			c-0.1098633-0.2099609-0.3100586-0.5302734-0.4399414-0.7304688l-0.3300781-0.4794922
			c-0.1298828-0.2001953-0.3496094-0.4199219-0.5-0.4902344C58,35.8701172,58,35.6601562,58.1499023,35.4804688
			c0.1503906-0.1904297,0.3603516-0.5,0.4799805-0.7001953l0.3603516-0.5996094
			c0.1196289-0.2001953,0.3798828-0.4707031,0.5698242-0.6005859l1.0297852-0.7099609l0.6904297-0.4902344l2.0996094-1.5
			c0.1904297-0.1298828,0.5205078-0.3193359,0.7294922-0.4091797L66.25,29.6005859
			c0.2099609-0.0898438,0.5507812-0.2607422,0.7402344-0.390625l0.4902344-0.3300781
			C67.6699219,28.75,67.859375,28.4707031,67.9003906,28.25c0.0390625-0.2197266,0.2197266-0.4892578,0.4003906-0.5996094
			c0.1796875-0.1103516,0.5097656-0.1396484,0.7294922-0.0703125c0.2197266,0.0800781,0.5791016,0.1103516,0.8095703,0.0800781
			l0.0898438-0.0195312c0.2304688-0.0302734,0.6005859-0.1298828,0.8105469-0.2207031l0.1503906-0.0693359
			c0.21875-0.0898438,0.5800781-0.2001953,0.8095703-0.25l1.8193359-0.3603516
			c0.2304688-0.0498047,0.5703125-0.1894531,0.7607422-0.3300781l0.2392578-0.1699219
			c0.1904297-0.1396484,0.2304688-0.4003906,0.0800781-0.5800781l-0.8095703-1.0498047
			c-0.1396484-0.1904297-0.1298828-0.3701172,0.0107422-0.4101562c0.1494141-0.0302734,0.4492188,0,0.6699219,0.0800781
			l1.0595703,0.3798828c0.2099609,0.0800781,0.5791016,0.1103516,0.8095703,0.0800781l0.0898438-0.0097656
			c0.2304688-0.0400391,0.5898438-0.1503906,0.8007812-0.2705078l0.9697266-0.5195312
			C78.4101562,23.8300781,78.7695312,23.7304688,79,23.7304688l3.7900391-0.1103516
			c0.2402344-0.0097656,0.5898438-0.1201172,0.7802734-0.2402344l1.5498047-1
			c0.1904297-0.1298828,0.4501953-0.3896484,0.5800781-0.5898438l0.2099609-0.3398438
			c0.1201172-0.2001953,0.359375-0.5,0.5292969-0.6601562l0.4609375-0.4697266
			c0.1601562-0.1601562,0.2998047-0.4697266,0.2998047-0.6904297c0-0.2197266-0.1494141-0.4296875-0.3300781-0.4697266
			c-0.1904297-0.0302734-0.5107422-0.1396484-0.7197266-0.2402344l-0.4199219-0.1796875
			c-0.2109375-0.0996094-0.5800781-0.1699219-0.8105469-0.1699219h-0.75c-0.2304688,0-0.5498047,0.1396484-0.6992188,0.3095703
			l-1.5605469,1.7607422c-0.1601562,0.1699219-0.4707031,0.3701172-0.6894531,0.4394531l-0.5107422,0.1503906
			c-0.2294922,0.0703125-0.5800781,0.2001953-0.7998047,0.2998047l-0.6796875,0.3095703
			c-0.2109375,0.1005859-0.5410156,0.140625-0.7207031,0.1103516c-0.1796875-0.0400391-0.2998047-0.2197266-0.2597656-0.3994141
			c0.0302734-0.1806641,0.1699219-0.4902344,0.3007812-0.6806641l0.0585938-0.0898438
			c0.1308594-0.2001953,0.28125-0.5400391,0.3300781-0.7695312L79,19.7705078
			c0.0605469-0.2197266-0.0703125-0.4697266-0.2998047-0.5400391l-0.3798828-0.1298828
			c-0.2304688-0.0800781-0.5605469-0.0800781-0.7402344,0c-0.1796875,0.0693359-0.4501953,0.1298828-0.5996094,0.1298828
			c-0.140625,0-0.3505859-0.1699219-0.4501953-0.3798828L76.25,18.2802734c-0.109375-0.2099609-0.109375-0.5498047,0-0.7597656
			l0.0097656-0.0302734c0.1103516-0.2099609,0.25-0.5302734,0.3300781-0.7197266
			c0.0703125-0.1806641,0.0400391-0.5-0.0595703-0.7099609l-0.0205078-0.0302734
			c-0.0996094-0.2099609-0.3798828-0.3798828-0.609375-0.3798828h-0.0800781c-0.2402344,0-0.6103516,0.0595703-0.8300781,0.1396484
			l-1.0507812,0.3798828c-0.21875,0.0800781-0.5595703,0.2402344-0.7597656,0.3701172l-1.1396484,0.7402344
			c-0.2001953,0.1201172-0.3896484,0.3095703-0.4306641,0.4199219c-0.0292969,0.1103516,0.0908203,0.2900391,0.2705078,0.4003906
			c0.1806641,0.109375,0.4404297,0.359375,0.5703125,0.5498047l0.0595703,0.0898438
			c0.1308594,0.2001953,0.1699219,0.5400391,0.0996094,0.75c-0.0791016,0.2197266-0.25,0.5498047-0.3994141,0.7304688
			c-0.1494141,0.1894531-0.4599609,0.3496094-0.6904297,0.3691406l-0.8789062,0.0703125
			c-0.2304688,0.0097656-0.5800781,0.1298828-0.78125,0.25l-0.3398438,0.2197266l-0.71875,0.4404297l-1,0.6201172
			c-0.2011719,0.1201172-0.5205078,0.1201172-0.7207031-0.0097656l-0.0898438-0.0605469
			c-0.1894531-0.1298828-0.5195312-0.3193359-0.7304688-0.4296875l-0.0390625-0.0205078
			c-0.2109375-0.0996094-0.5-0.3095703-0.640625-0.4492188c-0.1503906-0.1503906-0.4599609-0.2705078-0.6894531-0.2705078
			h-0.3505859c-0.2294922,0-0.6005859,0.0703125-0.8193359,0.1503906l-0.2607422,0.0996094
			c-0.2197266,0.0800781-0.5898438,0.1503906-0.8300781,0.1503906h-0.7397461c-0.2299805,0-0.6098633-0.0498047-0.8300781-0.1103516
			l-2.2299805-0.5800781c-0.2299805-0.0595703-0.5898438-0.0996094-0.8100586-0.0996094
			c-0.2197266,0-0.5800781,0.0595703-0.7998047,0.1396484l-0.2602539,0.1005859
			C56.7402344,20.890625,56.3701172,20.9707031,56.1401367,21l-0.3500977,0.0400391
			c-0.2299805,0.0205078-0.5898438,0.140625-0.7998047,0.25l-0.9799805,0.5205078
			c-0.2001953,0.109375-0.4799805,0.359375-0.6201172,0.5498047l-0.1699219,0.2402344
			c-0.1303711,0.1894531-0.3603516,0.3701172-0.5102539,0.4101562c-0.1401367,0.0400391-0.3198242-0.1103516-0.3901367-0.3300781
			c-0.0795898-0.2207031-0.2695312-0.5400391-0.4399414-0.7001953l-0.5898438-0.5898438
			c-0.1699219-0.1699219-0.4897461-0.3007812-0.7299805-0.3007812h-0.3398438c-0.2299805,0-0.5400391,0.0605469-0.6899414,0.1308594
			c-0.1503906,0.0693359-0.4604492,0.1298828-0.6904297,0.1298828h-2.199707c-0.2299805,0-0.5400391-0.0898438-0.6899414-0.2001953
			S45.8300781,20.8603516,46.0200195,20.75c0.1801758-0.0996094,0.3901367-0.2792969,0.4599609-0.3896484
			c0.0703125-0.1103516,0.0400391-0.2900391-0.0698242-0.4003906c-0.1098633-0.109375-0.3901367-0.1992188-0.6201172-0.1992188
			h-1.0097656c-0.2299805,0-0.6000977-0.0800781-0.8100586-0.1708984l-0.4199219-0.1894531
			c-0.2104492-0.0898438-0.5703125-0.2304688-0.7900391-0.2998047l-2.1103516-0.6699219
			c-0.2197266-0.0703125-0.5898438-0.140625-0.8300781-0.1503906l-1.7998047-0.0898438
			c-0.2397461-0.0097656-0.6098633,0.0195312-0.8398438,0.0800781l-0.7700195,0.1894531
			c-0.2202148,0.0605469-0.5800781,0.0302734-0.800293-0.0693359L34,17.6806641
			c-0.2099609-0.1005859-0.5600586-0.0908203-0.7597656,0.0097656l-0.0400391,0.0195312
			c-0.2099609,0.1103516-0.5703125,0.2207031-0.800293,0.25l-0.0898438,0.0205078c-0.2299805,0.0302734-0.5698242,0-0.75-0.0800781
			c-0.1801758-0.0703125-0.5097656-0.1298828-0.7299805-0.1298828s-0.5698242,0.0898438-0.7797852,0.1894531L29.75,18.1103516
			c-0.2099609,0.0996094-0.5698242,0.2099609-0.7998047,0.2402344l-1.550293,0.1699219
			c-0.2299805,0.0195312-0.5996094,0.109375-0.8198242,0.1894531l-1.4501953,0.5107422
			c-0.2197266,0.0800781-0.5898438,0.1396484-0.8295898,0.1298828l-4.1904297-0.1103516
			c-0.2299805-0.0097656-0.5996094-0.0703125-0.8295898-0.1298828l-1.7602539-0.5302734L14.3198242,21z"/>
		<path fill="#FBBC16" d="M97.8300781,54.8798828l1.1503906-0.0791016c0.2294922-0.0107422,0.5996094,0.0390625,0.8203125,0.1191406
			l0.2597656,0.1005859c0.2197266,0.0800781,0.5898438,0.1494141,0.8300781,0.1396484l2.4589844-0.0996094
			c0.2402344-0.0097656,0.6103516-0.0703125,0.8300781-0.140625l1.0507812-0.2900391
			c0.2197266-0.0693359,0.5390625-0.2597656,0.6992188-0.4199219l0.2001953-0.1992188
			c0.1601562-0.1601562,0.2099609-0.4599609,0.1005859-0.6708984l-0.390625-0.7099609
			c-0.1191406-0.2099609-0.3896484-0.4394531-0.609375-0.5097656l-0.390625-0.1298828
			c-0.2197266-0.0703125-0.5898438-0.1699219-0.8203125-0.2197266l-0.4892578-0.1005859
			C103.3007812,51.6298828,103,51.4404297,102.8701172,51.25l-0.1699219-0.2392578
			c-0.1396484-0.1904297-0.1298828-0.4902344,0.0302734-0.6708984l0.2402344-0.2792969
			c0.1494141-0.1806641,0.3095703-0.5,0.3398438-0.7207031c0.0390625-0.2197266-0.1210938-0.3691406-0.3505859-0.3398438
			l-0.0898438,0.0107422c-0.2294922,0.0292969-0.5693359,0.1796875-0.75,0.3193359l-0.5302734,0.4101562
			c-0.1796875,0.1396484-0.4199219,0.4296875-0.5195312,0.6396484l-0.2900391,0.5703125
			c-0.1005859,0.2001953-0.3408203,0.4902344-0.5302734,0.6201172l-0.640625,0.4404297
			c-0.1894531,0.1396484-0.4794922,0.3798828-0.6386719,0.5400391L98.7695312,52.75
			c-0.1601562,0.1601562-0.46875,0.390625-0.6796875,0.4902344l-0.0390625,0.0205078
			c-0.2011719,0.0996094-0.5205078,0.3095703-0.6914062,0.4697266l-0.5585938,0.5
			c-0.1806641,0.1494141-0.140625,0.3496094,0.0693359,0.4501953l0.1494141,0.0595703
			C97.2304688,54.8300781,97.5996094,54.890625,97.8300781,54.8798828z"/>
		<path fill="#FBBC16" d="M68.9101562,14.4306641l0.640625,0.1796875c0.21875,0.0595703,0.4394531,0.2900391,0.46875,0.5097656
			c0.0410156,0.2197266,0.2207031,0.5097656,0.4003906,0.6601562s0.5195312,0.2705078,0.7597656,0.2705078h0.3398438
			c0.2304688,0,0.5800781-0.1201172,0.7607422-0.2607422L72.6699219,15.5
			c0.1796875-0.1396484,0.5195312-0.3095703,0.7304688-0.3798828c0.2197266-0.0800781,0.5800781-0.2099609,0.7890625-0.2998047
			L74.3398438,14.75c0.2109375-0.0898438,0.4609375-0.3398438,0.5507812-0.5595703l0.2089844-0.5400391
			c0.0898438-0.2099609,0.2597656-0.5498047,0.3808594-0.75l0.359375-0.5996094
			c0.1201172-0.2001953,0.0302734-0.4101562-0.1894531-0.4707031l-0.2402344-0.0595703
			C75.1796875,11.7207031,74.8203125,11.75,74.609375,11.8505859l-0.6894531,0.3095703
			C73.7099609,12.25,73.3496094,12.390625,73.1298828,12.4599609l-0.9091797,0.2802734
			c-0.2304688,0.0703125-0.5,0.2900391-0.6210938,0.4902344l-0.109375,0.1894531
			c-0.1103516,0.2099609-0.4003906,0.3701172-0.6308594,0.3701172h-0.0791016c-0.2402344,0-0.6005859-0.0800781-0.8095703-0.1894531
			l-0.03125-0.0205078c-0.2089844-0.0996094-0.5693359-0.1298828-0.7890625-0.0693359l-0.1103516,0.0292969
			c-0.2294922,0.0703125-0.4404297,0.2705078-0.4794922,0.4501953
			C68.5302734,14.1699219,68.6796875,14.3701172,68.9101562,14.4306641z"/>
		<path fill="#FBBC16" d="M42.3198242,16.4199219c0.1704102,0.1601562,0.4902344,0.2099609,0.7001953,0.1103516l2.9399414-1.3701172
			c0.2099609-0.0996094,0.5800781-0.2001953,0.8100586-0.2402344l0.7602539-0.1191406L48,14.4199219L48.8100586,14
			l2.2402344-0.6894531l0.8198242-0.2402344l1.0400391-0.2900391l0.8701172-0.1699219l0.7700195-0.0800781
			c-0.1000977-0.1298828-0.2104492-0.25-0.3100586-0.3300781C54.0600586,12.0507812,53.7202148,11.890625,53.5,11.8300781
			l-1.8300781-0.4599609c-0.2299805-0.0498047-0.5898438-0.1601562-0.8100586-0.2402344l-0.6699219-0.2392578
			c-0.2099609-0.0800781-0.5698242-0.0800781-0.7900391,0L48.4702148,11.25
			c-0.2202148,0.0898438-0.590332,0.1806641-0.8203125,0.2099609l-0.0898438,0.0205078
			c-0.2299805,0.0302734-0.5898438,0.1298828-0.8100586,0.2197266l-1.7397461,0.7304688
			c-0.2099609,0.0898438-0.5302734,0.2900391-0.7099609,0.4394531l-0.1503906,0.1201172
			c-0.1796875,0.1503906-0.4799805,0.3701172-0.6796875,0.5l-2.2001953,1.4003906
			c-0.2001953,0.1201172-0.2197266,0.359375-0.0498047,0.5097656L42.3198242,16.4199219z"/>
		<path fill="#FBBC16" d="M54.8100586,12.9306641l-0.9902344,0.0996094l-0.7895508,0.1503906l-1.0400391,0.2998047
			l-0.8100586,0.2402344l-2.2402344,0.6796875L48.2700195,14.75L48,14.9707031v0.0195312
			c-0.0297852,0.1396484,0.0302734,0.3203125,0.1401367,0.3896484c0.1098633,0.0800781,0.3901367,0.1308594,0.6201172,0.1308594
			h0.2099609c0.2397461,0,0.5498047,0.0595703,0.6899414,0.1396484c0.1499023,0.0703125,0.1201172,0.2197266-0.0600586,0.3300781
			c-0.1899414,0.109375-0.5302734,0.2001953-0.7602539,0.2001953h-0.6098633c-0.2299805,0-0.5400391,0.1201172-0.6899414,0.2597656
			c-0.1499023,0.1494141-0.1098633,0.3300781,0.0698242,0.3994141c0.1801758,0.0703125,0.5200195,0.1308594,0.75,0.1308594
			h2.7299805c0.2402344,0,0.5200195,0.1191406,0.6303711,0.2695312c0.1098633,0.1503906,0.1098633,0.3496094,0,0.4599609
			c-0.1103516,0.1103516-0.3901367,0.2001953-0.6303711,0.2001953h-3.9199219c-0.2299805,0-0.5097656,0.0898438-0.6196289,0.2001953
			c-0.1103516,0.109375-0.0302734,0.2792969,0.1796875,0.3701172l3.0800781,1.3798828
			c0.2099609,0.0996094,0.5698242,0.1699219,0.8100586,0.1699219h0.3398438c0.2402344,0,0.6098633,0.0693359,0.8300781,0.1396484
			l0.3901367,0.1298828C52.3999023,20.3603516,52.7700195,20.4199219,53,20.4199219h0.8798828
			c0.2299805,0,0.6000977-0.0693359,0.8100586-0.1591797l2.0102539-0.8603516
			c0.2099609-0.0996094,0.5800781-0.1699219,0.8100586-0.1699219h0.2197266c0.2299805,0,0.6098633,0.0498047,0.8300781,0.109375
			l1.7001953,0.4404297c0.2299805,0.0595703,0.5996094,0.0800781,0.8295898,0.0400391l0.6201172-0.1201172
			c0.2299805-0.0400391,0.5800781-0.1796875,0.7700195-0.3095703l2.2202148-1.5107422
			C64.890625,17.75,64.9101562,17.5,64.75,17.3398438l-0.3300781-0.3291016C64.25,16.8398438,63.9501953,16.6103516,63.75,16.5
			l-0.1894531-0.109375c-0.2011719-0.1201172-0.2207031-0.3300781-0.0410156-0.4804688l0.140625-0.1201172
			c0.1796875-0.1494141,0.3701172-0.4599609,0.4199219-0.6894531l0.2099609-0.9003906
			c0.0498047-0.2197266-0.0205078-0.5595703-0.1699219-0.7402344c-0.1494141-0.1796875-0.4404297-0.2998047-0.6601562-0.2695312
			c-0.2197266,0.0400391-0.5400391,0.2099609-0.7001953,0.3701172l-1.1298828,1.1298828
			C61.4702148,14.8505859,61.1899414,14.9599609,61,14.9199219c-0.1801758-0.0400391-0.3901367-0.2197266-0.4599609-0.3994141
			c-0.0800781-0.1806641-0.25-0.4804688-0.3999023-0.6601562s-0.4501953-0.2802734-0.6699219-0.2197266l-0.1201172,0.0292969
			C59.1298828,13.7402344,58.7802734,13.890625,58.5800781,14l-0.1899414,0.1103516
			c-0.2001953,0.1201172-0.5400391,0.1201172-0.7402344,0L57.4599609,14
			c-0.199707-0.109375-0.5600586-0.2597656-0.7797852-0.3095703l-1.300293-0.3300781
			C55.1699219,13.3105469,54.9301758,13.1201172,54.8100586,12.9306641z"/>
		<path fill="#FBBC16" d="M67.4003906,20.390625c0.1601562,0.1601562,0.4697266,0.2099609,0.6796875,0.109375l0.0400391-0.0195312
			c0.2099609-0.1005859,0.5595703-0.25,0.7705078-0.3203125c0.21875-0.0800781,0.5800781-0.2099609,0.7890625-0.2998047
			l0.1503906-0.0703125c0.2207031-0.0898438,0.5703125-0.2197266,0.7998047-0.2792969l0.1103516-0.0302734
			c0.2304688-0.0703125,0.3203125-0.2705078,0.2099609-0.4501953s-0.3603516-0.4296875-0.5703125-0.5400391l-0.1904297-0.1103516
			c-0.1992188-0.1191406-0.5595703-0.2099609-0.7890625-0.2099609h-0.3496094c-0.2304688,0-0.5800781,0.1005859-0.78125,0.2207031
			l-1.3994141,0.8798828c-0.2001953,0.1201172-0.2294922,0.359375-0.0595703,0.5195312L67.4003906,20.390625z"/>
		<path fill="#FBBC16" d="M96.0195312,6.1005859C96.2001953,6.2402344,96.5,6.390625,96.6796875,6.4306641
			s0.3007812,0.1894531,0.2705078,0.3300781c-0.0400391,0.1494141-0.2607422,0.2998047-0.4902344,0.3496094l-0.4892578,0.0996094
			c-0.2304688,0.0507812-0.6113281,0.0800781-0.8408203,0.0800781h-1.6699219c-0.2392578,0-0.6005859-0.0800781-0.8095703-0.1894531
			l-0.3007812-0.1503906c-0.2089844-0.0996094-0.5-0.1601562-0.6396484-0.1201172
			c-0.1494141,0.0302734-0.3603516,0.1503906-0.4697266,0.2597656c-0.1103516,0.1103516-0.0400391,0.3105469,0.1503906,0.4501953
			l0.6289062,0.4404297c0.1904297,0.1298828,0.5205078,0.3300781,0.7207031,0.4501953l0.1894531,0.109375
			c0.2001953,0.1201172,0.5605469,0.1904297,0.7910156,0.1699219l0.4794922-0.0498047
			c0.2294922-0.0195312,0.6005859-0.109375,0.8193359-0.1894531l0.2705078-0.1005859
			c0.2197266-0.0800781,0.5898438-0.1494141,0.8193359-0.1494141h0.4804688c0.2304688,0,0.5898438,0.0898438,0.7900391,0.2099609
			l1.3896484,0.7792969c0.2011719,0.1103516,0.5107422,0.2001953,0.7011719,0.2001953
			c0.1796875,0,0.4589844-0.1298828,0.6289062-0.2998047l0.4609375-0.4599609
			c0.1601562-0.1601562,0.4794922-0.3603516,0.6992188-0.4296875l3.5703125-1.1904297
			c0.2207031-0.0800781,0.5703125-0.2294922,0.7792969-0.3398438l2.1708984-1.1796875
			c0.2001953-0.1201172,0.5595703-0.2607422,0.7802734-0.3203125l2.0996094-0.5703125
			c0.2304688-0.0595703,0.5996094-0.1396484,0.8300781-0.1796875l4.7304688-0.7900391
			c0.2294922-0.0400391,0.5996094-0.1503906,0.8095703-0.2402344l4.1298828-1.7900391l0.7695312-0.3398438l1.2207031-0.5703125
			c0.2089844-0.0996094,0.2998047-0.2998047,0.1894531-0.4492188C123.2304688,0.1201172,122.9501953,0,122.7207031,0h-1.140625
			c-0.2402344,0-0.6201172,0.0205078-0.8496094,0.0507812l-2.6103516,0.2998047
			c-0.2294922,0.0195312-0.5898438,0.1201172-0.8095703,0.2099609l-0.1503906,0.0693359
			c-0.2099609,0.0908203-0.5800781,0.1601562-0.8105469,0.1601562h-6.3095703c-0.2392578,0-0.6201172,0.0400391-0.8398438,0.0898438
			l-1.8300781,0.3603516c-0.2197266,0.0498047-0.6005859,0.0898438-0.8300781,0.0996094l-3,0.1005859
			C103.3007812,1.4501953,102.9296875,1.5,102.7001953,1.5605469l-0.2402344,0.0595703
			c-0.2197266,0.0605469-0.6005859,0.1201172-0.8300781,0.1503906l-1.4091797,0.1699219
			c-0.2304688,0.0195312-0.5107422,0.1396484-0.6210938,0.25c-0.109375,0.1103516-0.0097656,0.2001953,0.2207031,0.2099609
			L102.5605469,2.5c0.2294922,0.0107422,0.609375,0.0605469,0.8300781,0.1201172l0.2392578,0.0605469
			c0.2294922,0.0595703,0.6005859,0.0996094,0.8408203,0.0996094h1c0.2392578,0,0.609375-0.0400391,0.8398438-0.0898438
			l0.3691406-0.0800781c0.2304688-0.0498047,0.5302734,0.0302734,0.6796875,0.1699219
			c0.140625,0.1503906,0.1005859,0.3701172-0.0996094,0.4902344l-0.5996094,0.359375
			C106.4599609,3.75,106.109375,3.8398438,105.8701172,3.8300781l-4.1904297-0.109375
			c-0.2294922,0-0.5996094-0.0800781-0.8203125-0.1601562l-0.2695312-0.1005859
			c-0.2197266-0.0800781-0.5800781-0.1201172-0.8095703-0.0898438L99.6894531,3.390625
			c-0.2294922,0.0292969-0.5693359,0.1796875-0.75,0.3300781l-0.1386719,0.1191406
			c-0.1806641,0.1503906-0.2109375,0.4208984-0.0703125,0.6005859l0.4101562,0.5302734
			C99.2802734,5.1503906,99.3105469,5.390625,99.2001953,5.5c-0.1103516,0.1103516-0.3896484,0.2001953-0.6201172,0.2001953
			H98.359375c-0.2294922,0-0.5693359-0.0595703-0.75-0.1298828c-0.1796875-0.0800781-0.5195312-0.1298828-0.7597656-0.1298828
			h-0.3398438c-0.2402344,0-0.5195312,0.0800781-0.6191406,0.2001953
			C95.7802734,5.7402344,95.8300781,5.9501953,96.0195312,6.1005859z"/>
		<path fill="#FBBC16" d="M81.9902344,15.2402344l-0.1894531,0.4199219
			c-0.1005859,0.2099609-0.1210938,0.5703125-0.0605469,0.7900391l0.0292969,0.1201172
			c0.0703125,0.2197266,0.2910156,0.4902344,0.5,0.6103516l0.9707031,0.5195312
			c0.2099609,0.1103516,0.5605469,0.1699219,0.7998047,0.1298828l0.75-0.1201172
			c0.2294922-0.0400391,0.6103516-0.0800781,0.8398438-0.0996094l1.5400391-0.0800781
			C87.4101562,17.5205078,87.7802734,17.5605469,88,17.6201172l0.1201172,0.0302734l0.8095703,0.25l0.390625,0.1298828
			c0.2197266,0.0800781,0.5898438,0.1201172,0.8203125,0.0898438l0.3496094-0.0400391
			c0.2304688-0.0195312,0.5898438-0.1396484,0.7900391-0.25l0.4501953-0.25
			c0.2089844-0.109375,0.5195312-0.2695312,0.7089844-0.3398438c0.1806641-0.0703125,0.4902344-0.0400391,0.7011719,0.0703125
			l0.4492188,0.25c0.2001953,0.1201172,0.5400391,0.2998047,0.75,0.3994141l0.5703125,0.2802734
			c0.2099609,0.1103516,0.4599609,0.3603516,0.5703125,0.5703125l0.9394531,1.8994141
			c0.1103516,0.2001953,0.3105469,0.5302734,0.4501953,0.7207031l0.2900391,0.3798828
			c0.140625,0.1796875,0.4296875,0.3896484,0.6601562,0.4599609l0.5097656,0.1494141
			C98.5507812,22.4902344,98.859375,22.6298828,99,22.7402344c0.1503906,0.1103516,0.2402344,0.2900391,0.2001953,0.4003906
			c-0.0400391,0.109375-0.2607422,0.2197266-0.4902344,0.2392578l-0.4794922,0.0507812
			C98,23.4501953,97.6201172,23.5302734,97.4003906,23.5898438l-0.1103516,0.0302734
			c-0.2294922,0.0703125-0.5302734-0.0302734-0.6806641-0.2099609l-0.1191406-0.1396484
			c-0.1503906-0.1806641-0.4199219-0.3300781-0.5996094-0.3300781c-0.1904297,0-0.5,0.0996094-0.7109375,0.2099609
			l-0.1894531,0.1103516c-0.2001953,0.1191406-0.5507812,0.2597656-0.7802734,0.3193359l-0.2294922,0.0605469
			C93.75,23.6904297,93.4804688,23.8603516,93.3701172,24C93.2597656,24.1503906,93.0898438,24.4404297,93,24.6601562
			l-0.0703125,0.1503906c-0.0898438,0.2099609-0.3496094,0.3896484-0.5898438,0.3896484h-1.1396484
			c-0.2294922,0-0.6005859-0.0800781-0.8095703-0.1699219l-0.1503906-0.0595703
			c-0.2099609-0.1005859-0.5800781-0.1503906-0.8105469-0.1308594l-0.75,0.0605469
			c-0.2294922,0.0195312-0.5800781,0.1298828-0.7792969,0.2597656l-0.3398438,0.2099609
			c-0.2011719,0.1201172-0.4804688,0.3701172-0.6308594,0.5498047l-0.1191406,0.1503906
			C86.6601562,26.25,86.7001953,26.4902344,86.890625,26.6201172l0.3496094,0.2099609
			c0.1894531,0.1201172,0.5292969,0.1601562,0.75,0.0800781l0.2695312-0.0996094l0.8007812-0.2900391l0.7890625-0.2597656
			c0.2207031-0.0703125,0.5898438-0.1308594,0.8203125-0.1308594h1.0097656c0.2304688,0,0.5302734,0.1601562,0.6601562,0.3505859
			l0.8603516,1.2802734c0.1298828,0.1992188,0.3896484,0.4697266,0.5800781,0.5996094l0.6298828,0.4404297
			c0.1894531,0.1396484,0.4902344,0.3691406,0.6601562,0.5292969l0.5595703,0.4902344
			c0.1806641,0.1601562,0.5,0.3398438,0.7294922,0.4101562l0.5107422,0.1494141
			c0.2294922,0.0703125,0.6005859,0.140625,0.8300781,0.1601562l0.75,0.0605469
			c0.2294922,0.0195312,0.5693359-0.0898438,0.7392578-0.2402344l0.1503906-0.1201172
			c0.1796875-0.1503906,0.1904297-0.4003906,0.0302734-0.5703125l-0.3300781-0.3300781
			c-0.1699219-0.1591797-0.4794922-0.3691406-0.7001953-0.4492188l-0.5390625-0.2207031
			c-0.2109375-0.0898438-0.390625-0.2792969-0.390625-0.4199219c0-0.1494141,0.1894531-0.2900391,0.4199219-0.3095703
			l0.4804688-0.0498047c0.2402344-0.0205078,0.5898438,0.0595703,0.7988281,0.1699219l1.1210938,0.6396484
			c0.1992188,0.1201172,0.5195312,0.1103516,0.7197266-0.0195312l0.0898438-0.0605469
			c0.1904297-0.1298828,0.4306641-0.4101562,0.5205078-0.6298828L101.75,27.5703125
			c0.0898438-0.2099609,0.109375-0.5595703,0.0400391-0.7900391l-0.1298828-0.3798828
			c-0.0800781-0.2197266-0.2402344-0.5703125-0.359375-0.7705078l-0.3613281-0.5996094
			c-0.1191406-0.2001953-0.0488281-0.4599609,0.1601562-0.5703125l0.4511719-0.25
			c0.1992188-0.109375,0.5488281-0.1396484,0.7695312-0.0595703l1.9902344,0.7597656
			c0.2197266,0.0898438,0.5800781,0.1796875,0.8193359,0.2099609l0.2197266,0.0302734
			c0.2304688,0.0195312,0.5703125-0.0605469,0.7597656-0.2001953l0.2402344-0.1699219
			c0.1904297-0.1298828,0.4804688-0.3798828,0.640625-0.5498047l0.0703125-0.0605469
			c0.1601562-0.1591797,0.3193359-0.4892578,0.3398438-0.7197266l0.0498047-0.4794922
			c0.0205078-0.2402344-0.1201172-0.5302734-0.3203125-0.6503906l-0.7392578-0.4804688l-0.7109375-0.4599609l-0.4902344-0.3193359
			c-0.1894531-0.1298828-0.4589844-0.4003906-0.5898438-0.5898438l-0.3193359-0.4902344
			c-0.1298828-0.1904297-0.1904297-0.5400391-0.1396484-0.7705078l0.0595703-0.2294922
			c0.0595703-0.2304688,0-0.5703125-0.1298828-0.7705078L103.75,17.7304688
			c-0.1298828-0.2001953-0.4199219-0.4101562-0.6503906-0.4804688l-1.4394531-0.4199219
			c-0.2207031-0.0693359-0.5898438-0.1494141-0.8203125-0.1796875L100.75,16.640625
			c-0.2304688-0.0400391-0.5498047-0.2099609-0.6992188-0.390625l-0.2402344-0.2792969
			c-0.1503906-0.1806641-0.3505859-0.5-0.4306641-0.7207031l-0.0996094-0.2695312
			C99.2001953,14.7705078,98.9902344,14.5,98.8007812,14.390625c-0.1806641-0.1103516-0.5-0.1103516-0.7011719,0
			l-0.7197266,0.3896484c-0.2001953,0.1103516-0.5595703,0.1796875-0.7900391,0.1503906L96.5,14.9101562
			c-0.2304688-0.0302734-0.5898438-0.1494141-0.7900391-0.2597656L95,14.2607422
			c-0.2099609-0.1103516-0.5195312-0.3300781-0.6894531-0.4902344l-0.7011719-0.6201172
			c-0.1699219-0.1601562-0.5-0.3203125-0.7294922-0.3603516l-0.7597656-0.1201172
			c-0.2197266-0.0400391-0.6005859-0.0292969-0.8193359,0.0302734L90,13.0302734
			c-0.2304688,0.0498047-0.5498047,0.2304688-0.7197266,0.4003906l-1.6503906,1.6494141
			C87.4707031,15.25,87.1796875,15.2900391,87,15.1806641c-0.1796875-0.1103516-0.2792969-0.3798828-0.2197266-0.6005859
			l0.0400391-0.1201172c0.0595703-0.2197266,0.2695312-0.5195312,0.4492188-0.6591797l0.9101562-0.6806641
			c0.1904297-0.1396484,0.2207031-0.3496094,0.0800781-0.4599609c-0.1503906-0.109375-0.4589844-0.1894531-0.6894531-0.1894531
			h-1.0097656c-0.2304688,0-0.5898438,0.0898438-0.7910156,0.1992188l-1.6494141,0.9101562
			c-0.2001953,0.1201172-0.4902344,0.3603516-0.6396484,0.5400391c-0.140625,0.1904297-0.4404297,0.4003906-0.6601562,0.4804688
			l-0.2597656,0.0996094C82.3398438,14.7900391,82.0800781,15.0302734,81.9902344,15.2402344z"/>
		<path fill="#FBBC16" d="M89.2597656,4.7705078c0.1796875,0.1494141,0.5205078,0.2695312,0.75,0.2695312h0.2109375
			c0.2392578,0,0.5898438,0.1005859,0.7890625,0.2207031l0.3398438,0.2197266
			c0.1904297,0.1201172,0.5507812,0.2197266,0.7802734,0.2197266h0.2099609c0.2402344,0,0.5703125-0.1298828,0.75-0.2802734
			l0.5507812-0.5c0.1796875-0.1494141,0.5-0.3496094,0.71875-0.4296875l0.2705078-0.0996094
			c0.2099609-0.0800781,0.4697266-0.3203125,0.5595703-0.5400391L95.25,3.7001953
			c0.0996094-0.2099609,0.0195312-0.5-0.1699219-0.6494141l-0.5195312-0.4003906
			c-0.1806641-0.1503906-0.5205078-0.2900391-0.75-0.3203125l-0.2207031-0.0292969
			C93.359375,2.2802734,93,2.3398438,92.7900391,2.4404297l-0.3095703,0.1494141
			c-0.2109375,0.1103516-0.5605469,0.2402344-0.7910156,0.3007812L90.390625,3.2099609
			c-0.2207031,0.0605469-0.5507812,0.2304688-0.7207031,0.390625l-0.5703125,0.4892578
			C88.9296875,4.25,88.9394531,4.5,89.1201172,4.6503906L89.2597656,4.7705078z"/>
		<path fill="#FBBC16" d="M84.9707031,10.890625l2.859375,0.0996094c0.2402344,0.0097656,0.5800781,0.1396484,0.75,0.2900391
			l0.1503906,0.1201172c0.1796875,0.1503906,0.5097656,0.2597656,0.75,0.2402344l3-0.2099609
			c0.2294922-0.0107422,0.5996094,0.0292969,0.8203125,0.109375l0.3886719,0.1298828
			c0.2207031,0.0703125,0.6005859,0.1308594,0.8300781,0.1308594h0.3398438c0.2402344,0,0.6005859-0.0800781,0.8105469-0.1904297
			L96.5,11.2001953l0.7597656-0.3798828l0.3007812-0.1503906c0.2089844-0.109375,0.2597656-0.3398438,0.109375-0.5292969
			c-0.1396484-0.1806641-0.4101562-0.4199219-0.5898438-0.5302734s-0.5195312-0.1796875-0.7597656-0.1601562L91.859375,9.7802734
			C91.6298828,9.8007812,91.25,9.7900391,91.0195312,9.7705078l-0.4794922-0.0498047
			c-0.2392578-0.0205078-0.5898438-0.1308594-0.7998047-0.2402344l-1.7695312-0.9296875
			c-0.2011719-0.1103516-0.5507812-0.2304688-0.7705078-0.2607422C86.9804688,8.25,86.6298828,8.3105469,86.4296875,8.4306641
			l-1.1191406,0.6396484c-0.2011719,0.1201172-0.4804688,0.3701172-0.6103516,0.5595703l-0.1699219,0.2304688
			c-0.1396484,0.2001953-0.1904297,0.5-0.1201172,0.6796875C84.4804688,10.7207031,84.7402344,10.8798828,84.9707031,10.890625z"/>
	</g>
</g>
<g>
</g>
<g>
</g>
<g>
</g>
<g>
</g>
<g>
</g>
<g>
</g>
</svg>
