<?xml version="1.0" encoding="utf-8"?>
<!-- Generator: Adobe Illustrator 16.2.0, SVG Export Plug-In . SVG Version: 6.00 Build 0)  -->
<!DOCTYPE svg PUBLIC "-//W3C//DTD SVG 1.1//EN" "http://www.w3.org/Graphics/SVG/1.1/DTD/svg11.dtd">
<svg version="1.1" id="Layer_1" xmlns="http://www.w3.org/2000/svg" xmlns:xlink="http://www.w3.org/1999/xlink" x="0px" y="0px"
	 width="1200px" height="206px" viewBox="0 0 1200 206" enable-background="new 0 0 1200 206" xml:space="preserve">
<polyline fill-rule="evenodd" clip-rule="evenodd" fill="none" stroke="#46BCD3" stroke-width="3" stroke-linecap="round" stroke-linejoin="round" stroke-miterlimit="10" points="
	-11.5,189.3330078 430.5,170.5 486.5,144.5 501.5,140.5 520.5,136.5 537.5,132.5 556.5,120.5 573.5,98.5 593.5,91.5 608.5,88.5 
	627.5,106.5 664.5,97.5 682.5,111.5 699.5,109.5 719.5,124.5 753.5,140.5 772.5,141.5 806.9296875,161.1738281 1235,208.5 "/>
<path fill-rule="evenodd" clip-rule="evenodd" fill="none" stroke="#FFFFFF" stroke-width="3" stroke-linecap="round" stroke-linejoin="round" stroke-miterlimit="10" d="
	M-63.5004883,204.5H519.5l19-64l16-75l19-39c0,0,16.3300781-25,17-25h18l19,14l17-13l20,13l17,1l35,141l20,16l17,22l19,9
	h434.6660156"/>
<g>
</g>
<g>
</g>
<g>
</g>
<g>
</g>
<g>
</g>
<g>
</g>
</svg>
