<?xml version="1.0" encoding="utf-8"?>
<!-- Generator: Adobe Illustrator 16.2.0, SVG Export Plug-In . SVG Version: 6.00 Build 0)  -->
<!DOCTYPE svg PUBLIC "-//W3C//DTD SVG 1.1//EN" "http://www.w3.org/Graphics/SVG/1.1/DTD/svg11.dtd">
<svg version="1.1" id="Layer_1" xmlns="http://www.w3.org/2000/svg" xmlns:xlink="http://www.w3.org/1999/xlink" x="0px" y="0px"
	 width="322.8613281px" height="214.8520508px" viewBox="0 0 322.8613281 214.8520508"
	 enable-background="new 0 0 322.8613281 214.8520508" xml:space="preserve">
<path fill="none" stroke="#FEDD84" stroke-width="2" stroke-linecap="round" stroke-linejoin="round" stroke-miterlimit="10" d="
	M160.1708984,87.7998047c13.8398438,31.3100586,0,67.3510742-30.9501953,80.4702148
	c-30.9799805,13.140625-67.3198242-1.6796875-81.1298828-33.0703125
	c-13.7900391-31.3598633,0.1401367-67.3496094,31.0898438-80.3999023
	C110.1010742,41.75,146.3408203,56.5200195,160.1708984,87.7998047z"/>
<path fill="none" stroke="#FEDD84" stroke-width="2" stroke-linecap="round" stroke-linejoin="round" stroke-miterlimit="10" d="
	M149.190918,92.4501953c11.1201172,25.1694336-0.0102539,54.1303711-24.8901367,64.6694336
	c-24.8901367,10.5507812-54.1000977-1.359375-65.199707-26.5800781
	c-11.0800781-25.199707,0.1098633-54.1293945,24.9799805-64.6293945
	C108.940918,55.4199219,138.0708008,67.2998047,149.190918,92.4501953z"/>
<line fill="none" stroke="#FEDD84" stroke-width="2" stroke-linecap="round" stroke-linejoin="round" stroke-miterlimit="10" x1="92.8408203" y1="146.4711914" x2="75.3706055" y2="200.4008789"/>
<line fill="none" stroke="#FEDD84" stroke-width="2" stroke-linecap="round" stroke-linejoin="round" stroke-miterlimit="10" x1="132.8706055" y1="22.9101562" x2="115.5009766" y2="76.5498047"/>
<line fill="none" stroke="#FEDD84" stroke-width="2" stroke-linecap="round" stroke-linejoin="round" stroke-miterlimit="10" x1="69.0009766" y1="99.2797852" x2="14.8808594" y2="80.5097656"/>
<line fill="none" stroke="#FEDD84" stroke-width="2" stroke-linecap="round" stroke-linejoin="round" stroke-miterlimit="10" x1="193.4697266" y1="142.449707" x2="139.3608398" y2="123.6801758"/>
<line fill="none" stroke="#FEDD84" stroke-width="2" stroke-linecap="round" stroke-linejoin="round" stroke-miterlimit="10" x1="255.1904297" y1="37.3300781" x2="137.0507812" y2="95.3901367"/>
<line fill="none" stroke="#FEDD84" stroke-width="2" stroke-linecap="round" stroke-linejoin="round" stroke-miterlimit="10" x1="71.2709961" y1="127.590332" x2="20.5908203" y2="152.3911133"/>
<line fill="none" stroke="#FEDD84" stroke-width="2" stroke-linecap="round" stroke-linejoin="round" stroke-miterlimit="10" x1="147.0507812" y1="196.2504883" x2="121.0610352" y2="144.8500977"/>
<line fill="none" stroke="#FEDD84" stroke-width="2" stroke-linecap="round" stroke-linejoin="round" stroke-miterlimit="10" x1="87.3208008" y1="78.1499023" x2="61.4208984" y2="26.9501953"/>
<path fill="none" stroke="#FEDD84" stroke-width="2" stroke-linecap="round" stroke-linejoin="round" stroke-miterlimit="10" d="
	M137.9106445,97.2099609c8.3300781,18.8706055-0.0097656,40.5698242-18.6499023,48.4604492
	c-18.659668,7.9003906-40.5297852-1.0097656-48.8500977-19.9101562
	c-8.3095703-18.8803711,0.0703125-40.5600586,18.7099609-48.4301758
	C107.7509766,69.4599609,129.5810547,78.3598633,137.9106445,97.2099609z"/>
<path fill="none" stroke="#FEDD84" stroke-width="2" stroke-linecap="round" stroke-linejoin="round" stroke-miterlimit="10" d="
	M141.5307617,14.1899414c1.6201172,3.6601562,0,7.8598633-3.6201172,9.3798828
	c-3.6098633,1.5200195-7.8496094-0.199707-9.4697266-3.8598633c-1.6098633-3.6499023,0.0097656-7.8500977,3.6201172-9.3701172
	C135.6708984,8.8100586,139.9106445,10.5400391,141.5307617,14.1899414z"/>
<path fill="none" stroke="#FEDD84" stroke-width="2" stroke-linecap="round" stroke-linejoin="round" stroke-miterlimit="10" d="
	M318.9609375,21.2900391c7.4609375,16.8100586,0.0292969,36.1298828-16.5908203,43.1499023
	c-16.6289062,7.0302734-36.1503906-0.9199219-43.609375-17.7397461
	c-7.4609375-16.8100586-0.0292969-36.1303711,16.5996094-43.1503906
	C291.9814453-3.4599609,311.5019531,4.4799805,318.9609375,21.2900391z"/>
<path fill="none" stroke="#FEDD84" stroke-width="2" stroke-linecap="round" stroke-linejoin="round" stroke-miterlimit="10" d="
	M205.9501953,141.730957c1.6308594,3.6699219,0.0097656,7.8886719-3.5996094,9.4199219
	c-3.6191406,1.5390625-7.8691406-0.2011719-9.5-3.8710938c-1.6191406-3.6699219,0-7.8789062,3.6191406-9.4199219
	C200.0810547,136.3305664,204.3310547,138.0610352,205.9501953,141.730957z"/>
<path fill="none" stroke="#FEDD84" stroke-width="2" stroke-linecap="round" stroke-linejoin="round" stroke-miterlimit="10" d="
	M156.3408203,199.0493164c1.6201172,3.6816406-0.0097656,7.9101562-3.6298828,9.4511719
	c-3.6298828,1.5390625-7.8798828-0.1894531-9.5-3.8710938c-1.6298828-3.6796875,0-7.9082031,3.6201172-9.4492188
	C150.4609375,193.6411133,154.7109375,195.3793945,156.3408203,199.0493164z"/>
<path fill="none" stroke="#FEDD84" stroke-width="2" stroke-linecap="round" stroke-linejoin="round" stroke-miterlimit="10" d="
	M79.9208984,203.840332c1.6201172,3.6796875-0.0102539,7.9101562-3.6401367,9.4492188
	c-3.6298828,1.5410156-7.8901367-0.1894531-9.5097656-3.8691406c-1.6201172-3.6796875,0.0097656-7.9199219,3.6499023-9.4609375
	C74.0507812,198.4204102,78.3007812,200.1606445,79.9208984,203.840332z"/>
<path fill="none" stroke="#FEDD84" stroke-width="2" stroke-linecap="round" stroke-linejoin="round" stroke-miterlimit="10" d="
	M20.6010742,152.0200195c1.6098633,3.6796875-0.0200195,7.9003906-3.6503906,9.4394531
	c-3.6396484,1.5410156-7.8896484-0.1992188-9.5097656-3.8691406c-1.6098633-3.6796875,0.0297852-7.9101562,3.6601562-9.4394531
	C14.730957,146.6098633,18.9907227,148.3500977,20.6010742,152.0200195z"/>
<path fill="none" stroke="#FEDD84" stroke-width="2" stroke-linecap="round" stroke-linejoin="round" stroke-miterlimit="10" d="
	M14.7607422,74.9101562c1.6098633,3.6699219-0.0297852,7.8798828-3.6499023,9.409668
	c-3.6298828,1.5302734-7.8798828-0.199707-9.4902344-3.8696289c-1.6098633-3.6601562,0.0200195-7.8803711,3.6503906-9.4101562
	C8.9008789,69.5097656,13.1508789,71.25,14.7607422,74.9101562z"/>
<path fill="none" stroke="#FEDD84" stroke-width="2" stroke-linecap="round" stroke-linejoin="round" stroke-miterlimit="10" d="
	M64.6708984,18.4199219c1.6098633,3.6499023-0.0102539,7.8500977-3.6298828,9.3798828
	c-3.6201172,1.5200195-7.8603516-0.2099609-9.4799805-3.8598633c-1.6103516-3.6601562,0.0200195-7.8598633,3.6396484-9.3798828
	C58.8208008,13.0297852,63.0610352,14.7597656,64.6708984,18.4199219z"/>
</svg>
