<?xml version="1.0" encoding="utf-8"?>
<!-- Generator: Adobe Illustrator 16.2.0, SVG Export Plug-In . SVG Version: 6.00 Build 0)  -->
<!DOCTYPE svg PUBLIC "-//W3C//DTD SVG 1.1//EN" "http://www.w3.org/Graphics/SVG/1.1/DTD/svg11.dtd">
<svg version="1.1" id="Layer_1" xmlns="http://www.w3.org/2000/svg" xmlns:xlink="http://www.w3.org/1999/xlink" x="0px" y="0px"
	 width="17.3120117px" height="15.3398438px" viewBox="0 0 17.3120117 15.3398438"
	 enable-background="new 0 0 17.3120117 15.3398438" xml:space="preserve">
<path fill="#F9BB18" d="M8.4345703,1.3095703L7.9047852,1.9697266C7.7548828,2.1494141,7.4648438,2.3896484,7.2548828,2.4892578
	L6.1547852,3.0400391c-0.2099609,0.109375-0.5600586,0.1494141-0.7900391,0.0996094L5.0048828,3.0595703
	C4.7744141,3.0097656,4.4047852,3.0292969,4.1845703,3.0996094L3.7944336,3.2294922
	C3.574707,3.2998047,3.2148438,3.3300781,2.9946289,3.2998047C2.7744141,3.2597656,2.4746094,3.3798828,2.3344727,3.5595703
	C2.1845703,3.75,1.8745117,3.9394531,1.6547852,3.9892578L1.284668,4.0693359
	C1.0546875,4.1201172,0.7045898,4.25,0.4946289,4.3496094L0.4545898,4.3701172
	c-0.2099609,0.0996094-0.4101562,0.3095703-0.449707,0.4492188C-0.0253906,4.9697266,0.0947266,5.1992188,0.284668,5.3398438
	l0.2397461,0.1699219C0.7148438,5.6396484,1.0546875,5.7998047,1.284668,5.8701172l0.1098633,0.0292969
	C1.6147461,5.9599609,1.9648438,6.109375,2.1645508,6.2294922l0.8598633,0.5c0.2001953,0.1201172,0.4301758,0.4003906,0.5,0.6201172
	L3.784668,8.1298828l0.2700195,0.8095703l0.1298828,0.390625c0.0703125,0.2197266,0.050293,0.5693359-0.0498047,0.7792969
	l-0.1601562,0.3007812c-0.1000977,0.2099609-0.2001953,0.5693359-0.2197266,0.7998047l-0.0600586,0.75
	c-0.0200195,0.1699219-0.1000977,0.4101562-0.2001953,0.5898438l0.4599609,0.6894531
	c0.1000977,0.1503906,0.3500977,0.3300781,0.5200195,0.3808594l1.3100586,0.3896484l0.7998047,0.1601562l0.5703125,0.0693359
	c0.2797852,0.0400391,0.6499023,0.2304688,0.8300781,0.4404297l0.1499023,0.1601562
	c0.1098633,0.1201172,0.3500977,0.2099609,0.5097656,0.1894531l0.3999023-0.0498047l0.6699219-0.1796875
	C9.9545898,14.6894531,10.324707,14.75,10.5844727,14.9394531l0.5595703,0.4003906
	c-0.0195312-0.1699219-0.0595703-0.3798828-0.1591797-0.5205078l-0.0595703-0.0898438
	c-0.1308594-0.2001953-0.0703125-0.4394531,0.1386719-0.5498047l1.1005859-0.5498047
	c0.2099609-0.1005859,0.5703125-0.1601562,0.7998047-0.140625l1.4101562,0.1708984
	c0.2304688,0.0292969,0.6103516,0.0292969,0.8496094,0.0097656l0.7402344-0.0605469
	c0.1699219-0.0097656,0.4101562-0.0800781,0.5996094-0.1699219l-0.0693359-0.609375l-0.0498047-0.9101562l-0.140625-0.7402344
	l-0.0390625-0.0898438c-0.1103516-0.2705078-0.1005859-0.6904297,0.0195312-0.9697266
	c0.0703125-0.1503906,0.0605469-0.4306641-0.0195312-0.5703125l-0.2109375-0.4101562
	c-0.0996094-0.1699219-0.2988281-0.3798828-0.4296875-0.4599609l-0.5292969-0.3896484
	c-0.1904297-0.1904297-0.140625-0.5205078,0.1191406-0.7802734l0.9902344-0.9902344l0.4394531-0.6201172l0.2607422-0.5595703
	l0.2998047-0.7705078l0.0898438-0.25c0.0507812-0.1494141-0.0097656-0.3798828-0.1396484-0.5097656
	s-0.4199219-0.2998047-0.6103516-0.3603516l-0.4199219-0.1191406c-0.1992188-0.0507812-0.5400391-0.0703125-0.7304688-0.0400391
	l-0.1386719,0.0292969c-0.2705078,0.0507812-0.6806641-0.0097656-0.9306641-0.1298828l-0.4794922-0.2402344l-0.7607422-0.3896484
	l-1.0996094-0.5800781c-0.25-0.1298828-0.5302734-0.4296875-0.6503906-0.6796875l-0.3496094-0.7304688
	c-0.0703125-0.1591797-0.2900391-0.3496094-0.4599609-0.3994141L9.9643555,0
	C9.8647461,0.0595703,9.7651367,0.1201172,9.6948242,0.1796875L9.0244141,0.7099609
	C8.8447266,0.859375,8.574707,1.1298828,8.4345703,1.3095703z"/>
<g>
</g>
<g>
</g>
<g>
</g>
<g>
</g>
<g>
</g>
<g>
</g>
</svg>
