<?xml version="1.0" encoding="utf-8"?>
<!-- Generator: Adobe Illustrator 16.2.0, SVG Export Plug-In . SVG Version: 6.00 Build 0)  -->
<!DOCTYPE svg PUBLIC "-//W3C//DTD SVG 1.1//EN" "http://www.w3.org/Graphics/SVG/1.1/DTD/svg11.dtd">
<svg version="1.1" id="Layer_1" xmlns="http://www.w3.org/2000/svg" xmlns:xlink="http://www.w3.org/1999/xlink" x="0px" y="0px"
	 width="85.0717773px" height="107.0908203px" viewBox="0 0 85.0717773 107.0908203"
	 enable-background="new 0 0 85.0717773 107.0908203" xml:space="preserve">
<g>
	
		<polygon fill="none" stroke="#FEE7AB" stroke-width="2" stroke-linecap="round" stroke-linejoin="round" stroke-miterlimit="10" points="
		75.293457,20.9501953 61.7836914,40.6201172 42.5532227,27.2001953 56.0229492,7.4301758 	"/>
	<g>
		<path fill="none" stroke="#FEE7AB" stroke-width="2" stroke-linecap="round" stroke-linejoin="round" stroke-miterlimit="10" d="
			M55.1137695,35.9697266c-21.440918,31.3203125-24.690918,40.7109375-41.2905273,64.9101562
			c-2.8603516,4.1699219-6.0703125,6.8798828-10.2099609,4.0400391"/>
		<path fill="none" stroke="#FEE7AB" stroke-width="2" stroke-linecap="round" stroke-linejoin="round" stroke-miterlimit="10" d="
			M49.2329102,31.8598633C27.8129883,63.2294922,20.2431641,69.6396484,3.6831055,93.9101562
			c-2.8500977,4.1796875-4.2099609,8.1591797-0.0698242,11.0097656"/>
	</g>
	
		<polygon fill="none" stroke="#FEE7AB" stroke-width="2" stroke-linecap="round" stroke-linejoin="round" stroke-miterlimit="10" points="
		53.8227539,1 35.8833008,27.3798828 40.3232422,30.4697266 58.2729492,4.1201172 	"/>
	<path fill="none" stroke="#FEE7AB" stroke-width="2" stroke-linecap="round" stroke-linejoin="round" stroke-miterlimit="10" d="
		M51.5532227,4.3300781l-4.1308594-2.8901367C38.3632812,3.1801758,32.3432617,12.0698242,33.9829102,21.25l4.1201172,2.8798828"/>
	
		<polygon fill="none" stroke="#FEE7AB" stroke-width="2" stroke-linecap="round" stroke-linejoin="round" stroke-miterlimit="10" points="
		63.9536133,46.9599609 81.9731445,20.7700195 77.5532227,17.6601562 59.543457,43.8798828 	"/>
	<path fill="none" stroke="#FEE7AB" stroke-width="2" stroke-linecap="round" stroke-linejoin="round" stroke-miterlimit="10" d="
		M66.2133789,43.6801758l4.0800781,2.8496094c9.0195312-1.7099609,15.0800781-10.4897461,13.5390625-19.6298828
		l-4.0996094-2.8701172"/>
</g>
<g>
</g>
<g>
</g>
<g>
</g>
<g>
</g>
<g>
</g>
<g>
</g>
</svg>
