<?xml version="1.0" encoding="utf-8"?>
<!-- Generator: Adobe Illustrator 16.2.0, SVG Export Plug-In . SVG Version: 6.00 Build 0)  -->
<!DOCTYPE svg PUBLIC "-//W3C//DTD SVG 1.1//EN" "http://www.w3.org/Graphics/SVG/1.1/DTD/svg11.dtd">
<svg version="1.1" id="Layer_1" xmlns="http://www.w3.org/2000/svg" xmlns:xlink="http://www.w3.org/1999/xlink" x="0px" y="0px"
	 width="100px" height="124.0361328px" viewBox="0 0 100 124.0361328" enable-background="new 0 0 100 124.0361328"
	 xml:space="preserve">
<path fill="none" stroke="#FEE7AB" stroke-width="2" stroke-linecap="round" stroke-linejoin="round" stroke-miterlimit="10" d="
	M84.6601562,119.0166016c0,2.2197266-1.8007812,4.0195312-4.0097656,4.0195312c-2.2109375,0-4-1.7998047-4-4.0195312
	c0-2.2109375,1.7890625-4.0097656,4-4.0097656C82.859375,115.0068359,84.6601562,116.8056641,84.6601562,119.0166016z"/>
<path fill="none" stroke="#FEE7AB" stroke-width="2" stroke-linecap="round" stroke-linejoin="round" stroke-miterlimit="10" d="
	M24.0698242,119.0166016c0,2.2197266-1.7900391,4.0195312-4,4.0195312s-4-1.7998047-4-4.0195312
	c0-2.2109375,1.7900391-4.0097656,4-4.0097656S24.0698242,116.8056641,24.0698242,119.0166016z"/>
<path fill-rule="evenodd" clip-rule="evenodd" fill="none" stroke="#FEE7AB" stroke-width="2" stroke-linecap="round" stroke-linejoin="round" stroke-miterlimit="10" d="
	M90,21.0361328c0-2.2099609-1.7900391-4-4-4c-0.640625,0-1.25,0.1499023-1.7900391,0.4199219
	c1.3193359,2.1298828,2.4599609,4.5400391,3.3300781,7.2802734C88.9804688,24.1259766,90,22.6962891,90,21.0361328z"/>
<path fill="none" stroke="#FEE7AB" stroke-width="2" stroke-linecap="round" stroke-linejoin="round" stroke-miterlimit="10" d="
	M15.7597656,72.8662109c0,0-1.1796875,34.359375,1.550293,43"/>
<path fill="none" stroke="#FEE7AB" stroke-width="2" stroke-linecap="round" stroke-linejoin="round" stroke-miterlimit="10" d="
	M84.4394531,72.5654297c0,0,1.1699219,34.3613281-1.5595703,43"/>
<line fill="none" stroke="#FEE7AB" stroke-width="2" stroke-linecap="round" stroke-linejoin="round" stroke-miterlimit="10" x1="47.5698242" y1="37.2363281" x2="47.5698242" y2="40.4160156"/>
<line fill="none" stroke="#FEE7AB" stroke-width="2" stroke-linecap="round" stroke-linejoin="round" stroke-miterlimit="10" x1="46.7299805" y1="6.315918" x2="46.7299805" y2="11.6459961"/>
<line fill="none" stroke="#FEE7AB" stroke-width="2" stroke-linecap="round" stroke-linejoin="round" stroke-miterlimit="10" x1="49.8798828" y1="6.315918" x2="49.8798828" y2="11.6459961"/>
<line fill="none" stroke="#FEE7AB" stroke-width="2" stroke-linecap="round" stroke-linejoin="round" stroke-miterlimit="10" x1="53.0292969" y1="6.315918" x2="53.0292969" y2="11.6459961"/>
<line fill="none" stroke="#FEE7AB" stroke-width="2" stroke-linecap="round" stroke-linejoin="round" stroke-miterlimit="10" x1="52.1894531" y1="37.2363281" x2="52.1894531" y2="40.4160156"/>
<path fill="none" stroke="#FEE7AB" stroke-width="2" stroke-linecap="round" stroke-linejoin="round" stroke-miterlimit="10" d="
	M35.8500977,46.855957c0,0,1.7397461,8.2202148,13.9399414,8.2202148s14.3095703-8.2202148,14.3095703-8.2202148"/>
<path fill="none" stroke="#FEE7AB" stroke-width="2" stroke-linecap="round" stroke-linejoin="round" stroke-miterlimit="10" d="
	M73.0292969,26.4960938c0-11.8100586-12.5898438-20.3500977-22.7890625-20.6401367V5.8461914L49.9799805,5.855957
	l-0.2700195-0.0097656V5.855957C39.5,6.1459961,26.9199219,14.6860352,26.9199219,26.4960938
	c0,12.0200195,6.1201172,15.3901367,6.1201172,15.3901367s-3.0800781,2.949707-3.0800781,7.3798828
	c0,0,3.8701172,14.2094727,19.75,14.5297852v0.0097656l0.2602539-0.0097656l0.2700195,0.0097656v-0.0097656
	c15.8798828-0.3203125,19.75-14.5297852,19.75-14.5297852c0-4.4301758-3.0800781-7.3798828-3.0800781-7.3798828
	S73.0292969,38.5161133,73.0292969,26.4960938z"/>
<path fill-rule="evenodd" clip-rule="evenodd" fill="none" stroke="#FEE7AB" stroke-width="2" stroke-linecap="round" stroke-linejoin="round" stroke-miterlimit="10" d="
	M99,21.0361328c0-7.1801758-5.8203125-13-13-13c-2.890625,0-5.5498047,0.9399414-7.7099609,2.5297852
	c-4.9599609-4.25-8.1601562-5.6298828-13.9101562-7.7197266c-7.4697266-2.7099609-23.4199219-2.2001953-28.8100586,0
	c-3.2197266,1.3198242-8.9296875,3.4599609-13.8896484,7.699707C19.5297852,8.9663086,16.8701172,8.0361328,14,8.0361328
	c-7.1801758,0-13,5.8198242-13,13c0,6.0200195,4.1000977,11.0898438,9.6601562,12.5698242
	c-0.050293,0.5-0.090332,1.0200195-0.1201172,1.5400391c0,0-1.9702148,30.6206055,5.1098633,37.7202148l8.9101562-10.9501953
	c0,0,16.3798828,3.7900391,25.4101562,3.7900391c9.0395508,0,25.4204102-3.7900391,25.4204102-3.7900391l8.9091797,10.9501953
	c7.0800781-7.0996094,5.1103516-37.7202148,5.1103516-37.7202148c-0.0400391-0.5200195-0.0703125-1.0297852-0.1201172-1.5297852
	C94.8798828,32.15625,99,27.0761719,99,21.0361328z"/>
<path fill-rule="evenodd" clip-rule="evenodd" fill="none" stroke="#FEE7AB" stroke-width="2" stroke-linecap="round" stroke-linejoin="round" stroke-miterlimit="10" d="
	M15.75,17.4360352c-0.5297852-0.2597656-1.1201172-0.3999023-1.75-0.3999023c-2.2099609,0-4,1.7900391-4,4
	c0,1.6499023,0.9902344,3.0600586,2.4101562,3.6699219C13.2900391,21.9760742,14.4199219,19.565918,15.75,17.4360352z"/>
<path fill-rule="evenodd" clip-rule="evenodd" fill="none" stroke="#FEE7AB" stroke-width="2" stroke-linecap="round" stroke-linejoin="round" stroke-miterlimit="10" d="
	M55,28.0361328c0-8,11-7.6699219,11,0"/>
<path fill-rule="evenodd" clip-rule="evenodd" fill="none" stroke="#FEE7AB" stroke-width="2" stroke-linecap="round" stroke-linejoin="round" stroke-miterlimit="10" d="
	M35,28.0361328c0-8,11-7.6699219,11,0"/>
<g>
</g>
<g>
</g>
<g>
</g>
<g>
</g>
<g>
</g>
<g>
</g>
</svg>
