<?xml version="1.0" encoding="utf-8"?>
<!-- Generator: Adobe Illustrator 16.2.0, SVG Export Plug-In . SVG Version: 6.00 Build 0)  -->
<!DOCTYPE svg PUBLIC "-//W3C//DTD SVG 1.1//EN" "http://www.w3.org/Graphics/SVG/1.1/DTD/svg11.dtd">
<svg version="1.1" id="Layer_1" xmlns="http://www.w3.org/2000/svg" xmlns:xlink="http://www.w3.org/1999/xlink" x="0px" y="0px"
	 width="11.5444336px" height="4.6450195px" viewBox="0 0 11.5444336 4.6450195" enable-background="new 0 0 11.5444336 4.6450195"
	 xml:space="preserve">
<path fill="#F9BB18" d="M11.1674805,1.0620117c-0.1396484-0.1796875-0.4101562-0.4296875-0.609375-0.5498047L9.9575195,0.1518555
	C9.7573242,0.0317383,9.4077148-0.027832,9.1772461,0.012207l-0.5,0.0996094
	C8.4477539,0.1625977,8.097168,0.2924805,7.8979492,0.4018555l-0.4609375,0.25
	C7.237793,0.762207,6.8774414,0.8422852,6.6479492,0.8120117L6.2973633,0.7719727
	c-0.2294922-0.0292969-0.5996094-0.109375-0.8198242-0.1796875C5.2578125,0.5219727,4.8974609,0.5024414,4.6674805,0.5424805
	l-0.5,0.0996094C3.9477539,0.6918945,3.5874023,0.8120117,3.3774414,0.9125977L3.3374023,0.9321289
	C3.1274414,1.0424805,2.777832,1.1723633,2.5473633,1.2426758L1.5078125,1.5424805
	C1.2875977,1.6020508,1.0175781,1.7426758,0.9077148,1.8520508C0.7973633,1.9624023,0.6274414,2.2319336,0.5375977,2.4418945
	L0.4775391,2.5922852C0.3774414,2.8022461,0.2177734,3.1020508,0.1074219,3.2426758
	c-0.1098633,0.1494141-0.1396484,0.3896484-0.0698242,0.5292969c0.0800781,0.1503906,0.2900391,0.2099609,0.4702148,0.140625
	C0.6875,3.8325195,0.987793,3.6918945,1.1674805,3.5825195c0.1801758-0.1103516,0.5-0.1103516,0.7001953,0.0097656
	l0.1899414,0.1103516l0.7397461,0.4091797l0.7202148,0.390625c0.2001953,0.109375,0.5600586,0.1699219,0.7900391,0.1298828
	L4.9277344,4.512207l0.8398438-0.1503906l1.9506836-0.3691406c0.2294922-0.0507812,0.5898438-0.1601562,0.7988281-0.2607422
	l1.4804688-0.7001953c0.2207031-0.0996094,0.5400391-0.2998047,0.7207031-0.4492188l0.6591797-0.5302734
	c0.1904297-0.1503906,0.2197266-0.4199219,0.0800781-0.5996094L11.1674805,1.0620117z"/>
<g>
</g>
<g>
</g>
<g>
</g>
<g>
</g>
<g>
</g>
<g>
</g>
</svg>
