<?xml version="1.0" encoding="utf-8"?>
<!-- Generator: Adobe Illustrator 16.2.0, SVG Export Plug-In . SVG Version: 6.00 Build 0)  -->
<!DOCTYPE svg PUBLIC "-//W3C//DTD SVG 1.1//EN" "http://www.w3.org/Graphics/SVG/1.1/DTD/svg11.dtd">
<svg version="1.1" id="Layer_1" xmlns="http://www.w3.org/2000/svg" xmlns:xlink="http://www.w3.org/1999/xlink" x="0px" y="0px"
	 width="45.109375px" height="48.5849609px" viewBox="0 0 45.109375 48.5849609" enable-background="new 0 0 45.109375 48.5849609"
	 xml:space="preserve">
<path fill="#F9BB18" d="M33.6484375,23.3085938l-0.3496094-0.8193359L33.1386719,21.96875
	c-0.0800781-0.2597656-0.0800781-0.6699219,0-0.9296875l0.03125-0.1103516
	c0.0488281-0.1796875,0.0195312-0.4794922-0.0507812-0.6494141l-1.109375-2.4101562
	c-0.140625-0.3105469-0.03125-0.7001953,0.2402344-0.890625l0.2402344-0.1699219
	c0.2597656-0.1894531,0.6699219-0.1894531,0.9394531-0.0195312l0.0898438,0.0595703l0.6894531,0.5302734l1.4902344,1.2998047
	c0.109375,0.1005859,0.3398438,0.1298828,0.4804688,0.0703125l0.6796875-0.3105469
	c0.2792969-0.1298828,0.6894531-0.0996094,0.9492188,0.0800781l0.0800781,0.0605469
	c0.2597656,0.1699219,0.4511719,0.5292969,0.4511719,0.8300781v0.7392578l0.1191406,0.7705078l0.1503906,0.5195312
	c0.0605469,0.1904297,0.2304688,0.4804688,0.3691406,0.6201172l0.9902344,0.9902344
	c0.03125,0.0302734,0.0605469,0.0400391,0.1503906-0.0302734l0.2109375-0.4199219l0.0097656-0.0097656
	c-0.0195312-0.1103516-0.03125-0.2197266-0.03125-0.3095703v-0.6103516c0-0.2802734,0.1308594-0.6699219,0.3105469-0.8896484
	l1.0605469-1.3300781c0.1191406-0.1503906,0.2402344-0.4501953,0.25-0.640625l0.1992188-2.4697266
	c0.0195312-0.2900391,0.2304688-0.6503906,0.4707031-0.8203125l0.6289062-0.4394531l0.7910156-0.4707031
	c0.1699219-0.0898438,0.4101562-0.3095703,0.5-0.4697266l0.109375-0.1894531l0.4101562-0.7099609l0.0703125-0.1103516
	l-0.6601562-0.1904297c-0.2597656-0.0693359-0.609375-0.2792969-0.8007812-0.4697266l-0.4589844-0.4599609
	c-0.1308594-0.1298828-0.4101562-0.2695312-0.5996094-0.2900391l-1.28125-0.1601562
	c-0.1894531-0.0292969-0.5097656,0.0205078-0.6894531,0.1103516l-1.2207031,0.5703125
	c-0.1796875,0.0791016-0.4492188,0.2900391-0.578125,0.4492188l-0.7910156,0.9306641
	c-0.1796875,0.2294922-0.5507812,0.4199219-0.8300781,0.4394531l-0.75,0.0605469h-0.1191406l0.2089844,0.4101562
	c0.1503906,0.3095703,0.0605469,0.6992188-0.2089844,0.8994141L35.9492188,15.71875
	c-0.2304688,0.1699219-0.6289062,0.2802734-0.9101562,0.25l-0.4902344-0.0400391
	c-0.2695312-0.0302734-0.6503906-0.1796875-0.8691406-0.3398438l-0.7695312-0.5595703l-0.640625-0.640625l-0.4101562-0.5800781
	c-0.0097656-0.0195312-0.0097656-0.0400391-0.0097656-0.0498047c-0.109375-0.0097656-0.2109375-0.0302734-0.2910156-0.0800781
	L31.25,13.5292969c-0.0800781-0.0400391-0.2011719-0.0605469-0.3203125-0.0703125l0.4003906,0.6796875
	c0.1601562,0.2705078,0.1484375,0.6796875-0.0410156,0.9404297l-0.1699219,0.2392578l-0.6601562,0.6201172l-0.3398438,0.2207031
	c-0.2695312,0.1591797-0.6699219,0.1796875-0.9492188,0.0400391l-0.5703125-0.2802734l-0.7402344-0.2402344l-0.8808594-0.1298828
	l-0.859375-0.2597656l-1.4902344-0.7001953l-0.75-0.25L22.0585938,13.96875l-0.8496094-0.2900391l-2.9492188-1.4794922
	C18,12.0791016,17.7285156,11.7587891,17.6386719,11.4892578l-0.2695312-0.7900391
	c-0.0898438-0.2802734-0.0390625-0.6806641,0.109375-0.9404297l0.3808594-0.5996094
	c-0.0703125-0.0302734-0.1308594-0.0605469-0.1796875-0.0800781l-1.2910156-0.6699219l-0.7402344-0.4599609l-0.9082031-0.6601562
	c-0.2207031-0.1601562-0.4707031-0.4804688-0.5703125-0.7402344l-0.140625-0.3496094
	c-0.0898438-0.2607422-0.1191406-0.6699219-0.0605469-0.9404297l0.1601562-0.6796875
	c0.0507812-0.2099609,0.0507812-0.4902344,0.0097656-0.6103516l-0.0898438-0.6796875l0.1503906-0.7802734l0.0703125-0.1699219
	c0.0605469-0.1796875,0.0800781-0.5,0.0292969-0.6796875L14.25,1.4990234l-0.3203125-0.6806641L13.71875,0.5292969
	c-0.0996094-0.140625-0.3496094-0.2802734-0.5195312-0.2900391l-1.0996094-0.1005859l-0.8105469-0.1298828
	c-0.109375-0.0302734-0.3496094,0.0205078-0.4804688,0.1396484L9.3203125,1.4492188
	C9.109375,1.6386719,8.71875,1.7685547,8.4296875,1.7587891L7.7695312,1.71875l-0.859375-0.0898438L6.5996094,1.5791016
	C6.4492188,1.5585938,6.25,1.6484375,6.1796875,1.7792969L6.0800781,1.9287109
	C5.9902344,2.0791016,5.9902344,2.2988281,6.0390625,2.3886719l0.3398438,0.7402344L6.609375,3.7490234
	c0.0703125,0.1699219,0.2695312,0.3994141,0.4296875,0.4902344l0.8496094,0.4697266l0.6914062,0.5703125
	c0.1992188,0.2294922,0.25,0.6298828,0.109375,0.9199219L8.4492188,6.6787109
	C8.359375,6.8486328,8.2988281,7.1689453,8.3203125,7.3691406l0.0097656,0.1201172
	C8.359375,7.7890625,8.2285156,8.1689453,8.0292969,8.3886719L7.71875,8.7392578L7.3300781,9.3789062L7.2597656,9.5585938
	c-0.0898438,0.25-0.3203125,0.5800781-0.5195312,0.7597656l-0.1601562,0.140625l-0.5214844,0.5996094l-1.1191406,1.6806641
	c-0.1503906,0.2392578-0.5,0.4697266-0.7792969,0.5292969l-1.7304688,0.3603516
	c-0.1601562,0.0302734-0.3398438,0.1894531-0.390625,0.3398438l-0.0996094,0.3398438l-0.359375,0.8203125l-0.1015625,0.1601562
	c-0.0585938,0.0996094-0.0390625,0.2402344,0.0410156,0.2998047c0,0,0.5703125,0.6601562,0.5996094,0.7099609l0.4804688,0.5898438
	l1.1601562,0.9697266l0.4003906,0.3408203c0.2695312,0.2197266,0.3300781,0.6191406,0.1484375,0.9091797l-0.1699219,0.25
	C4,19.5986328,3.75,19.8388672,3.5703125,19.9287109l-0.6113281,0.3398438c-0.2597656,0.1699219-0.6699219,0.1699219-0.9296875,0
	c-0.1503906-0.0898438-0.4492188-0.1494141-0.6191406-0.1201172l-0.2304688,0.0400391
	C1,20.21875,0.71875,20.3691406,0.5898438,20.4990234L0,21.1289062c0.1386719,0.0898438,0.2695312,0.2001953,0.3496094,0.2900391
	l0.75,0.8300781c0.1699219,0.1796875,0.4101562,0.3193359,0.5605469,0.3193359c0.1386719,0,0.4492188-0.0498047,0.6699219-0.1191406
	l0.109375-0.0302734c0.2304688-0.0605469,0.5,0.0302734,0.609375,0.2197266
	c0.1113281,0.1796875,0.140625,0.4501953,0.0703125,0.5898438c-0.0800781,0.1503906-0.3105469,0.3398438-0.5292969,0.4306641
	l-0.1503906,0.0693359c-0.2109375,0.0898438-0.359375,0.3505859-0.3203125,0.5898438l0.0097656,0.0800781
	c0.03125,0.2402344,0.1796875,0.5400391,0.3203125,0.6904297c0.1503906,0.1396484,0.390625,0.4101562,0.5410156,0.5898438
	l0.1191406,0.1396484c0.1503906,0.1806641,0.4609375,0.3408203,0.6992188,0.3603516l1.140625,0.0703125
	c0.2304688,0.0195312,0.5703125-0.0800781,0.7597656-0.2197266l0.3808594-0.2900391
	c0.1894531-0.140625,0.2792969-0.4306641,0.2089844-0.6503906s-0.0996094-0.5800781-0.0703125-0.7998047
	c0.0410156-0.2099609,0.2207031-0.4599609,0.4003906-0.5302734s0.4199219,0.0205078,0.53125,0.2001953
	c0.109375,0.1796875,0.2695312,0.5097656,0.3496094,0.7294922l0.0996094,0.2705078
	c0.0800781,0.2099609,0.1503906,0.5800781,0.1503906,0.8203125v0.3398438c0,0.2392578-0.0410156,0.609375-0.0996094,0.8398438
	l-0.2011719,0.8994141c-0.0605469,0.2304688-0.0195312,0.5800781,0.0800781,0.8007812l0.4394531,0.9492188
	c0.1015625,0.2099609,0.2109375,0.5703125,0.25,0.8007812l0.25,1.4199219c0.0410156,0.2294922,0.1503906,0.5898438,0.25,0.7998047
	l2.3007812,4.9394531c0.0898438,0.2109375,0.25,0.5605469,0.3398438,0.7802734l0.4804688,1.2001953
	c0.0800781,0.2197266,0.2402344,0.5595703,0.3496094,0.7695312l2.1308594,4.0205078
	c0.0996094,0.2099609,0.25,0.5595703,0.3183594,0.7802734l0.28125,0.9199219
	C15,46.2597656,15.0703125,46.6289062,15.0996094,46.859375l0.0390625,0.4902344
	c0.03125,0.2294922,0.2207031,0.4892578,0.4414062,0.5898438l1.3398438,0.5898438
	c0.2089844,0.0898438,0.5488281,0.0703125,0.75-0.0605469l0.3398438-0.2089844
	c0.1992188-0.1308594,0.4492188-0.390625,0.5703125-0.5908203l0.5-0.8603516
	c0.1191406-0.1992188,0.3300781-0.5292969,0.4589844-0.7197266L20.25,45.0683594
	c0.1289062-0.1992188,0.25-0.5390625,0.2597656-0.7792969l0.0898438-2.3300781
	c0.0195312-0.2304688,0.0703125-0.6103516,0.1289062-0.8398438l0.3203125-1.2900391
	c0.0605469-0.2304688,0.0898438-0.6103516,0.0800781-0.8398438l-0.0800781-1.2802734
	c-0.0097656-0.2304688-0.0800781-0.6005859-0.1503906-0.8300781L20.75,36.3691406
	c-0.0703125-0.2207031,0.0292969-0.5205078,0.2089844-0.6601562L24,33.4287109
	c0.1796875-0.1396484,0.4492188-0.3994141,0.5898438-0.5898438l0.2890625-0.3798828l0.5097656-0.6796875l0.28125-0.3808594
	c0.1386719-0.1894531,0.4199219-0.4492188,0.6191406-0.5693359l0.7402344-0.4707031
	c0.1992188-0.1298828,0.4492188-0.3994141,0.5605469-0.609375l0.5292969-0.9697266
	C28.2285156,28.5683594,28.5,28.3388672,28.71875,28.2587891l1.7207031-0.6396484
	c0.2207031-0.0800781,0.4589844-0.2900391,0.5292969-0.4804688c0.0703125-0.1796875,0.0507812-0.5-0.0585938-0.7099609
	l-0.0214844-0.0302734c-0.0996094-0.2099609-0.0800781-0.5400391,0.0507812-0.7392578L31,25.5683594
	c0.1289062-0.1894531,0.2890625-0.5,0.3691406-0.6796875c0.0703125-0.1796875,0.3203125-0.3496094,0.5507812-0.3798828
	l1.5488281-0.1699219c0.1914062-0.0205078,0.4707031-0.0800781,0.6914062-0.1396484L33.6484375,23.3085938z"/>
<g>
</g>
<g>
</g>
<g>
</g>
<g>
</g>
<g>
</g>
<g>
</g>
</svg>
