<?xml version="1.0" encoding="utf-8"?>
<!-- Generator: Adobe Illustrator 16.2.0, SVG Export Plug-In . SVG Version: 6.00 Build 0)  -->
<!DOCTYPE svg PUBLIC "-//W3C//DTD SVG 1.1//EN" "http://www.w3.org/Graphics/SVG/1.1/DTD/svg11.dtd">
<svg version="1.1" id="Layer_1" xmlns="http://www.w3.org/2000/svg" xmlns:xlink="http://www.w3.org/1999/xlink" x="0px" y="0px"
	 width="79px" height="155.0009766px" viewBox="0 0 79 155.0009766" enable-background="new 0 0 79 155.0009766"
	 xml:space="preserve">
<g>
	<g>
		
			<path fill-rule="evenodd" clip-rule="evenodd" fill="none" stroke="#FEE7AB" stroke-width="2" stroke-linecap="round" stroke-linejoin="round" stroke-miterlimit="10" d="
			M73.3300781,128.6601562l-67.6000977,0.7402344V26.7900391l67.6000977-0.1499023V128.6601562z M39.6298828,149.2001953
			c-3.909668,0.0498047-7.0898438-3.1005859-7.0898438-7.0302734c0-3.9199219,3.1801758-7.140625,7.0898438-7.1894531
			c3.8994141-0.0410156,7.0703125,3.0996094,7.0703125,7.0195312
			C46.7001953,145.9296875,43.5292969,149.1503906,39.6298828,149.2001953z M67.1894531,1H11.9301758
			C5.9101562,1,1,5.9199219,1,11.9599609v131.2197266C1,149.2207031,5.9101562,154.0800781,11.9301758,154l55.2592773-0.7207031
			C73.1503906,153.2001953,78,148.2597656,78,142.25V11.8901367C78,5.8798828,73.1503906,1,67.1894531,1z"/>
		<path fill="#FEE7AB" d="M33.2797852,16.3999023l13.4506836-0.0200195C47.4296875,16.3798828,48,16.9599609,48,17.6801758
			C48,18.4101562,47.4296875,18.9902344,46.7304688,19l-13.4506836,0.0200195C32.5698242,19.0200195,32,18.4301758,32,17.7099609
			C32,16.9902344,32.5698242,16.3999023,33.2797852,16.3999023z"/>
		<path fill="#FEE7AB" d="M39.5,8.0097656c1.3798828,0,2.5,1.1103516,2.5,2.4902344c0,1.3901367-1.1201172,2.5097656-2.5,2.5097656
			s-2.5-1.1196289-2.5-2.5C37,9.1298828,38.1201172,8.0097656,39.5,8.0097656z"/>
	</g>
</g>
<g>
</g>
<g>
</g>
<g>
</g>
<g>
</g>
<g>
</g>
<g>
</g>
</svg>
