<?xml version="1.0" encoding="utf-8"?>
<!-- Generator: Adobe Illustrator 16.2.0, SVG Export Plug-In . SVG Version: 6.00 Build 0)  -->
<!DOCTYPE svg PUBLIC "-//W3C//DTD SVG 1.1//EN" "http://www.w3.org/Graphics/SVG/1.1/DTD/svg11.dtd">
<svg version="1.1" id="Layer_1" xmlns="http://www.w3.org/2000/svg" xmlns:xlink="http://www.w3.org/1999/xlink" x="0px" y="0px"
	 width="6.7026367px" height="6.5419922px" viewBox="0 0 6.7026367 6.5419922" enable-background="new 0 0 6.7026367 6.5419922"
	 xml:space="preserve">
<path fill="#F9BB18" d="M3.2900391,0.4394531l0.2802734,0.5C3.6704102,1.109375,3.8999023,1.3398438,4.0698242,1.4296875
	l0.5703125,0.3095703l0.7207031,0.2001953L6.2602539,2c0.0097656,0,0.0205078,0.0195312,0.0302734,0.0195312
	c0.109375-0.1298828,0.2294922-0.2597656,0.3095703-0.359375c0.1396484-0.1806641,0.1396484-0.4707031-0.0205078-0.6503906
	L5.9506836,0.3193359C5.800293,0.1494141,5.4799805,0,5.2495117,0H4.3706055C4.1401367,0,3.7905273,0.109375,3.590332,0.2392578
	L3.2900391,0.4394531z"/>
<path fill="#F9BB18" d="M0.2402344,4.25C0.1601562,4.4697266,0.0703125,4.7695312,0.0302734,4.9101562
	C0,5.0595703-0.0097656,5.3701172,0.0102539,5.5996094L0.050293,5.9492188C0.0800781,6.1796875,0.25,6.4296875,0.4301758,6.5
	c0.1801758,0.0800781,0.5,0.0400391,0.7099609-0.0605469l1.2402344-0.6699219
	c0.199707-0.109375,0.5600586-0.2099609,0.7900391-0.2294922l0.6201172-0.0605469
	c0.2294922-0.0195312,0.5800781-0.1396484,0.7695312-0.2695312L5.050293,4.8798828
	C5.2495117,4.75,5.4301758,4.4599609,5.4604492,4.2294922l0.1503906-1.1494141
	c0.0292969-0.2207031,0.1699219-0.5,0.3193359-0.6699219L5.3295898,2.3701172L4.4506836,2.109375L3.8706055,1.8095703
	C3.6201172,1.6796875,3.3300781,1.3896484,3.2001953,1.1494141L2.9301758,0.6601562
	C2.75,0.7597656,2.5102539,0.8496094,2.340332,0.8896484L1.9702148,0.9697266C1.75,1.0195312,1.3901367,1.1494141,1.1801758,1.25
	L0.8803711,1.4101562C0.6704102,1.5097656,0.4404297,1.7792969,0.3803711,2L0.3500977,2.1201172
	C0.2900391,2.3398438,0.3203125,2.6699219,0.4301758,2.8496094c0.1098633,0.1904297,0.1298828,0.5205078,0.0600586,0.7402344
	L0.2402344,4.25z"/>
<g>
</g>
<g>
</g>
<g>
</g>
<g>
</g>
<g>
</g>
<g>
</g>
</svg>
