<?xml version="1.0" encoding="utf-8"?>
<!-- Generator: Adobe Illustrator 16.2.0, SVG Export Plug-In . SVG Version: 6.00 Build 0)  -->
<!DOCTYPE svg PUBLIC "-//W3C//DTD SVG 1.1//EN" "http://www.w3.org/Graphics/SVG/1.1/DTD/svg11.dtd">
<svg version="1.1" id="Layer_1" xmlns="http://www.w3.org/2000/svg" xmlns:xlink="http://www.w3.org/1999/xlink" x="0px" y="0px"
	 width="178.5004883px" height="293.7421875px" viewBox="0 0 178.5004883 293.7421875"
	 enable-background="new 0 0 178.5004883 293.7421875" xml:space="preserve">
<g>
	<path fill="none" stroke="#F2BCB8" stroke-width="2" stroke-linecap="round" stroke-linejoin="round" stroke-miterlimit="10" d="
		M132.0004883,245.5400391c2.0693359,0,3.75-1.6699219,3.75-3.75c0-2.0693359-1.6806641-3.7402344-3.75-3.7402344h-0.0205078v-7.5
		h0.0205078c2.0693359,0,3.75-1.6796875,3.75-3.75c0-2.0693359-1.6806641-3.75-3.75-3.75h-0.0205078v-4.6591797
		C131.8696289,216.5,130.3198242,215,128.3999023,215H50.1000977C48.1098633,215,46.5,216.609375,46.5,218.5996094v11.9707031
		c-1.9399414,0.1396484-3.4799805,1.75-3.4799805,3.7294922s1.5400391,3.5800781,3.4897461,3.7197266v7.5507812
		c-1.949707,0.1396484-3.4897461,1.7402344-3.4897461,3.7197266c0,1.9892578,1.5498047,3.5898438,3.4897461,3.7294922v7.5507812
		c-1.9399414,0.1298828-3.4897461,1.7402344-3.4897461,3.7197266c0,1.9892578,1.5498047,3.5898438,3.5,3.7294922V272
		c0.1098633,1.890625,1.659668,3.390625,3.5800781,3.390625h78.2998047c1.9892578,0,3.6005859-1.6113281,3.6005859-3.6005859
		l-0.0107422-11.25c2.0800781,0,3.7607422-1.6806641,3.7607422-3.75s-1.6806641-3.75-3.75-3.75h-0.0107422v-7.5H132.0004883z"/>
	<g>
		<path fill="none" stroke="#F2BCB8" stroke-width="2" stroke-linecap="round" stroke-linejoin="round" stroke-miterlimit="10" d="
			M89.25,1C40.5097656,1,1,40.5097656,1,89.25C1,154,54.5,154.5,54.5,215h69.5004883c0-60.5,53.5-61,53.5-125.75
			C177.5004883,40.5097656,137.9897461,1,89.25,1z"/>
		<path fill="none" stroke="#F2BCB8" stroke-width="2" stroke-linecap="round" stroke-linejoin="round" stroke-miterlimit="10" d="
			M116.7504883,275.390625v5c-15.1806641,16.46875-39.8007812,16.46875-54.9804688,0v-5"/>
		<path fill="none" stroke="#F2BCB8" stroke-width="2" stroke-linecap="round" stroke-linejoin="round" stroke-miterlimit="10" d="
			M80.5,215V110.6201172V93.8598633C80.5,86.7900391,83.3598633,80.3901367,88,75.75l2.909668-2.9199219
			c9.8896484-9.8798828,25.9101562-9.8798828,35.7900391,0c9.8808594,9.8901367,9.8808594,25.9101562,0,35.7900391
			L89.25,146.0800781l-37.4599609-37.4599609c-9.8803711-9.8798828-9.8803711-25.8999023,0-35.7900391
			c9.8896484-9.8798828,25.909668-9.8798828,35.7900391,0L90.5004883,75.75c4.6289062,4.6401367,7.5,11.0400391,7.5,18.1098633
			l-0.0107422,16.7602539L98.0004883,215"/>
		
			<line fill="none" stroke="#F2BCB8" stroke-width="2" stroke-linecap="round" stroke-linejoin="round" stroke-miterlimit="10" x1="54.1499023" y1="264.4599609" x2="117.6098633" y2="264.4599609"/>
		
			<line fill="none" stroke="#F2BCB8" stroke-width="2" stroke-linecap="round" stroke-linejoin="round" stroke-miterlimit="10" x1="54.1499023" y1="249.4501953" x2="117.6098633" y2="249.4501953"/>
		
			<line fill="none" stroke="#F2BCB8" stroke-width="2" stroke-linecap="round" stroke-linejoin="round" stroke-miterlimit="10" x1="54.1499023" y1="234.4394531" x2="117.6098633" y2="234.4394531"/>
	</g>
</g>
<g>
</g>
<g>
</g>
<g>
</g>
<g>
</g>
<g>
</g>
<g>
</g>
</svg>
