<?xml version="1.0" encoding="utf-8"?>
<!-- Generator: Adobe Illustrator 16.2.0, SVG Export Plug-In . SVG Version: 6.00 Build 0)  -->
<!DOCTYPE svg PUBLIC "-//W3C//DTD SVG 1.1//EN" "http://www.w3.org/Graphics/SVG/1.1/DTD/svg11.dtd">
<svg version="1.1" id="Layer_1" xmlns="http://www.w3.org/2000/svg" xmlns:xlink="http://www.w3.org/1999/xlink" x="0px" y="0px"
	 width="299.7167969px" height="260.6689453px" viewBox="0 0 299.7167969 260.6689453"
	 enable-background="new 0 0 299.7167969 260.6689453" xml:space="preserve">
<path fill="none" stroke="#F2BCB8" stroke-width="2" stroke-linecap="round" stroke-linejoin="round" stroke-miterlimit="10" d="
	M154.4990234,1.9145508c-1.2207031-1.2197266-3.2109375-1.2197266-4.4404297,0l-0.199707,0.2099609l-0.2099609-0.2099609
	c-1.2202148-1.2197266-3.2099609-1.2197266-4.4301758,0c-1.2299805,1.2299805-1.2299805,3.2099609,0,4.4399414l4.6401367,4.6401367
	l4.6401367-4.6401367C155.7294922,5.1245117,155.7294922,3.1445312,154.4990234,1.9145508z"/>
<path fill="none" stroke="#F2BCB8" stroke-width="2" stroke-linecap="round" stroke-linejoin="round" stroke-miterlimit="10" d="
	M5.7490234,82.4345703c-1.6704102,0.4501953-2.6704102,2.1699219-2.2202148,3.8398438l0.0800781,0.2900391l-0.2802734,0.0703125
	c-1.6796875,0.449707-2.6699219,2.1699219-2.2197266,3.8398438c0.449707,1.6801758,2.1699219,2.6699219,3.8398438,2.2202148
	l6.3398438-1.7001953l-1.699707-6.3398438C9.1489258,82.9848633,7.4287109,81.9848633,5.7490234,82.4345703z"/>
<path fill="none" stroke="#F2BCB8" stroke-width="2" stroke-linecap="round" stroke-linejoin="round" stroke-miterlimit="10" d="
	M293.96875,259.5546875c1.6699219-0.4404297,2.6601562-2.1601562,2.2099609-3.8398438l-0.0703125-0.2802734l0.2802734-0.0800781
	c1.6699219-0.4394531,2.6699219-2.1601562,2.2197266-3.8398438c-0.4492188-1.6699219-2.1699219-2.6601562-3.8398438-2.2207031
	l-6.3496094,1.7011719l1.6992188,6.3496094C290.5693359,259.0146484,292.2880859,260.0048828,293.96875,259.5546875z"/>
<path fill="none" stroke="#F2BCB8" stroke-width="2" stroke-linecap="round" stroke-linejoin="round" stroke-miterlimit="10" d="
	M1.1088867,251.5146484c-0.4501953,1.6796875,0.5400391,3.4003906,2.2197266,3.8496094l0.2802734,0.0703125l-0.0800781,0.2802734
	c-0.4501953,1.6796875,0.5498047,3.3994141,2.2202148,3.8496094c1.6796875,0.4404297,3.3999023-0.5498047,3.8398438-2.2197266
	l1.699707-6.3496094l-6.3398438-1.7011719C3.2788086,248.8447266,1.5488281,249.8447266,1.1088867,251.5146484z"/>
<path fill="none" stroke="#F2BCB8" stroke-width="2" stroke-linecap="round" stroke-linejoin="round" stroke-miterlimit="10" d="
	M298.6083984,90.4746094c0.4501953-1.6699219-0.5498047-3.3901367-2.2197266-3.8398438l-0.2802734-0.0703125l0.0703125-0.2900391
	c0.4501953-1.6699219-0.5400391-3.3896484-2.2099609-3.8398438c-1.6806641-0.449707-3.3994141,0.550293-3.8505859,2.2202148
	l-1.6992188,6.3398438l6.3496094,1.7001953C296.4384766,93.1445312,298.1591797,92.1547852,298.6083984,90.4746094z"/>
<g>
</g>
<g>
</g>
<g>
</g>
<g>
</g>
<g>
</g>
<g>
</g>
</svg>
