<?xml version="1.0" encoding="utf-8"?>
<!-- Generator: Adobe Illustrator 16.2.0, SVG Export Plug-In . SVG Version: 6.00 Build 0)  -->
<!DOCTYPE svg PUBLIC "-//W3C//DTD SVG 1.1//EN" "http://www.w3.org/Graphics/SVG/1.1/DTD/svg11.dtd">
<svg version="1.1" id="Layer_1" xmlns="http://www.w3.org/2000/svg" xmlns:xlink="http://www.w3.org/1999/xlink" x="0px" y="0px"
	 width="342.0048828px" height="156.4228516px" viewBox="0 0 342.0048828 156.4228516"
	 enable-background="new 0 0 342.0048828 156.4228516" xml:space="preserve">
<path fill="none" stroke="#F2BCB8" stroke-width="2" stroke-linecap="round" stroke-linejoin="round" stroke-miterlimit="10" d="
	M90.4824219,1.1079102C88.8125,0.6577148,87.0922852,1.6577148,86.6425781,3.328125L86.5625,3.6079102l-0.2802734-0.0698242
	c-1.6699219-0.4501953-3.3999023,0.5400391-3.8398438,2.2197266c-0.4501953,1.6699219,0.5400391,3.3901367,2.2099609,3.840332
	l6.3500977,1.699707l1.699707-6.3398438C93.1523438,3.277832,92.1523438,1.5581055,90.4824219,1.1079102z"/>
<path fill="none" stroke="#F2BCB8" stroke-width="2" stroke-linecap="round" stroke-linejoin="round" stroke-miterlimit="10" d="
	M1.9223633,145.2177734c-1.2299805,1.2207031-1.2299805,3.2099609,0,4.4394531l0.2001953,0.2011719l-0.2001953,0.2089844
	c-1.2299805,1.2304688-1.2299805,3.2109375,0,4.4404297c1.2202148,1.2197266,3.2099609,1.2197266,4.4301758,0l4.6499023-4.6494141
	l-4.6499023-4.640625C5.1323242,143.9873047,3.1425781,143.9873047,1.9223633,145.2177734z"/>
<path fill="none" stroke="#F2BCB8" stroke-width="2" stroke-linecap="round" stroke-linejoin="round" stroke-miterlimit="10" d="
	M340.0820312,154.5078125c1.2304688-1.2294922,1.2304688-3.2099609,0-4.4404297l-0.2089844-0.2089844l0.2089844-0.2011719
	c1.2207031-1.2294922,1.2304688-3.21875,0-4.4394531c-1.2197266-1.2197266-3.2089844-1.2304688-4.4394531,0l-4.640625,4.640625
	l4.640625,4.6494141C336.8730469,155.7275391,338.8623047,155.7275391,340.0820312,154.5078125z"/>
<path fill="none" stroke="#F2BCB8" stroke-width="2" stroke-linecap="round" stroke-linejoin="round" stroke-miterlimit="10" d="
	M259.5625,5.7578125c-0.4501953-1.6796875-2.1699219-2.6699219-3.8398438-2.2197266l-0.2802734,0.0698242l-0.0800781-0.2797852
	c-0.4501953-1.6704102-2.1699219-2.6704102-3.8398438-2.2202148s-2.6699219,2.1699219-2.2197266,3.8500977l1.6992188,6.3398438
	l6.3398438-1.699707C259.0224609,9.1479492,260.0117188,7.4277344,259.5625,5.7578125z"/>
<g>
</g>
<g>
</g>
<g>
</g>
<g>
</g>
<g>
</g>
<g>
</g>
</svg>
