<?xml version="1.0" encoding="utf-8"?>
<!-- Generator: Adobe Illustrator 16.2.0, SVG Export Plug-In . SVG Version: 6.00 Build 0)  -->
<!DOCTYPE svg PUBLIC "-//W3C//DTD SVG 1.1//EN" "http://www.w3.org/Graphics/SVG/1.1/DTD/svg11.dtd">
<svg version="1.1" id="Layer_1" xmlns="http://www.w3.org/2000/svg" xmlns:xlink="http://www.w3.org/1999/xlink" x="0px" y="0px"
	 width="142.0029297px" height="34.0009766px" viewBox="0 0 142.0029297 34.0009766"
	 enable-background="new 0 0 142.0029297 34.0009766" xml:space="preserve">
<g>
	<path fill-rule="evenodd" clip-rule="evenodd" fill="#46BCD3" d="M140.9902344,23.5009766
		c-0.4609375,0-0.8398438-0.359375-0.8398438-0.8105469c0-0.4492188,0.3789062-0.8193359,0.8398438-0.8193359
		c0.4492188,0,0.8300781,0.3701172,0.8300781,0.8193359C141.8203125,23.1416016,141.4394531,23.5009766,140.9902344,23.5009766z
		 M140.9902344,21.7314453c-0.5400391,0-0.9804688,0.4296875-0.9804688,0.9589844
		c0,0.5205078,0.4404297,0.9511719,0.9804688,0.9511719c0.5292969,0,0.9697266-0.4306641,0.9697266-0.9511719
		C141.9599609,22.1611328,141.5195312,21.7314453,140.9902344,21.7314453z"/>
	<path fill-rule="evenodd" clip-rule="evenodd" fill="#46BCD3" d="M140.9501953,22.6308594h-0.1806641v-0.3701172h0.25
		c0.1210938,0,0.2597656,0.0400391,0.2597656,0.1796875C141.2792969,22.6210938,141.109375,22.6308594,140.9501953,22.6308594z
		 M141.4101562,22.4404297c0-0.1992188-0.0898438-0.2988281-0.3496094-0.2988281h-0.4306641v1.0898438h0.1396484v-0.4804688
		h0.2109375l0.3300781,0.4804688h0.1601562l-0.3408203-0.4804688
		C141.2792969,22.7314453,141.4101562,22.6416016,141.4101562,22.4404297z"/>
</g>
<path fill="#46BCD3" d="M34.4799805,22.3505859c-2.0898438,0-2.9399414-2.3203125-2.9399414-4.0097656
	c0-2.199707,0.4799805-4.3999023,1.0600586-6.5297852c0.5297852-1.8398438,1.3398438-3.7202148,1.3398438-5.6899414
	c0-1.7602539-0.8100586-2.800293-2.6899414-2.800293c-5.6401367,0-10.6201172,11.5800781-12.75,15.8305664
	c-0.1201172,0.1992188-0.2001953,0.359375-0.3598633,0.5595703c0-0.2001953-0.0400391-0.3603516-0.0400391-0.5595703
	c0-1.6904297,0.3598633-3.3305664,0.7299805-5.0102539c0.3701172-1.6401367,0.7299805-3.3300781,0.7299805-5.0102539
	c0-1.4799805-0.2802734-3.5297852-2.2001953-3.5297852c-3.6796875,0-9.5200195,10.1401367-11.3100586,13.1098633
	c0.9404297-3.3701172,2.0800781-6.7700195,2.0800781-10.2998047c0-2.6503906-0.9799805-5.6899414-4.2099609-5.6899414
	C2.4501953,2.7211914,0,3.9208984,0,5.5610352C0,6.0009766,0.3300781,6.440918,0.8198242,6.440918
	c0.9399414,0,1.550293-1.4399414,2.9003906-1.4399414c1.7895508,0,2.2397461,2.2797852,2.2397461,3.6499023
	c0,2.4799805-0.6499023,5.090332-1.2597656,7.4902344C4.25,17.8608398,2.9799805,21.2705078,2.9799805,22.9111328
	c0,0.6796875,0.3300781,1.359375,1.1000977,1.359375c0.4897461,0,0.8999023-0.3193359,1.1899414-0.6796875
	c2.2001953-2.6796875,8.7001953-15.6196289,11.9301758-15.659668c0.0400391,0.1196289,0.0795898,0.2797852,0.0795898,0.3999023
	c0,2.0800781-0.3696289,4.1699219-0.7397461,6.2099609c-0.2402344,1.5200195-0.6499023,3.0400391-0.6499023,4.6494141
	c0,1.28125,0.2900391,2.9199219,1.9599609,2.9199219c1.8398438,0,2.8198242-2.4394531,3.4697266-3.8095703
	c2.0102539-4.1196289,4.1303711-9.3696289,8.090332-12.0200195c0.4897461-0.3198242,1.0600586-0.6396484,1.6298828-0.6396484
	c0.5,0,0.6201172,0.5200195,0.6201172,0.8798828c0,0.6499023-0.2099609,1.25-0.3701172,1.8500977
	c-0.8598633,3.6000977-2.0800781,7.2099609-2.0800781,10.9794922c0,2.6005859,1.8701172,4.8505859,4.6098633,4.8505859
	c0.6103516,0,1.6801758-0.2099609,1.6801758-1.0107422C35.5,22.5908203,35.0097656,22.3505859,34.4799805,22.3505859z"/>
<path fill="#46BCD3" d="M52.0800781,11.6508789c1.2700195,0,1.8901367-0.8198242,1.8901367-1.7797852
	c0-0.800293-0.4404297-1.5400391-1.3701172-1.5703125c-1.1601562-0.0498047-1.7402344,0.8803711-1.7402344,2.050293
	C50.8598633,11.1108398,51.3500977,11.6508789,52.0800781,11.6508789z"/>
<path fill="#46BCD3" d="M104.4804688,12.4008789c1.2597656,0,2.1494141-1.0200195,2.1494141-2.1796875
	c0-0.800293-0.4501953-1.6801758-1.3896484-1.6801758c-1.4296875,0-2.1103516,1.5-2.1103516,2.6601562
	C103.1298828,11.9609375,103.7402344,12.4008789,104.4804688,12.4008789z"/>
<path fill-rule="evenodd" clip-rule="evenodd" fill="#46BCD3" d="M136.8105469,19.3007812
	c-0.25,1.8603516-2.25,2.2802734-3.7607422,2.2802734c-0.8193359,0-2.6796875-0.4296875-3.1201172-1.2207031
	c-0.2890625-0.5292969-0.2089844-1.4394531-0.1503906-1.859375c0.2011719-1.3701172,1.2607422-2.6098633,4.2910156-2.6098633
	C135.9501953,15.8911133,137.0703125,17.3110352,136.8105469,19.3007812z M127.8105469,31.7011719
	c-1.4902344-3.7197266,0.0292969-8.1201172,0.0292969-8.1201172
	C128.0498047,26.7705078,127.8105469,28.6210938,127.8105469,31.7011719z M39.0698242,21.5410156
	c-1.5600586,0-2.0498047-0.8300781-2.0498047-1.7197266c0-3.5302734,4.2900391-6.9604492,5.5400391-5.6904297
	C43.3798828,14.9609375,42.2998047,21.5410156,39.0698242,21.5410156z M62.7797852,3.5708008
	c1.1601562,0.3500977,0.8203125,2.340332-0.3999023,5.0600586c-1.25,2.8203125-3.3500977,6.25-3.3500977,6.25
	C59.3598633,12.3408203,60.2001953,2.7910156,62.7797852,3.5708008z M95.75,2.2807617
	c1.1699219,0.3500977,0.6503906,3.2104492-0.5605469,5.9301758c-1.2597656,2.8300781-3.1289062,4.7700195-3.1289062,4.7700195
	C92.390625,10.440918,93.1699219,1.4912109,95.75,2.2807617z M42.1298828,11.9111328
	c-3.4296875-0.0200195-7.1201172,5.0200195-7.1201172,8.1396484c0,1.9697266,1.550293,3.5703125,3.590332,3.5703125
	c1.8798828,0,3.4697266-1.0302734,4.409668-2.5107422c0.6503906,1.0800781,1.6801758,1.8505859,2.9804688,1.8505859
	c1.3896484,0,2.6499023-0.7197266,3.6098633-1.75c0.5698242,1.4306641,1.1401367,2.2294922,2.7998047,2.3701172
	c3.0800781,0.2695312,4.8300781-3.1796875,4.8300781-3.1796875c0.6000977,1.7890625,1.7602539,3.25,3.8398438,3.25
	c1.9501953,0,3.5-0.8007812,4.8901367-4.0507812c2.0200195,3.4804688,6.3300781,5.1503906,10.4501953,5.1503906
	c6.2695312,0,10.0400391-4.0400391,13.4492188-7.4399414c-0.0390625,2.2993164-0.4296875,5.2895508-0.5390625,6.7993164
	c-0.0302734,0.5605469,0.4101562,1.0507812,0.9794922,1.0507812c0.9794922,0,1.2294922-0.6699219,1.5205078-1.5898438
	c0.6796875-2.1699219,1.9902344-7.0302734,3.5097656-7.0302734s0.1201172,5.7705078,3.6298828,5.7705078
	c0.8994141,0,1.9199219-0.3505859,2.9697266-1.4101562c0.1103516,1.6191406,0.75,2.9794922,2.7109375,3.1601562
	c1.0097656,0.0996094,1.8300781-0.28125,2.5390625-0.7705078c0.2001953-0.1396484,0.3105469-0.2402344,0.3105469-0.2402344
	c0,0.5908203,0.4804688,1.0703125,1.0898438,1.0703125c0.5703125,0,0.9804688-0.5302734,1.3496094-1.3896484
	c0.6503906-1.4902344,2.7402344-6.8505859,4.6796875-6.1704102c0.6904297,0.2397461,0.78125,1,0.78125,1.5200195
	c0,1.7597656-0.5908203,3.4599609-0.5908203,4.5498047c0,0.5205078,0.4101562,1,0.9794922,1
	c0.7011719,0,1.0703125-0.4892578,1.3105469-1.1699219c1.5898438-4.4897461,2.640625-6.3198242,3.8496094-5.9399414
	c1.6308594,0.5-0.0800781,7.1303711,3.8808594,7.1303711c0.8203125,0,1.4492188-0.25,1.4296875-0.2705078
	c-0.75,1.7099609-0.8701172,2.9794922-0.8701172,4.6699219c0,2.5800781,0.6494141,5.9501953,2.5205078,5.9501953
	c0.6894531,0,1.0996094-0.5195312,1.3095703-1.1201172c0.5693359-2.0498047,0.5302734-7.6494141,0.5693359-10.0205078
	c1.2705078,0.5205078,2.6601562,0.8007812,4.0107422,0.8007812c4.8300781,0,7.9199219-3.140625,7.9199219-3.140625
	c0.3896484-0.3789062,0.3896484-1,0-1.3691406c-0.3896484-0.3808594-0.9101562-0.390625-1.3994141,0
	c-0.9101562,0.6992188-1.5,1.109375-1.5,1.109375c0.7597656-2.0898438,0.3193359-6.5297852-4.25-6.5297852
	c-1.7910156,0-3.7011719,0.7202148-4.8603516,1.9199219l-0.0800781-1.6000977
	c-0.0400391-0.6298828-0.5-1.0898438-1.1201172-1.0898438c-0.609375,0-1.109375,0.4902344-1.109375,1.0898438
	c0,0,0.0693359,2.2202148,0.0693359,3.7602539c0,1.5600586-0.0302734,3.7993164-1.9599609,3.7993164
	c-3.1894531,0-0.3798828-7.1391602-4.2998047-7.1391602c-1.5205078,0-2.9902344,1.159668-4.1503906,3.5395508
	c0.0703125-1.5395508-0.4404297-3.4199219-1.9501953-3.4199219c-1.2695312,0-2.4492188,0.7202148-3.3095703,1.6103516
	c0.1601562-0.4902344,0.5302734-1.1601562,0.5302734-1.8901367c0-0.5400391-0.4003906-0.8300781-0.9501953-0.8300781
	c-1.2197266,0-1.4697266,2.5400391-2.5205078,4.8598633c-1.0498047,2.3203125-2.4794922,3.9804688-3.7597656,3.6796875
	c-0.9902344-0.2294922-1.0195312-1.0800781-1.0195312-1.7988281c0-1.7207031,0.7792969-3.8105469,0.7792969-4.9707031
	c0-0.5600586-0.3789062-1.1000977-0.9794922-1.0400391c-1.1494141,0.1098633-1.3300781,1.9599609-1.7705078,3.1401367
	c-0.4296875,1.1694336-0.9101562,3.2592773-2.7695312,3.1098633c-2.0400391-0.1699219-0.4501953-6.1201172-3.8007812-6.1201172
	c-1.3886719,0-3.0195312,2.4003906-3.6699219,3.4501953l0.1503906-1.9902344c0,0,2.5195312-2.6098633,3.8007812-4.8798828
	c1.3496094-2.3701172,2.1796875-4.5200195,2.1796875-7.5c0-1.3300781-0.3701172-3.3901367-2.1308594-3.3901367
	C91.75,0.0307617,90.4101562,9.0209961,90,14.690918c-3.2402344,3.5102539-8.1601562,8.1801758-13.4296875,8.1801758
	c-4.7402344,0-9.3701172-2.6005859-9.3701172-8.1298828c0-4.6904297,4.2397461-9.7802734,8.4091797-11.6601562
	c0.2109375-0.1201172,2.03125-0.9599609,3.9707031-1h0.1992188c0.6601562,0,1.28125,0.1098633,1.8203125,0.3300781
	c0.1796875,0.0698242,0.3505859,0.1499023,0.5205078,0.2397461c0.3300781,0.1899414,0.6396484,0.4199219,0.8994141,0.6699219
	c0.3398438,0.2802734,1.1503906,1.090332,1.9707031,0.5102539c0.8300781-0.6000977,0.0996094-1.5102539,0.0292969-1.6098633
	c-1.0097656-1.4003906-2.7597656-2.1103516-4.8789062-2.2202148c-1.2011719-0.0200195-2.3710938,0.2299805-3.0205078,0.3901367
	c-5.8798828,1.4897461-11.0703125,6.5898438-12.340332,14.6298828c-0.1396484,0.9399414-0.0498047,1.7797852-0.0996094,2.4199219
	c-0.3901367,2.1899414-1.2099609,4.1303711-3.2001953,4.1303711c-2.8198242,0-2.5898438-3.1699219-2.5898438-3.1699219
	s2.5898438-4.1503906,3.8696289-6.4101562C64.1098633,9.6108398,65.1201172,7.6308594,65.25,4.6411133
	c0.0698242-1.3203125-0.6098633-3.3100586-2.3598633-3.3100586c-4.1201172,0-5.5200195,9.8598633-5.9301758,15.5400391
	c0,0-0.0498047,0.3701172-0.2900391,0.9399414c-0.5498047,1.3100586-2.3901367,3.8598633-3.7597656,3.590332
	c-0.9799805-0.1904297-1.090332-0.9404297-1.090332-1.6601562c0-1.7304688,0.6303711-4.0800781,0.6303711-5.2402344
	c0-0.5600586-0.3701172-1.0400391-0.9799805-1.0400391c-1.0102539,0-1.2602539,1.4799805-1.800293,3.3901367
	c-0.5400391,1.8999023-1.4101562,4.1000977-3.4697266,4.1000977c-1.5102539,0-1.800293-2.3203125-1.800293-3.4404297
	c0-0.7695312,0.1899414-1.909668,0.25-2.659668C44.7001953,14.190918,44.8300781,11.9208984,42.1298828,11.9111328z"/>
<g>
</g>
<g>
</g>
<g>
</g>
<g>
</g>
<g>
</g>
<g>
</g>
</svg>
