<?xml version="1.0" encoding="utf-8"?>
<!-- Generator: Adobe Illustrator 16.2.0, SVG Export Plug-In . SVG Version: 6.00 Build 0)  -->
<!DOCTYPE svg PUBLIC "-//W3C//DTD SVG 1.1//EN" "http://www.w3.org/Graphics/SVG/1.1/DTD/svg11.dtd">
<svg version="1.1" id="Layer_1" xmlns="http://www.w3.org/2000/svg" xmlns:xlink="http://www.w3.org/1999/xlink" x="0px" y="0px"
	 width="120px" height="146px" viewBox="0 0 120 146" enable-background="new 0 0 120 146" xml:space="preserve">
<rect fill-rule="evenodd" clip-rule="evenodd" fill="#B1E1EE" width="120" height="146"/>
<g>
	<rect x="10" y="10" fill="#B1E1EE" width="100" height="126"/>
	<path fill="#2A9FB4" d="M110,137H10c-0.5522461,0-1-0.4472656-1-1V10c0-0.5522461,0.4477539-1,1-1h100c0.5527344,0,1,0.4477539,1,1
		v126C111,136.5527344,110.5527344,137,110,137z M11,135h98V11H11V135z"/>
</g>
<path fill="#2A9FB4" d="M90,67H30c-0.5522461,0-1-0.4477539-1-1V34c0-0.5522461,0.4477539-1,1-1h60c0.5527344,0,1,0.4477539,1,1v32
	C91,66.5522461,90.5527344,67,90,67z M31,65h58V35H31V65z"/>
<g>
	<line fill="#FEE7AB" x1="90" y1="23" x2="30" y2="23"/>
	<path fill="#2A9FB4" d="M90,24H30c-0.5522461,0-1-0.4477539-1-1s0.4477539-1,1-1h60c0.5527344,0,1,0.4477539,1,1
		S90.5527344,24,90,24z"/>
</g>
<g>
	<line fill="#FEE7AB" x1="90" y1="76" x2="30" y2="76"/>
	<path fill="#2A9FB4" d="M90,77H30c-0.5522461,0-1-0.4472656-1-1s0.4477539-1,1-1h60c0.5527344,0,1,0.4472656,1,1
		S90.5527344,77,90,77z"/>
</g>
<g>
	<line fill="#FEE7AB" x1="90" y1="88" x2="30" y2="88"/>
	<path fill="#2A9FB4" d="M90,89H30c-0.5522461,0-1-0.4472656-1-1s0.4477539-1,1-1h60c0.5527344,0,1,0.4472656,1,1
		S90.5527344,89,90,89z"/>
</g>
<g>
	<line fill="#FEE7AB" x1="90" y1="99" x2="30" y2="99"/>
	<path fill="#2A9FB4" d="M90,100H30c-0.5522461,0-1-0.4472656-1-1s0.4477539-1,1-1h60c0.5527344,0,1,0.4472656,1,1
		S90.5527344,100,90,100z"/>
</g>
<g>
	<line fill="#FEE7AB" x1="90" y1="112" x2="30" y2="112"/>
	<path fill="#2A9FB4" d="M90,113H30c-0.5522461,0-1-0.4472656-1-1s0.4477539-1,1-1h60c0.5527344,0,1,0.4472656,1,1
		S90.5527344,113,90,113z"/>
</g>
<g>
	<line fill="#FEE7AB" x1="90" y1="124" x2="30" y2="124"/>
	<path fill="#2A9FB4" d="M90,125H30c-0.5522461,0-1-0.4472656-1-1s0.4477539-1,1-1h60c0.5527344,0,1,0.4472656,1,1
		S90.5527344,125,90,125z"/>
</g>
<g>
</g>
<g>
</g>
<g>
</g>
<g>
</g>
<g>
</g>
<g>
</g>
</svg>
