<?xml version="1.0" encoding="utf-8"?>
<!-- Generator: Adobe Illustrator 16.2.0, SVG Export Plug-In . SVG Version: 6.00 Build 0)  -->
<!DOCTYPE svg PUBLIC "-//W3C//DTD SVG 1.1//EN" "http://www.w3.org/Graphics/SVG/1.1/DTD/svg11.dtd">
<svg version="1.1" id="Layer_1" xmlns="http://www.w3.org/2000/svg" xmlns:xlink="http://www.w3.org/1999/xlink" x="0px" y="0px"
	 width="27.2958984px" height="20.4501953px" viewBox="0 0 27.2958984 20.4501953"
	 enable-background="new 0 0 27.2958984 20.4501953" xml:space="preserve">
<path fill="#FBBC16" d="M16.1904297,11.2001953c-0.1601562-0.1708984-0.4101562-0.4609375-0.5507812-0.6503906l-0.1601562-0.2402344
	c-0.140625-0.1894531-0.4003906-0.2304688-0.5898438-0.0898438l-0.3808594,0.2890625
	c-0.1894531,0.140625-0.5097656,0.3505859-0.7089844,0.4707031l-0.859375,0.5
	c-0.2011719,0.1201172-0.5,0.3496094-0.671875,0.5097656l-0.4589844,0.4707031
	c-0.1601562,0.1601562-0.4609375,0.3789062-0.6699219,0.5l-2.9609375,1.5800781
	c-0.2089844,0.109375-0.5585938,0.2695312-0.7695312,0.359375l-4.25,1.6796875
	c-0.21875,0.0800781-0.5605469,0.2597656-0.75,0.390625l-1.2792969,0.8496094
	c-0.2011719,0.1308594-0.4707031,0.390625-0.5996094,0.5898438l-0.4414062,0.6308594
	c-0.1386719,0.1894531-0.109375,0.4794922,0.0507812,0.6494141l0.4589844,0.4599609
	c0.1699219,0.1601562,0.5,0.3007812,0.7304688,0.3007812h1.8007812c0.2402344,0,0.5996094-0.0800781,0.8105469-0.1806641
	l2.9492188-1.3701172c0.2089844-0.0996094,0.5195312-0.3105469,0.6894531-0.4697266l1.640625-1.5400391
	c0.1699219-0.1601562,0.4902344-0.3300781,0.7207031-0.3808594l0.359375-0.0791016
	c0.2304688-0.0498047,0.5898438-0.1708984,0.8203125-0.25l0.5292969-0.2197266
	c0.2207031-0.0800781,0.4707031-0.3300781,0.5605469-0.5507812l0.0703125-0.1396484
	c0.0898438-0.2197266,0.3085938-0.5205078,0.4785156-0.6699219l0.2910156-0.25
	c0.1796875-0.1494141,0.5-0.3408203,0.7089844-0.4404297l2.0097656-0.859375
	c0.2109375-0.0898438,0.4609375-0.3398438,0.5605469-0.5507812l0.1796875-0.4199219
	c0.1015625-0.2089844,0.0410156-0.5195312-0.1191406-0.6894531L16.1904297,11.2001953z"/>
<path fill="#FBBC16" d="M27.1689453,4.7900391c-0.1503906-0.0703125-0.4492188-0.0703125-0.6699219,0.0097656l-0.3886719,0.1298828
	c-0.2207031,0.0693359-0.5605469,0.0302734-0.7617188-0.1005859l-0.4785156-0.3300781
	c-0.2011719-0.1289062-0.4199219-0.4199219-0.5-0.6289062l-0.2402344-0.6601562
	c-0.0800781-0.2207031-0.1113281-0.5898438-0.0703125-0.8203125l0.0996094-0.5
	c0.0507812-0.2207031,0.0195312-0.5898438-0.0703125-0.8007812l-0.21875-0.5390625
	c-0.0800781-0.2207031-0.3300781-0.4609375-0.5507812-0.5302734s-0.4492188,0.0498047-0.5097656,0.2802734l-0.1699219,0.6396484
	c-0.0703125,0.2197266-0.0605469,0.5898438,0.0195312,0.7998047c0.0703125,0.2207031,0.1601562,0.5898438,0.2011719,0.8203125
	l0.1191406,0.7597656c0.0390625,0.2207031,0.0097656,0.5996094-0.0605469,0.8203125l-0.1289062,0.3896484
	c-0.0703125,0.2197266-0.3007812,0.5-0.5,0.6103516l-1.5214844,0.9003906
	c-0.1992188,0.1191406-0.4785156,0.3691406-0.6191406,0.5488281l-0.6894531,0.9199219
	c-0.140625,0.1806641-0.1914062,0.5205078-0.1113281,0.7304688l0.2402344,0.6699219
	c0.0800781,0.2207031,0.0410156,0.5507812-0.0996094,0.7402344l-0.1699219,0.2402344
	c-0.1289062,0.1894531-0.4003906,0.4599609-0.5800781,0.5996094l-0.5195312,0.4101562
	c-0.1894531,0.140625-0.1601562,0.3105469,0.0703125,0.3798828l0.109375,0.0302734
	c0.2304688,0.0703125,0.5996094,0.0703125,0.8203125,0.0097656l1.2988281-0.3203125
	c0.2304688-0.0595703,0.5507812-0.2294922,0.7304688-0.3896484l0.5605469-0.4892578
	c0.1699219-0.1601562,0.4589844-0.4101562,0.640625-0.5507812l2.3984375-1.9804688
	c0.1816406-0.1494141,0.4902344-0.3789062,0.6816406-0.5l0.75-0.46875c0.1894531-0.1308594,0.4492188-0.4003906,0.5585938-0.6005859
	l0.390625-0.7197266C27.3388672,5.0996094,27.3095703,4.8701172,27.1689453,4.7900391z"/>
<g>
</g>
<g>
</g>
<g>
</g>
<g>
</g>
<g>
</g>
<g>
</g>
</svg>
