<?xml version="1.0" encoding="utf-8"?>
<!-- Generator: Adobe Illustrator 16.2.0, SVG Export Plug-In . SVG Version: 6.00 Build 0)  -->
<!DOCTYPE svg PUBLIC "-//W3C//DTD SVG 1.1//EN" "http://www.w3.org/Graphics/SVG/1.1/DTD/svg11.dtd">
<svg version="1.1" id="Layer_1" xmlns="http://www.w3.org/2000/svg" xmlns:xlink="http://www.w3.org/1999/xlink" x="0px" y="0px"
	 width="6.8701172px" height="8.9716797px" viewBox="0 0 6.8701172 8.9716797" enable-background="new 0 0 6.8701172 8.9716797"
	 xml:space="preserve">
<path fill="#F9BB18" d="M5.2011719,4.8115234l0.5390625-0.2197266C5.9511719,4.5117188,6.25,4.2919922,6.4003906,4.1113281
	l0.1210938-0.1396484c0.1484375-0.1796875,0.2988281-0.5097656,0.3398438-0.7304688
	c0.0390625-0.2197266-0.0507812-0.5498047-0.1796875-0.7392578L6.5117188,2.2617188
	C6.3710938,2.0712891,6.3398438,1.7412109,6.4316406,1.53125l0.0585938-0.1494141
	C6.53125,1.2944336,6.7197266,0.7333984,6.7841797,0.625C6.5761719,0.3925781,6.5625,0.3271484,6.4316406,0l-0.75,0.2412109
	C5.4804688,0.2617188,5.2207031,0.3613281,5.1210938,0.4521484L4.7207031,0.921875
	c-0.109375,0.2001953-0.390625,0.4599609-0.640625,0.5898438L3.4902344,1.8017578L3.03125,2.1621094L2.8613281,2.3017578
	C2.7109375,2.4316406,2.4414062,2.5214844,2.1503906,2.3720703C2,2.3017578,1.8398438,2.3212891,1.8007812,2.3515625
	L1.4609375,2.8320312L1.3710938,3.03125l-0.5195312,0.75L0.75,3.8916016L0.3398438,4.5117188L0,5.3818359l0.5800781,0.3203125
	C0.7910156,5.8115234,1.0410156,6.0712891,1.1503906,6.28125l0.1503906,0.3007812
	c0.0996094,0.2099609,0.1601562,0.5,0.1191406,0.6396484C1.3808594,7.3720703,1.4804688,7.6318359,1.640625,7.8115234L2,8.2314453
	c0.1601562,0.1806641,0.4707031,0.3505859,0.7011719,0.390625l0.6289062,0.1191406
	C3.5,8.7714844,3.75,8.8720703,3.9414062,8.9716797l0.7597656-0.7304688
	c0.1992188-0.1796875,0.5703125-0.3691406,0.8398438-0.4091797l1.1503906-0.2001953
	c-0.0703125-0.0605469-0.140625-0.1201172-0.2011719-0.1796875L6.03125,6.9912109
	C5.8710938,6.8320312,5.5800781,6.5820312,5.390625,6.4414062L5.0117188,6.1513672
	c-0.1816406-0.1396484-0.3105469-0.4394531-0.28125-0.6699219l0.0097656-0.0898438
	C4.78125,5.1621094,4.9804688,4.9013672,5.2011719,4.8115234z"/>
<g>
</g>
<g>
</g>
<g>
</g>
<g>
</g>
<g>
</g>
<g>
</g>
</svg>
