<?xml version="1.0" encoding="utf-8"?>
<!-- Generator: Adobe Illustrator 16.2.0, SVG Export Plug-In . SVG Version: 6.00 Build 0)  -->
<!DOCTYPE svg PUBLIC "-//W3C//DTD SVG 1.1//EN" "http://www.w3.org/Graphics/SVG/1.1/DTD/svg11.dtd">
<svg version="1.1" id="Layer_1" xmlns="http://www.w3.org/2000/svg" xmlns:xlink="http://www.w3.org/1999/xlink" x="0px" y="0px"
	 width="214.9130859px" height="214.6679688px" viewBox="0 0 214.9130859 214.6679688"
	 enable-background="new 0 0 214.9130859 214.6679688" xml:space="preserve">
<path fill="#44BDD2" d="M187.4267578,35.6381836c39.640625,44.1201172,35.9707031,111.9799805-8.1992188,151.5795898
	c-44.1699219,39.5898438-112.1103516,35.9199219-151.7402344-8.1894531
	C-12.152832,134.9082031-8.4829102,67.0483398,35.6772461,27.4580078
	C79.847168-12.1416016,147.7871094-8.4716797,187.4267578,35.6381836z"/>
<g>
	<path fill="none" d="M159.8798828,201.0478516L123.2431641,1.1655273
		c-1.7832031-0.2636719-3.5722656-0.4804688-5.3652344-0.6542969l37.2109375,203.059082
		C156.7021484,202.7734375,158.2988281,201.9316406,159.8798828,201.0478516z"/>
	<path fill="none" d="M146.4755859,207.3642578L108.4775391,0.0087891c-1.7456055-0.0170898-3.4921875,0.0078125-5.237793,0.0751953
		l38.3178711,209.0556641C143.2080078,208.5888672,144.8476562,207.9970703,146.4755859,207.3642578z"/>
	<path fill="none" d="M153.2207031,204.46875L115.8105469,0.3256836c-1.7617188-0.137207-3.5268555-0.2290039-5.2929688-0.2797852
		l37.8525391,206.5595703C150,205.9355469,151.6171875,205.2236328,153.2207031,204.46875z"/>
	<path fill="none" d="M202.7548828,156.9736328L178.9785156,27.2246094
		c-2.0107422-1.7954102-4.0751953-3.503418-6.1884766-5.1230469l25.9960938,141.828125
		C200.2011719,161.6513672,201.5244141,159.3310547,202.7548828,156.9736328z"/>
	<path fill="none" d="M179.1884766,187.2519531L146.1865234,7.1923828
		c-1.8535156-0.7133789-3.7236328-1.3710938-5.6074219-1.9785156l34.0644531,185.8847656
		C176.1835938,189.8642578,177.7001953,188.5839844,179.1884766,187.2519531z"/>
	<path fill="none" d="M172.8671875,192.4980469L138.4228516,4.5400391c-1.8271484-0.546875-3.6679688-1.0410156-5.5175781-1.4897461
		l35.3330078,192.8081055C169.8027344,194.7841797,171.3466797,193.6660156,172.8671875,192.4980469z"/>
	<path fill="none" d="M185.3681641,181.2578125L154.0966797,10.6147461
		c-1.8857422-0.9067383-3.7910156-1.7617188-5.7177734-2.5527344l32.5498047,177.5913086
		C182.4589844,184.2216797,183.9394531,182.7568359,185.3681641,181.2578125z"/>
	<path fill="none" d="M191.3828125,174.3769531L162.1611328,14.9208984
		c-1.9150391-1.1313477-3.859375-2.1962891-5.8291016-3.2001953l30.7353516,167.7158203
		C188.5683594,177.7880859,190.0019531,176.0976562,191.3828125,174.3769531z"/>
	<path fill="none" d="M166.4287109,197.0751953L130.78125,2.5551758c-1.8066406-0.3999023-3.6220703-0.75-5.4443359-1.0556641
		L161.7207031,200C163.3085938,199.0703125,164.8779297,198.09375,166.4287109,197.0751953z"/>
	<path fill="none" d="M197.2050781,166.3984375L170.4365234,20.3491211
		c-1.9589844-1.4179688-3.9550781-2.7666016-5.9873047-4.0375977l28.5800781,155.9599609
		C194.4931641,170.3515625,195.8876953,168.3935547,197.2050781,166.3984375z"/>
	<path fill="none" d="M118.5927734,214.0888672L80.0029297,3.5400391c-1.6689453,0.4389648-3.3300781,0.9194336-4.9814453,1.4404297
		l38.3955078,209.5175781C115.1445312,214.4033203,116.8701172,214.2666016,118.5927734,214.0888672z"/>
	<path fill="none" d="M214.8496094,103.7988281l-5.7490234-31.3706055
		c-2.2539062-6.5595703-5.1689453-12.953125-8.7460938-19.081543l13.109375,71.5273438
		C214.6142578,117.9101562,215.078125,110.8496094,214.8496094,103.7988281z"/>
	<path fill="none" d="M111.4013672,214.5917969L73.1040039,5.6103516c-1.6494141,0.5551758-3.2880859,1.1513672-4.9155273,1.7890625
		l37.980957,207.2548828C107.9130859,214.6748047,109.6577148,214.6552734,111.4013672,214.5917969z"/>
	<path fill="none" d="M125.6923828,213.1171875L86.9951172,1.953125c-1.6894531,0.3256836-3.3725586,0.6923828-5.0488281,1.0996094
		l38.6386719,210.8125C122.2919922,213.65625,123.9941406,213.4072266,125.6923828,213.1171875z"/>
	<path fill="none" d="M104.1293945,214.6142578L66.2958984,8.1640625c-1.6323242,0.6757812-3.2514648,1.3935547-4.8569336,2.1542969
		l37.3911133,204C100.59375,214.4599609,102.3608398,214.5595703,104.1293945,214.6142578z"/>
	<path fill="none" d="M59.5722656,11.2236328C51.1064453,15.4375,43.0585938,20.840332,35.6772461,27.4580078
		c-44.1601562,39.590332-47.8300781,107.4501953-8.1899414,151.5703125
		c18.6367188,20.7431641,43.5341797,32.5400391,69.2758789,35.1035156L59.5722656,11.2236328z"/>
	<path fill="none" d="M139.6386719,209.7636719L101.2255859,0.184082c-1.7250977,0.0991211-3.4482422,0.2392578-5.168457,0.4213867
		l38.5922852,210.5869141C136.3212891,210.7578125,137.984375,210.28125,139.6386719,209.7636719z"/>
	<path fill="none" d="M212.4257812,130.2998047L197.4648438,48.675293
		c-2.1289062-3.2509766-4.4599609-6.4125977-6.9833984-9.4750977l18.7851562,102.5048828
		C210.53125,137.9550781,211.5849609,134.1474609,212.4257812,130.2998047z"/>
	<path fill="none" d="M207.9228516,145.4648438l-20.0292969-109.293457
		c-0.1572266-0.1772461-0.3085938-0.3569336-0.4667969-0.5332031c-1.9355469-2.1533203-3.9394531-4.2075195-6.0039062-6.1674805
		l22.8212891,124.5351562C205.5976562,151.2041016,206.8261719,148.3544922,207.9228516,145.4648438z"/>
	<path fill="none" d="M132.7060547,211.6796875L94.0664062,0.8354492c-1.7055664,0.2124023-3.4072266,0.4658203-5.1044922,0.7602539
		l38.6982422,211.1699219C129.3486328,212.4443359,131.0302734,212.0830078,132.7060547,211.6796875z"/>
	<path fill="#B4E2ED" d="M120.5849609,213.8652344l-38.6386719-210.8125
		c-0.6484375,0.1577148-1.296875,0.3173828-1.9433594,0.4873047l38.5898438,210.5488281
		C119.2578125,214.0205078,119.921875,213.9462891,120.5849609,213.8652344z"/>
	<path fill="#B4E2ED" d="M213.4638672,124.8740234l-13.109375-71.5273438
		c-0.9199219-1.5751953-1.8818359-3.1333008-2.8896484-4.6713867l14.9609375,81.6245117
		C212.8193359,128.4990234,213.1640625,126.6904297,213.4638672,124.8740234z"/>
	<path fill="#B4E2ED" d="M127.6601562,212.765625L88.9619141,1.5957031c-0.65625,0.1137695-1.3120117,0.2314453-1.9667969,0.3574219
		l38.6972656,211.1640625C126.3486328,213.0048828,127.0048828,212.8896484,127.6601562,212.765625z"/>
	<path fill="#B4E2ED" d="M209.1005859,72.4282227l5.7490234,31.3706055
		C214.5048828,93.1914062,212.5996094,82.6103516,209.1005859,72.4282227z"/>
	<path fill="#B4E2ED" d="M179.2275391,187.2177734c0.5751953-0.515625,1.1396484-1.0390625,1.7011719-1.5644531
		L148.3789062,8.0620117c-0.7285156-0.2983398-1.4589844-0.5874023-2.1923828-0.8696289l33.0019531,180.0595703
		C179.2011719,187.2402344,179.2148438,187.2294922,179.2275391,187.2177734z"/>
	<path fill="#B4E2ED" d="M113.4169922,214.4980469L75.0214844,4.9804688
		c-0.6411133,0.2021484-1.2792969,0.4155273-1.9174805,0.6298828l38.2973633,208.9814453
		C112.0732422,214.5673828,112.7451172,214.5341797,113.4169922,214.4980469z"/>
	<path fill="#B4E2ED" d="M98.8300781,214.3183594l-37.3911133-204c-0.6240234,0.2958984-1.246582,0.5966797-1.8666992,0.9052734
		l37.190918,202.9082031C97.4516602,214.2001953,98.140625,214.2626953,98.8300781,214.3183594z"/>
	<path fill="#B4E2ED" d="M106.1694336,214.6542969L68.1884766,7.3994141
		c-0.6328125,0.2480469-1.2636719,0.5039062-1.8925781,0.7646484l37.8334961,206.4501953
		C104.809082,214.6357422,105.4892578,214.6455078,106.1694336,214.6542969z"/>
	<path fill="#B4E2ED" d="M161.7207031,200L125.3369141,1.4995117c-0.6972656-0.1171875-1.3945312-0.2304688-2.09375-0.3339844
		l36.6367188,199.8823242C160.4951172,200.7041016,161.1103516,200.3574219,161.7207031,200z"/>
	<path fill="#B4E2ED" d="M198.7861328,163.9296875l-25.9960938-141.828125
		c-0.7773438-0.5961914-1.5625-1.1801758-2.3535156-1.7524414l26.7685547,146.0493164
		C197.7451172,165.5810547,198.2705078,164.7578125,198.7861328,163.9296875z"/>
	<path fill="#B4E2ED" d="M155.0888672,203.5703125L117.8779297,0.5112305
		C117.1884766,0.4443359,116.5,0.3793945,115.8105469,0.3256836L153.2207031,204.46875
		C153.8457031,204.1748047,154.46875,203.8769531,155.0888672,203.5703125z"/>
	<path fill="#B4E2ED" d="M187.0673828,179.4365234L156.3320312,11.7207031
		c-0.7412109-0.3779297-1.4863281-0.7460938-2.2353516-1.105957l31.2714844,170.6430664
		C185.9423828,180.6552734,186.5097656,180.0498047,187.0673828,179.4365234z"/>
	<path fill="#B4E2ED" d="M168.2382812,195.8583984L132.9052734,3.050293
		c-0.7070312-0.1713867-1.4140625-0.3383789-2.1240234-0.4951172l35.6474609,194.5200195
		C167.0341797,196.6757812,167.6376953,196.2705078,168.2382812,195.8583984z"/>
	<path fill="#B4E2ED" d="M193.0292969,172.2714844L164.4492188,16.3115234
		c-0.7578125-0.4736328-1.5205078-0.9370117-2.2880859-1.390625l29.2216797,159.4560547
		C191.9414062,173.6806641,192.4902344,172.9794922,193.0292969,172.2714844z"/>
	<path fill="#B4E2ED" d="M209.2666016,141.7050781L190.4814453,39.2001953
		c-0.8408203-1.0214844-1.703125-2.03125-2.5878906-3.0288086l20.0292969,109.293457
		C208.3955078,144.21875,208.8417969,142.9648438,209.2666016,141.7050781z"/>
	<path fill="#B4E2ED" d="M141.5576172,209.1396484L103.2397461,0.0839844
		c-0.671875,0.0258789-1.3432617,0.0615234-2.0141602,0.1000977l38.4130859,209.5795898
		C140.2802734,209.5634766,140.9189453,209.3525391,141.5576172,209.1396484z"/>
	<path fill="#B4E2ED" d="M134.6494141,211.1923828L96.0571289,0.6054688
		c-0.6640625,0.0703125-1.3276367,0.1474609-1.9907227,0.2299805l38.6396484,210.8442383
		C133.3544922,211.5234375,134.0029297,211.3613281,134.6494141,211.1923828z"/>
	<path fill="#B4E2ED" d="M174.6435547,191.0986328L140.5791016,5.2138672
		c-0.7167969-0.2314453-1.4355469-0.4575195-2.15625-0.6738281l34.4443359,187.9580078
		C173.4638672,192.0400391,174.0546875,191.5703125,174.6435547,191.0986328z"/>
	<path fill="#B4E2ED" d="M148.3701172,206.6054688L110.5175781,0.0458984
		c-0.6796875-0.0195312-1.3598633-0.0302734-2.0400391-0.0371094l37.9980469,207.3554688
		C147.109375,207.1171875,147.7402344,206.8642578,148.3701172,206.6054688z"/>
	<path fill="#B4E2ED" d="M204.2441406,154.0058594L181.4228516,29.4707031
		c-0.8046875-0.7646484-1.6210938-1.5107422-2.4443359-2.2460938l23.7763672,129.7490234
		C203.2675781,155.9902344,203.7636719,155.0009766,204.2441406,154.0058594z"/>
</g>
<g>
</g>
<g>
</g>
<g>
</g>
<g>
</g>
<g>
</g>
<g>
</g>
</svg>
