<?xml version="1.0" encoding="utf-8"?>
<!-- Generator: Adobe Illustrator 16.2.0, SVG Export Plug-In . SVG Version: 6.00 Build 0)  -->
<!DOCTYPE svg PUBLIC "-//W3C//DTD SVG 1.1//EN" "http://www.w3.org/Graphics/SVG/1.1/DTD/svg11.dtd">
<svg version="1.1" id="Layer_1" xmlns="http://www.w3.org/2000/svg" xmlns:xlink="http://www.w3.org/1999/xlink" x="0px" y="0px"
	 width="183px" height="145px" viewBox="0 0 183 145" enable-background="new 0 0 183 145" xml:space="preserve">
<path fill="none" stroke="#B3E2ED" stroke-width="29" stroke-miterlimit="10" d="M145.9511719,77.6005859
	c-0.7685547-12.4091797-10.2324219-22.6938477-22.4824219-24.449707c0.0009766-0.0834961,0.0019531-0.1669922,0.0019531-0.2509766
	c0-15.0878906-9.1591797-18.9042969-16.5185547-21.9711914c-3.84375-1.6020508-7.1640625-2.9858398-8.1494141-5.6582031
	c-0.7578125-2.0556641-0.1689453-4.9399414,1.7988281-8.8178711c0.1572266-0.3100586,0.1425781-0.6796875-0.0390625-0.9755859
	C100.3798828,15.1806641,100.0576172,15,99.7099609,15c-12.5356445,0-37.1098633,11.4443359-37.1098633,37.8999023
	c0,0.109375,0.0004883,0.2192383,0.0019531,0.3286133C49.2470703,53.7265625,38.4140625,64.1650391,37.4013672,77.546875
	C24.5717773,79.4501953,15,90.5175781,15,103.6298828C15,118.1708984,26.7890625,130,41.2797852,130h100.440918
	C156.2109375,130,168,118.1708984,168,103.6298828C168,90.6943359,158.5800781,79.6503906,145.9511719,77.6005859z"/>
<g>
	<g>
		<path fill-rule="evenodd" clip-rule="evenodd" fill="#B3E2ED" d="M16,103.6298828C16,117.640625,27.3198242,129,41.2797852,129
			h100.440918C155.6796875,129,167,117.640625,167,103.6298828c0-12.8994141-9.5898438-23.5498047-22.0097656-25.1591797
			c-0.3808594-12.7304688-10.1201172-23.1108398-22.5507812-24.440918c0.0205078-0.3798828,0.03125-0.75,0.03125-1.1298828
			c0-28.3500977-33.8408203-15.0698242-22.7607422-36.8999023c-12.0400391,0-36.1098633,10.9799805-36.1098633,36.8999023
			c0,0.4399414,0.0097656,0.8798828,0.0297852,1.3100586h-0.0297852c-13.5800781,0-24.6499023,10.7402344-25.25,24.2197266
			C25.7700195,79.890625,16,90.6201172,16,103.6298828z"/>
		<path fill="#2B9FB4" d="M141.7207031,130H41.2797852C26.7890625,130,15,118.1708984,15,103.6298828
			c0-13.1123047,9.5717773-24.1796875,22.4013672-26.0830078c1.0126953-13.3818359,11.8457031-23.8203125,25.2006836-24.3183594
			c-0.0014648-0.109375-0.0019531-0.2192383-0.0019531-0.3286133C62.6000977,26.4443359,87.1743164,15,99.7099609,15
			c0.3476562,0,0.6699219,0.1806641,0.8525391,0.4770508c0.1816406,0.2958984,0.1962891,0.6655273,0.0390625,0.9755859
			c-1.9677734,3.8779297-2.5566406,6.762207-1.7988281,8.8178711c0.9853516,2.6723633,4.3056641,4.0561523,8.1494141,5.6582031
			c7.359375,3.0668945,16.5185547,6.8833008,16.5185547,21.9711914c0,0.0839844-0.0009766,0.1674805-0.0019531,0.2509766
			c12.25,1.7558594,21.7138672,12.0405273,22.4824219,24.449707C158.5800781,79.6503906,168,90.6943359,168,103.6298828
			C168,118.1708984,156.2109375,130,141.7207031,130z M98.09375,17.0625
			c-12.2304688,0.9121094-33.4936523,11.8730469-33.4936523,35.8374023c0,0.4243164,0.0092773,0.8486328,0.0288086,1.2636719
			c0.0126953,0.2729492-0.0869141,0.5390625-0.2758789,0.7368164c-0.1884766,0.1977539-0.449707,0.3095703-0.7231445,0.3095703
			c-13.0478516,0-23.7001953,10.21875-24.2807617,23.2646484c-0.0219727,0.4902344-0.3959961,0.8916016-0.8837891,0.9482422
			C26.2280273,80.84375,17,91.2509766,17,103.6298828C17,117.0673828,27.8920898,128,41.2797852,128h100.440918
			C155.1083984,128,166,117.0673828,166,103.6298828c0-12.2158203-9.0878906-22.6054688-21.1386719-24.1669922
			c-0.4863281-0.0634766-0.8554688-0.4716797-0.8710938-0.9619141c-0.3613281-12.1020508-9.671875-22.1943359-21.6572266-23.4770508
			c-0.5283203-0.0561523-0.9208984-0.5170898-0.8925781-1.0478516c0.0195312-0.3618164,0.0302734-0.7143555,0.0302734-1.0761719
			c0-13.7543945-8.1220703-17.1391602-15.2871094-20.125c-4.0996094-1.7080078-7.9707031-3.3212891-9.2578125-6.8129883
			C96.0654297,23.6279297,96.4345703,20.7724609,98.09375,17.0625z"/>
	</g>
	<g>
		<g>
			<path fill-rule="evenodd" clip-rule="evenodd" fill="#B3E2ED" d="M110.9296875,74.1201172
				c0,5.3095703-2.6503906,7.0800781-7.0703125,7.0800781c-4.4091797,0-6.1796875-2.0703125-6.1796875-7.0800781"/>
			<path fill="#2B9FB4" d="M103.859375,82.2001953c-4.9658203,0-7.1796875-2.4921875-7.1796875-8.0800781
				c0-0.5527344,0.4472656-1,1-1s1,0.4472656,1,1c0,4.4892578,1.3554688,6.0800781,5.1796875,6.0800781
				c4.3115234,0,6.0703125-1.7617188,6.0703125-6.0800781c0-0.5527344,0.4472656-1,1-1s1,0.4472656,1,1
				C111.9296875,79.5576172,109.2900391,82.2001953,103.859375,82.2001953z"/>
		</g>
		<g>
			<path fill-rule="evenodd" clip-rule="evenodd" fill="#B3E2ED" d="M85.3198242,74.1201172
				c0,5.3095703-2.6499023,7.0800781-7.0698242,7.0800781c-4.4101562,0-6.1801758-2.0703125-6.1801758-7.0800781"/>
			<path fill="#2B9FB4" d="M78.25,82.2001953c-4.9658203,0-7.1801758-2.4921875-7.1801758-8.0800781c0-0.5527344,0.4477539-1,1-1
				s1,0.4472656,1,1c0,4.4892578,1.3554688,6.0800781,5.1801758,6.0800781c4.3110352,0,6.0698242-1.7617188,6.0698242-6.0800781
				c0-0.5527344,0.4477539-1,1-1s1,0.4472656,1,1C86.3198242,79.5576172,83.6801758,82.2001953,78.25,82.2001953z"/>
		</g>
	</g>
	<g>
		<path fill-rule="evenodd" clip-rule="evenodd" fill="#B3E2ED" d="M74.2797852,102.4394531
			c6.6201172-6.6289062,26.7905273-6.7792969,34.440918,0.890625"/>
		<path fill="#2B9FB4" d="M108.7207031,104.3300781c-0.2568359,0-0.5126953-0.0976562-0.7080078-0.2939453
			c-3.3925781-3.4003906-10.0664062-5.5146484-17.4174805-5.5166016c-0.0039062,0-0.0083008,0-0.0117188,0
			c-6.7705078,0-12.7456055,1.7724609-15.5961914,4.6269531c-0.390625,0.3896484-1.0234375,0.3896484-1.4140625,0.0009766
			c-0.3911133-0.390625-0.3911133-1.0234375-0.0009766-1.4150391c3.2607422-3.2646484,9.6196289-5.2128906,17.0107422-5.2128906
			c0.0043945,0,0.0083008,0,0.0126953,0c7.9824219,0.0019531,15.0224609,2.2841797,18.8330078,6.1044922
			c0.3896484,0.390625,0.3896484,1.0244141-0.0019531,1.4140625
			C109.2314453,104.2324219,108.9765625,104.3300781,108.7207031,104.3300781z"/>
	</g>
</g>
<g>
</g>
<g>
</g>
<g>
</g>
<g>
</g>
<g>
</g>
<g>
</g>
</svg>
