<?xml version="1.0" encoding="utf-8"?>
<!-- Generator: Adobe Illustrator 16.2.0, SVG Export Plug-In . SVG Version: 6.00 Build 0)  -->
<!DOCTYPE svg PUBLIC "-//W3C//DTD SVG 1.1//EN" "http://www.w3.org/Graphics/SVG/1.1/DTD/svg11.dtd">
<svg version="1.1" id="Layer_1" xmlns="http://www.w3.org/2000/svg" xmlns:xlink="http://www.w3.org/1999/xlink" x="0px" y="0px"
	 width="154.8603516px" height="79px" viewBox="0 0 154.8603516 79" enable-background="new 0 0 154.8603516 79"
	 xml:space="preserve">
<g>
	<path fill="#FEE7AB" d="M143.0498047,79H11.9501953C5.3608398,79,0,73.6484375,0,67.0703125V11.8100586
		C0,5.2978516,5.3291016,0,11.8798828,0h130.2402344c6.5410156,0,11.9326172,5.2919922,12.0205078,11.7963867l0.71875,55.2612305
		c0.0419922,3.1777344-1.1621094,6.171875-3.390625,8.4306641C149.2333984,77.7529297,146.2441406,79,143.0498047,79z M11.8798828,2
		C6.4321289,2,2,6.4008789,2,11.8100586v55.2602539C2,72.5458984,6.4638672,77,11.9501953,77h131.0996094
		c2.6542969,0,5.1386719-1.0361328,6.9951172-2.9169922c1.8496094-1.875,2.8496094-4.3603516,2.8144531-6.9990234
		l-0.71875-55.2607422C152.0683594,6.4067383,147.5722656,2,142.1201172,2H11.8798828z M129.2792969,74.2695312H26.7700195
		c-0.5512695,0-0.9990234-0.4462891-1-0.9980469L25.6201172,5.6723633c-0.0004883-0.265625,0.1044922-0.5209961,0.2919922-0.7089844
		s0.4423828-0.293457,0.7080078-0.293457h101.9296875c0.5478516,0,0.9941406,0.4414062,1,0.9892578l0.7294922,67.5996094
		c0.0029297,0.2666016-0.1015625,0.5244141-0.2890625,0.7138672
		C129.8027344,74.1630859,129.5458984,74.2695312,129.2792969,74.2695312z M27.7675781,72.2695312h100.5009766
		l-0.7080078-65.5996094H27.6225586L27.7675781,72.2695312z M142.0400391,47.4599609
		c-4.4638672,0-8.1337891-3.6240234-8.1806641-8.0795898c-0.0263672-2.1464844,0.7890625-4.1713867,2.2978516-5.6992188
		c1.5166016-1.5356445,3.5458984-2.3813477,5.7128906-2.3813477c4.4580078,0,8.1328125,3.6142578,8.1904297,8.0571289
		c0.0273438,2.159668-0.7910156,4.1918945-2.3027344,5.7231445
		C146.2421875,46.6142578,144.2119141,47.4599609,142.0400391,47.4599609z M141.8701172,33.2998047
		c-1.6279297,0-3.1523438,0.6347656-4.2900391,1.7871094c-1.1298828,1.144043-1.7412109,2.6606445-1.7207031,4.2705078
		c0.0351562,3.3662109,2.8076172,6.1025391,6.1806641,6.1025391c1.6328125,0,3.1582031-0.6337891,4.2949219-1.7851562
		c1.1328125-1.1474609,1.7460938-2.671875,1.7255859-4.2919922
		C148.0166016,36.0288086,145.2402344,33.2998047,141.8701172,33.2998047z"/>
	<path fill="#FEE7AB" d="M16.3798828,45.7207031l-0.0200195-13.4506836C16.3598633,31.5698242,16.9501953,31,17.6699219,31
		c0.7202148,0,1.3100586,0.5698242,1.3100586,1.2700195L19,45.7207031C19,46.4296875,18.4199219,47,17.6899414,47
		C16.9702148,47,16.3798828,46.4296875,16.3798828,45.7207031z"/>
	<path fill="#FEE7AB" d="M8,39.5c0-1.3798828,1.1201172-2.5,2.4902344-2.5C11.8798828,37,13,38.1201172,13,39.5
		S11.8798828,42,10.5,42S8,40.8798828,8,39.5z"/>
</g>
<g>
</g>
<g>
</g>
<g>
</g>
<g>
</g>
<g>
</g>
<g>
</g>
</svg>
