<?xml version="1.0" encoding="utf-8"?>
<!-- Generator: Adobe Illustrator 16.2.0, SVG Export Plug-In . SVG Version: 6.00 Build 0)  -->
<!DOCTYPE svg PUBLIC "-//W3C//DTD SVG 1.1//EN" "http://www.w3.org/Graphics/SVG/1.1/DTD/svg11.dtd">
<svg version="1.1" id="Layer_1" xmlns="http://www.w3.org/2000/svg" xmlns:xlink="http://www.w3.org/1999/xlink" x="0px" y="0px"
	 width="187px" height="187px" viewBox="0 0 187 187" enable-background="new 0 0 187 187" xml:space="preserve">
<path fill="#FEE7AB" d="M81.6899414,74.7099609c-2.8398438,0-5.1499023-2.3100586-5.1499023-5.1499023
	c0-2.8344727,2.3100586-5.1401367,5.1499023-5.1401367c2.8344727,0,5.1401367,2.3056641,5.1401367,5.1401367
	C86.8300781,72.3999023,84.5244141,74.7099609,81.6899414,74.7099609z M81.6899414,66.4199219
	c-1.7368164,0-3.1499023,1.4086914-3.1499023,3.1401367c0,1.7368164,1.4130859,3.1499023,3.1499023,3.1499023
	c1.7314453,0,3.1401367-1.4130859,3.1401367-3.1499023C84.8300781,67.8286133,83.4213867,66.4199219,81.6899414,66.4199219z"/>
<path fill="#FEE7AB" d="M48.6401367,107.2207031c-2.8344727,0-5.1401367-2.3056641-5.1401367-5.140625
	s2.3056641-5.140625,5.1401367-5.140625c2.8339844,0,5.1396484,2.3056641,5.1396484,5.140625
	S51.4741211,107.2207031,48.6401367,107.2207031z M48.6401367,98.9394531c-1.7314453,0-3.1401367,1.4091797-3.1401367,3.140625
	s1.4086914,3.140625,3.1401367,3.140625s3.1396484-1.4091797,3.1396484-3.140625S50.371582,98.9394531,48.6401367,98.9394531z"/>
<path fill="#FEE7AB" d="M98.8496094,117.9501953c-2.8339844,0-5.1396484-2.3056641-5.1396484-5.1396484
	c0-2.8349609,2.3056641-5.140625,5.1396484-5.140625c2.8349609,0,5.140625,2.3056641,5.140625,5.140625
	C103.9902344,115.6445312,101.6845703,117.9501953,98.8496094,117.9501953z M98.8496094,109.6699219
	c-1.7314453,0-3.1396484,1.4091797-3.1396484,3.140625s1.4082031,3.1396484,3.1396484,3.1396484
	s3.140625-1.4082031,3.140625-3.1396484S100.5810547,109.6699219,98.8496094,109.6699219z"/>
<path fill="#FEE7AB" d="M160.3300781,139.6796875c-2.8398438,0-5.1503906-2.3056641-5.1503906-5.1396484
	c0-2.8398438,2.3105469-5.1494141,5.1503906-5.1494141c2.8349609,0,5.140625,2.3095703,5.140625,5.1494141
	C165.4707031,137.3740234,163.1650391,139.6796875,160.3300781,139.6796875z M160.3300781,131.390625
	c-1.7373047,0-3.1503906,1.4130859-3.1503906,3.1494141c0,1.7314453,1.4130859,3.1396484,3.1503906,3.1396484
	c1.7314453,0,3.140625-1.4082031,3.140625-3.1396484C163.4707031,132.8037109,162.0615234,131.390625,160.3300781,131.390625z"/>
<path fill="#FEE7AB" d="M68.8701172,94.2202148c-2.8398438,0-5.1499023-2.3056641-5.1499023-5.1401367
	s2.3100586-5.1401367,5.1499023-5.1401367c2.8339844,0,5.1396484,2.3056641,5.1396484,5.1401367
	S71.7041016,94.2202148,68.8701172,94.2202148z M68.8701172,85.9399414c-1.7368164,0-3.1499023,1.4086914-3.1499023,3.1401367
	s1.4130859,3.1401367,3.1499023,3.1401367c1.7314453,0,3.1396484-1.4086914,3.1396484-3.1401367
	S70.6015625,85.9399414,68.8701172,85.9399414z"/>
<path fill="#FEE7AB" d="M115.390625,111.8496094c-2.8349609,0-5.140625-2.3056641-5.140625-5.1396484
	c0-2.8398438,2.3056641-5.1494141,5.140625-5.1494141c2.8330078,0,5.1386719,2.3095703,5.1386719,5.1494141
	C120.5292969,109.5439453,118.2236328,111.8496094,115.390625,111.8496094z M115.390625,103.5605469
	c-1.7314453,0-3.140625,1.4130859-3.140625,3.1494141c0,1.7314453,1.4091797,3.1396484,3.140625,3.1396484
	c1.7304688,0,3.1386719-1.4082031,3.1386719-3.1396484C118.5292969,104.9736328,117.1210938,103.5605469,115.390625,103.5605469z"/>
<path fill="#FEE7AB" d="M66.1801758,117.9501953c-2.8344727,0-5.1401367-2.3056641-5.1401367-5.1396484
	c0-2.8349609,2.3056641-5.140625,5.1401367-5.140625c2.8339844,0,5.1396484,2.3056641,5.1396484,5.140625
	C71.3198242,115.6445312,69.0141602,117.9501953,66.1801758,117.9501953z M66.1801758,109.6699219
	c-1.7314453,0-3.1401367,1.4091797-3.1401367,3.140625s1.4086914,3.1396484,3.1401367,3.1396484
	s3.1396484-1.4082031,3.1396484-3.1396484S67.9116211,109.6699219,66.1801758,109.6699219z"/>
<path fill="#FEE7AB" d="M119.5292969,47.0698242c-2.8330078,0-5.1386719-2.3056641-5.1386719-5.1396484
	c0-2.8344727,2.3056641-5.1401367,5.1386719-5.1401367c2.8398438,0,5.1503906,2.3056641,5.1503906,5.1401367
	C124.6796875,44.7641602,122.3691406,47.0698242,119.5292969,47.0698242z M119.5292969,38.7900391
	c-1.7304688,0-3.1386719,1.4086914-3.1386719,3.1401367s1.4082031,3.1396484,3.1386719,3.1396484
	c1.7373047,0,3.1503906-1.4082031,3.1503906-3.1396484S121.2666016,38.7900391,119.5292969,38.7900391z"/>
<path fill="#FEE7AB" d="M140.5703125,80.6499023c-2.8349609,0-5.140625-2.3100586-5.140625-5.1499023
	c0-2.8344727,2.3056641-5.1401367,5.140625-5.1401367c2.8339844,0,5.1396484,2.3056641,5.1396484,5.1401367
	C145.7099609,78.3398438,143.4042969,80.6499023,140.5703125,80.6499023z M140.5703125,72.3598633
	c-1.7314453,0-3.140625,1.4086914-3.140625,3.1401367c0,1.7368164,1.4091797,3.1499023,3.140625,3.1499023
	s3.1396484-1.4130859,3.1396484-3.1499023C143.7099609,73.7685547,142.3017578,72.3598633,140.5703125,72.3598633z"/>
<path fill="#FEE7AB" d="M55.4501953,80.6499023c-2.8344727,0-5.1401367-2.3100586-5.1401367-5.1499023
	c0-2.8344727,2.3056641-5.1401367,5.1401367-5.1401367c2.8339844,0,5.1396484,2.3056641,5.1396484,5.1401367
	C60.5898438,78.3398438,58.2841797,80.6499023,55.4501953,80.6499023z M55.4501953,72.3598633
	c-1.7314453,0-3.1401367,1.4086914-3.1401367,3.1401367c0,1.7368164,1.4086914,3.1499023,3.1401367,3.1499023
	S58.5898438,77.2368164,58.5898438,75.5C58.5898438,73.7685547,57.1816406,72.3598633,55.4501953,72.3598633z"/>
<path fill="#FEE7AB" d="M77.1201172,139.6796875c-2.8398438,0-5.1499023-2.3056641-5.1499023-5.1396484
	c0-2.8398438,2.3100586-5.1494141,5.1499023-5.1494141c2.8339844,0,5.1396484,2.3095703,5.1396484,5.1494141
	C82.2597656,137.3740234,79.9541016,139.6796875,77.1201172,139.6796875z M77.1201172,131.390625
	c-1.7368164,0-3.1499023,1.4130859-3.1499023,3.1494141c0,1.7314453,1.4130859,3.1396484,3.1499023,3.1396484
	c1.7314453,0,3.1396484-1.4082031,3.1396484-3.1396484C80.2597656,132.8037109,78.8515625,131.390625,77.1201172,131.390625z"/>
<path fill="#FEE7AB" d="M40.3500977,124.5c-2.8344727,0-5.1401367-2.3105469-5.1401367-5.1503906
	c0-2.8339844,2.3056641-5.1396484,5.1401367-5.1396484c2.8398438,0,5.1499023,2.3056641,5.1499023,5.1396484
	C45.5,122.1894531,43.1899414,124.5,40.3500977,124.5z M40.3500977,116.2099609
	c-1.7314453,0-3.1401367,1.4082031-3.1401367,3.1396484c0,1.7373047,1.4086914,3.1503906,3.1401367,3.1503906
	C42.0869141,122.5,43.5,121.0869141,43.5,119.3496094C43.5,117.6181641,42.0869141,116.2099609,40.3500977,116.2099609z"/>
<path fill="#FEE7AB" d="M126.9003906,162.3203125c-2.8349609,0-5.140625-2.3105469-5.140625-5.1503906
	c0-2.8349609,2.3056641-5.140625,5.140625-5.140625c2.8398438,0,5.1494141,2.3056641,5.1494141,5.140625
	C132.0498047,160.0097656,129.7402344,162.3203125,126.9003906,162.3203125z M126.9003906,154.0292969
	c-1.7314453,0-3.140625,1.4091797-3.140625,3.140625c0,1.7373047,1.4091797,3.1503906,3.140625,3.1503906
	c1.7363281,0,3.1494141-1.4130859,3.1494141-3.1503906C130.0498047,155.4384766,128.6367188,154.0292969,126.9003906,154.0292969z"
	/>
<path fill="#FEE7AB" d="M140.5703125,128.640625c-2.8349609,0-5.140625-2.3056641-5.140625-5.140625
	c0-2.8398438,2.3056641-5.1503906,5.140625-5.1503906c2.8339844,0,5.1396484,2.3105469,5.1396484,5.1503906
	C145.7099609,126.3349609,143.4042969,128.640625,140.5703125,128.640625z M140.5703125,120.3496094
	c-1.7314453,0-3.140625,1.4130859-3.140625,3.1503906c0,1.7314453,1.4091797,3.140625,3.140625,3.140625
	s3.1396484-1.4091797,3.1396484-3.140625C143.7099609,121.7626953,142.3017578,120.3496094,140.5703125,120.3496094z"/>
<path fill="#FEE7AB" d="M164.4707031,85.9399414c-2.8349609,0-5.140625-2.3100586-5.140625-5.1499023
	c0-2.8344727,2.3056641-5.1401367,5.140625-5.1401367c2.8330078,0,5.1386719,2.3056641,5.1386719,5.1401367
	C169.609375,83.6298828,167.3037109,85.9399414,164.4707031,85.9399414z M164.4707031,77.6499023
	c-1.7314453,0-3.140625,1.4086914-3.140625,3.1401367c0,1.7368164,1.4091797,3.1499023,3.140625,3.1499023
	c1.7304688,0,3.1386719-1.4130859,3.1386719-3.1499023C167.609375,79.0585938,166.2011719,77.6499023,164.4707031,77.6499023z"/>
<path fill="#FEE7AB" d="M36.2099609,55.3598633c-2.8344727,0-5.1401367-2.3100586-5.1401367-5.1499023
	c0-2.8344727,2.3056641-5.1401367,5.1401367-5.1401367s5.1401367,2.3056641,5.1401367,5.1401367
	C41.3500977,53.0498047,39.0444336,55.3598633,36.2099609,55.3598633z M36.2099609,47.0698242
	c-1.7314453,0-3.1401367,1.4086914-3.1401367,3.1401367c0,1.7368164,1.4086914,3.1499023,3.1401367,3.1499023
	s3.1401367-1.4130859,3.1401367-3.1499023C39.3500977,48.4785156,37.9414062,47.0698242,36.2099609,47.0698242z"/>
<path fill="#FEE7AB" d="M21.6801758,113.8105469c-2.8344727,0-5.1401367-2.3056641-5.1401367-5.140625
	s2.3056641-5.140625,5.1401367-5.140625c2.8398438,0,5.1499023,2.3056641,5.1499023,5.140625
	S24.5200195,113.8105469,21.6801758,113.8105469z M21.6801758,105.5292969c-1.7314453,0-3.1401367,1.4091797-3.1401367,3.140625
	s1.4086914,3.140625,3.1401367,3.140625c1.7368164,0,3.1499023-1.4091797,3.1499023-3.140625
	S23.4169922,105.5292969,21.6801758,105.5292969z"/>
<path fill="#FEE7AB" d="M51.3100586,158.1699219c-2.8398438,0-5.1499023-2.3056641-5.1499023-5.140625
	c0-2.8330078,2.3100586-5.1386719,5.1499023-5.1386719c2.8344727,0,5.1401367,2.3056641,5.1401367,5.1386719
	C56.4501953,155.8642578,54.1445312,158.1699219,51.3100586,158.1699219z M51.3100586,149.890625
	c-1.7368164,0-3.1499023,1.4082031-3.1499023,3.1386719c0,1.7314453,1.4130859,3.140625,3.1499023,3.140625
	c1.7314453,0,3.1401367-1.4091797,3.1401367-3.140625C54.4501953,151.2988281,53.0415039,149.890625,51.3100586,149.890625z"/>
<path fill="#FEE7AB" d="M29.9316406,138.2978516c-0.1108398,0-0.2270508-0.0029297-0.3466797-0.0097656
	c-3.6079102-0.1992188-5.5947266-3.2529297-5.5947266-8.5986328c0-3.7001953,2.9262695-7.1982422,6.0219727-7.1982422
	c0.3085938,0,0.6162109,0.0361328,0.9150391,0.1054688c1.059082,0.2431641,1.5424805,0.8994141,1.7607422,1.4072266
	c0.5375977,1.25,0.019043,2.9384766-0.4912109,4.1025391l7.1230469,1.3007812
	c0.2944336,0.0537109,0.5498047,0.2363281,0.6948242,0.4980469c0.1455078,0.2626953,0.1655273,0.5751953,0.0551758,0.8544922
	l-1.8999023,4.7890625c-0.1899414,0.4775391-0.7084961,0.734375-1.2060547,0.5917969l-3.746582-1.0771484
	c0.0239258,0.6484375-0.0834961,1.3720703-0.503418,1.9902344C32.3276367,137.6210938,31.53125,138.2978516,29.9316406,138.2978516z
	 M30.012207,124.4912109c-1.9545898,0-4.0219727,2.671875-4.0219727,5.1982422c0,2.9189453,0.6425781,6.4326172,3.7050781,6.6025391
	c0.081543,0.0039062,0.1606445,0.0058594,0.2363281,0.0058594c0.3989258,0,0.918457-0.0634766,1.1269531-0.3671875
	c0.3237305-0.4726562,0.0927734-1.4951172-0.0703125-1.9160156c-0.1367188-0.3544922-0.0615234-0.7578125,0.1948242-1.0371094
	c0.2563477-0.2802734,0.6474609-0.3945312,1.0131836-0.2880859l4.4487305,1.2783203l1.1157227-2.8125l-7.2402344-1.3222656
	c-0.3208008-0.0585938-0.5932617-0.2705078-0.7290039-0.5673828c-0.1362305-0.296875-0.1186523-0.6416016,0.046875-0.9228516
	c0.5908203-1.0078125,1.3212891-2.8320312,1.012207-3.5488281c-0.0292969-0.0673828-0.078125-0.1806641-0.3745117-0.2490234
	C30.3232422,124.5097656,30.168457,124.4912109,30.012207,124.4912109z"/>
<path fill="#FEE7AB" d="M120.6210938,91.6484375c-0.1103516,0-0.2265625-0.003418-0.3457031-0.0097656
	c-3.6025391-0.1992188-5.5859375-3.2563477-5.5859375-8.6088867c0-3.6987305,2.9267578-7.1958008,6.0224609-7.1958008
	c0.3046875,0,0.6074219,0.0341797,0.9023438,0.1015625c1.0654297,0.2485352,1.5478516,0.9072266,1.765625,1.4160156
	c0.5351562,1.2514648,0.0166016,2.9345703-0.4921875,4.0961914l7.1328125,1.309082
	c0.2949219,0.0537109,0.5498047,0.2373047,0.6943359,0.5c0.1455078,0.262207,0.1650391,0.5761719,0.0537109,0.8544922
	l-1.9101562,4.7797852c-0.1904297,0.4750977-0.7138672,0.7329102-1.203125,0.590332l-3.7480469-1.0708008
	c0.0234375,0.6494141-0.0830078,1.3745117-0.5039062,1.9926758
	C123.0175781,90.9716797,122.2207031,91.6484375,120.6210938,91.6484375z M120.7119141,77.8339844
	c-1.9550781,0-4.0224609,2.6704102-4.0224609,5.1958008c0,2.9233398,0.6416016,6.4433594,3.6953125,6.6118164
	c0.0820312,0.0043945,0.1611328,0.0068359,0.2363281,0.0068359c0.3994141,0,0.9189453-0.0639648,1.1269531-0.3676758
	c0.3242188-0.472168,0.0927734-1.4951172-0.0703125-1.9165039c-0.1367188-0.3540039-0.0615234-0.7568359,0.1943359-1.0371094
	c0.2548828-0.2797852,0.6474609-0.3945312,1.0117188-0.2885742l4.4521484,1.2719727l1.1220703-2.8071289l-7.2480469-1.3300781
	c-0.3212891-0.0585938-0.5927734-0.2709961-0.7285156-0.5678711s-0.1181641-0.6416016,0.0478516-0.9228516
	c0.5898438-1.0043945,1.3193359-2.8256836,1.0117188-3.5449219c-0.0302734-0.0688477-0.0791016-0.184082-0.3779297-0.2539062
	C121.0195312,77.8510742,120.8662109,77.8339844,120.7119141,77.8339844z"/>
<path fill="#FEE7AB" d="M140.7304688,114.25c-0.2363281,0-0.4726562-0.0830078-0.6621094-0.2509766l-2.9267578-2.5878906
	c-0.4433594,1.0126953-1.2646484,1.9423828-2.65625,1.9423828c-0.6171875,0-1.2910156-0.1962891-2.0039062-0.5849609
	c-3.1738281-1.7392578-3.6503906-5.3505859-1.34375-10.1708984c1.1953125-2.5126953,3.9511719-4.3378906,6.5517578-4.3378906
	c1.0517578,0,2.0029297,0.3134766,2.7519531,0.90625c0.8583984,0.6845703,1.0117188,1.4882812,0.9892578,2.0429688
	c-0.0556641,1.3603516-1.2480469,2.6572266-2.2089844,3.4863281l5.8740234,4.2441406
	c0.2421875,0.1757812,0.3945312,0.4511719,0.4121094,0.75c0.0185547,0.2988281-0.0986328,0.5908203-0.3183594,0.7939453
	l-3.7792969,3.5C141.21875,114.1611328,140.9746094,114.25,140.7304688,114.25z M136.5800781,108.5800781
	c0.2392578,0,0.4765625,0.0859375,0.6621094,0.2509766l3.4726562,3.0703125l2.2197266-2.0556641l-5.9707031-4.3144531
	c-0.2646484-0.1914062-0.4189453-0.5-0.4130859-0.8271484c0.0048828-0.3261719,0.1699219-0.6298828,0.4404297-0.8125
	c0.9658203-0.6523438,2.4101562-1.9814453,2.4404297-2.7646484c0.0029297-0.0703125,0.0087891-0.2011719-0.234375-0.3945312
	c-0.3945312-0.3125-0.9033203-0.4726562-1.5078125-0.4726562c-1.8085938,0-3.8935547,1.4052734-4.7460938,3.1992188
	c-1.2607422,2.6328125-2.1962891,6.0791016,0.4970703,7.5546875c0.515625,0.2802734,0.8535156,0.3398438,1.0449219,0.3398438
	c0.9150391,0,1.0957031-1.8222656,1.0966797-1.8408203c0.0263672-0.3808594,0.265625-0.7128906,0.6181641-0.8574219
	C136.3232422,108.6044922,136.4521484,108.5800781,136.5800781,108.5800781z"/>
<path fill="#FEE7AB" d="M77.9897461,56.7368164L77.9897461,56.7368164c-0.3046875,0-0.6083984-0.0341797-0.902832-0.1020508
	c-1.0629883-0.2446289-1.5463867-0.9008789-1.7646484-1.4086914c-0.5380859-1.2509766-0.0185547-2.9399414,0.4916992-4.1040039
	l-7.1245117-1.3085938c-0.2944336-0.0537109-0.5493164-0.2373047-0.6943359-0.4990234
	c-0.1450195-0.262207-0.1650391-0.5751953-0.0541992-0.8535156l1.8999023-4.7802734
	c0.1889648-0.4775391,0.7080078-0.7348633,1.2041016-0.5922852l3.7475586,1.0708008
	c-0.0239258-0.6494141,0.0830078-1.3740234,0.503418-1.9921875c0.4135742-0.6074219,1.2788086-1.3334961,3.1293945-1.2353516
	c3.6020508,0.2084961,5.5844727,3.265625,5.5844727,8.6083984c0,1.7060547-0.6494141,3.4887695-1.7817383,4.8901367
	C81.0439453,55.8959961,79.4990234,56.7368164,77.9897461,56.7368164z M70.2495117,48.0668945l7.2412109,1.3295898
	c0.3208008,0.0585938,0.5927734,0.2709961,0.7285156,0.5673828c0.1357422,0.296875,0.1181641,0.6416016-0.0473633,0.9228516
	c-0.5908203,1.0073242-1.3212891,2.8325195-1.012207,3.5498047c0.0292969,0.0673828,0.078125,0.1806641,0.3745117,0.2490234
	c0.9970703,0.2290039,2.2099609-0.3632812,3.1381836-1.512207c0.8500977-1.0522461,1.3374023-2.3764648,1.3374023-3.6333008
	c0-2.918457-0.6416016-6.4350586-3.6972656-6.6113281c-0.4946289-0.0258789-1.112793,0-1.3613281,0.3608398
	c-0.3237305,0.4726562-0.0927734,1.4951172,0.0703125,1.9165039c0.1362305,0.3535156,0.0620117,0.7563477-0.1938477,1.0366211
	c-0.2563477,0.2797852-0.6474609,0.3935547-1.0126953,0.2885742l-4.449707-1.2714844L70.2495117,48.0668945z"/>
<path fill="#FEE7AB" d="M163.7314453,116.2539062c-1.8857422,0-4.0175781-0.9394531-6.3359375-2.7929688
	c-1.7529297-1.40625-2.8789062-3.7714844-2.8720703-6.0273438c0.0058594-1.6152344,0.5976562-2.9707031,1.6660156-3.8173828
	c0.4912109-0.3857422,1.0185547-0.5810547,1.5722656-0.5810547c1.6328125,0,2.8457031,1.7333984,3.5253906,3.0332031
	l5.4785156-4.7441406c0.2255859-0.1972656,0.5283203-0.2802734,0.8242188-0.2294922
	c0.2949219,0.0507812,0.5517578,0.2314453,0.7001953,0.4921875l2.5400391,4.4804688
	c0.2529297,0.4462891,0.1269531,1.0126953-0.2919922,1.3095703l-3.1835938,2.2529297
	c0.5400391,0.3994141,1.0546875,0.9589844,1.2617188,1.7089844c0.1943359,0.7011719,0.1767578,1.8154297-1.0126953,3.1396484
	C166.546875,115.65625,165.2441406,116.2539062,163.7314453,116.2539062z M157.7617188,105.0351562
	c-0.09375,0-0.2050781,0.0507812-0.3320312,0.1503906c-0.7832031,0.6201172-0.9042969,1.6787109-0.90625,2.2539062
	c-0.0048828,1.6455078,0.8476562,3.4375,2.1220703,4.4599609c1.9267578,1.5400391,3.6855469,2.3544922,5.0859375,2.3544922
	c0.9335938,0,1.7128906-0.3632812,2.3837891-1.1113281c0.3222656-0.3583984,0.6835938-0.8701172,0.5742188-1.2675781
	c-0.1503906-0.5546875-1.1083984-1.0214844-1.5478516-1.1611328c-0.3623047-0.1142578-0.6298828-0.4248047-0.6884766-0.7998047
	s0.0986328-0.7509766,0.4082031-0.9707031l3.7822266-2.6767578l-1.4912109-2.6318359l-5.5683594,4.8212891
	c-0.2460938,0.2128906-0.5791016,0.2910156-0.8984375,0.2138672c-0.3164062-0.0800781-0.5742188-0.3095703-0.6904297-0.6142578
	C159.4511719,106.6298828,158.3808594,105.0351562,157.7617188,105.0351562z"/>
<path fill="#FEE7AB" d="M150.9101562,63.8100586c-2.2441406,0-4.6015625-1.1391602-6.0058594-2.9018555
	c-1.0068359-1.2636719-1.3935547-2.6918945-1.0888672-4.0214844c0.2910156-1.2680664,1.2470703-1.9946289,2.6230469-1.9946289
	c0.9863281,0,2.0732422,0.3710938,2.8886719,0.7265625l1.3095703-7.1386719
	c0.0537109-0.2949219,0.2373047-0.5498047,0.4990234-0.6948242c0.2636719-0.1450195,0.5761719-0.1640625,0.8535156-0.0541992
	l4.7802734,1.8999023c0.4775391,0.1894531,0.7333984,0.7099609,0.5927734,1.2036133l-1.0722656,3.7587891
	c0.9746094-0.0283203,1.8457031,0.2602539,2.4169922,0.8637695c0.6044922,0.6391602,0.8779297,1.5708008,0.8105469,2.7685547
	C159.3095703,61.8276367,156.2529297,63.8100586,150.9101562,63.8100586z M146.4384766,56.8920898
	c-0.5722656,0-0.6220703,0.2148438-0.6738281,0.4418945c-0.2236328,0.9765625,0.3447266,1.8774414,0.703125,2.3276367
	c1.0244141,1.2851562,2.8095703,2.1484375,4.4423828,2.1484375c2.9179688,0,6.4345703-0.6416016,6.6113281-3.6977539
	c0.0332031-0.6074219-0.0615234-1.0629883-0.2675781-1.2807617c-0.1513672-0.1601562-0.4160156-0.2416992-0.7871094-0.2416992
	c-0.6083984,0-1.2138672,0.2280273-1.2197266,0.2304688c-0.3544922,0.1376953-0.7558594,0.0664062-1.0390625-0.1894531
	c-0.28125-0.2553711-0.3945312-0.6489258-0.2900391-1.0151367l1.2724609-4.4604492l-2.8066406-1.1157227l-1.3300781,7.2504883
	c-0.0585938,0.3212891-0.2705078,0.5927734-0.5673828,0.7285156c-0.296875,0.137207-0.6396484,0.1191406-0.9228516-0.0463867
	C149.0517578,57.6713867,147.4921875,56.8920898,146.4384766,56.8920898z"/>
<path fill="#FEE7AB" d="M72.8701172,167.2001953c-0.0561523,0-0.1123047-0.0048828-0.168457-0.0146484
	c-0.2949219-0.0498047-0.5517578-0.2294922-0.7001953-0.4902344l-2.550293-4.4697266
	c-0.2548828-0.4462891-0.1289062-1.0146484,0.2915039-1.3115234l3.190918-2.2548828
	c-0.5385742-0.3994141-1.0527344-0.9580078-1.2602539-1.7070312c-0.1943359-0.7011719-0.1762695-1.8144531,1.0126953-3.1396484
	c2.3725586-2.6523438,6.0283203-2.3339844,10.2080078,1.0058594c1.7597656,1.4189453,2.8857422,3.7939453,2.8720703,6.0537109
	c-0.0097656,1.6074219-0.6020508,2.9550781-1.6674805,3.7939453c-0.487793,0.3857422-1.0175781,0.5820312-1.5727539,0.5820312
	c-1.6328125,0-2.8447266-1.734375-3.5239258-3.0351562l-5.4770508,4.7431641
	C73.3417969,167.1142578,73.1088867,167.2001953,72.8701172,167.2001953z M71.6381836,162.0234375l1.4975586,2.6240234
	l5.5693359-4.8232422c0.2470703-0.2138672,0.5820312-0.2910156,0.8994141-0.2138672
	c0.3164062,0.0800781,0.5742188,0.3095703,0.6904297,0.6152344c0.5429688,1.4267578,1.6123047,3.0224609,2.230957,3.0224609
	c0.0932617,0,0.2055664-0.0507812,0.3334961-0.1523438c0.78125-0.6152344,0.9033203-1.6640625,0.9067383-2.2353516
	c0.0097656-1.6484375-0.84375-3.4501953-2.1240234-4.4824219c-1.9213867-1.5351562-3.6782227-2.3486328-5.0771484-2.3486328
	c-0.9350586,0-1.7167969,0.3662109-2.3896484,1.1181641c-0.3227539,0.359375-0.6835938,0.8710938-0.5751953,1.2685547
	c0.1513672,0.5537109,1.1079102,1.0195312,1.5478516,1.1582031C75.5097656,157.6894531,75.777832,158,75.8364258,158.375
	c0.0581055,0.375-0.0991211,0.7519531-0.4091797,0.9707031L71.6381836,162.0234375z"/>
<path fill="#FEE7AB" d="M27.7695312,84.7436523c-2.1782227,0-4.3950195-0.9711914-5.7861328-2.5351562
	c-0.9697266-1.090332-1.4228516-2.3774414-1.2763672-3.625c0.1694336-1.4345703,1.2456055-2.2905273,2.8793945-2.2905273
	c0.8388672,0,1.7470703,0.215332,2.4624023,0.4379883l0.5234375-7.2431641
	c0.0219727-0.2988281,0.1762695-0.5722656,0.4208984-0.7446289c0.2446289-0.1728516,0.5556641-0.2270508,0.8427734-0.1469727
	l4.9599609,1.3701172c0.4951172,0.1367188,0.8056641,0.6254883,0.7197266,1.1318359l-0.6547852,3.8452148
	c0.2011719-0.0302734,0.4106445-0.0483398,0.6235352-0.0483398c1.753418,0,2.8652344,1.234375,2.9741211,3.3022461
	c0.1987305,3.59375-2.6196289,5.9052734-7.9360352,6.5063477C28.269043,84.730957,28.0195312,84.7436523,27.7695312,84.7436523z
	 M23.5864258,78.2929688c-0.8310547,0-0.8642578,0.2788086-0.8930664,0.5244141
	c-0.1010742,0.8613281,0.3706055,1.5966797,0.784668,2.0620117c1.1196289,1.2587891,3.0556641,2.0288086,4.8251953,1.8364258
	c2.8994141-0.328125,6.3266602-1.3598633,6.1582031-4.4106445c-0.0742188-1.4101562-0.6391602-1.4101562-0.9770508-1.4101562
	c-0.5727539,0-1.2304688,0.2802734-1.4160156,0.378418c-0.3364258,0.1782227-0.7456055,0.1503906-1.0541992-0.0727539
	c-0.3085938-0.2236328-0.4638672-0.6025391-0.3999023-0.9785156l0.777832-4.5688477l-2.9125977-0.8046875l-0.5317383,7.3535156
	c-0.0239258,0.3251953-0.2050781,0.6186523-0.4853516,0.7861328c-0.2807617,0.1669922-0.625,0.1870117-0.9223633,0.0537109
	C26.0756836,78.8334961,24.6401367,78.2929688,23.5864258,78.2929688z"/>
<path fill="#FEE7AB" d="M107.7626953,142.6259766c-2.171875,0-4.3828125-0.9697266-5.7705078-2.5302734
	c-0.96875-1.0908203-1.421875-2.3769531-1.2753906-3.6230469c0.1689453-1.4365234,1.2451172-2.2939453,2.8779297-2.2939453
	c0.8388672,0,1.7470703,0.2158203,2.4628906,0.4394531l0.515625-7.2392578
	c0.0205078-0.2988281,0.1748047-0.5722656,0.4199219-0.7451172c0.2451172-0.1738281,0.5566406-0.2275391,0.8427734-0.1474609
	l4.9697266,1.3701172c0.4960938,0.1367188,0.8076172,0.6269531,0.7197266,1.1337891l-0.6621094,3.8427734
	c0.2011719-0.0302734,0.4091797-0.0488281,0.6210938-0.0488281c1.7548828,0,2.8701172,1.234375,2.984375,3.3007812
	c0.1992188,3.6064453-2.6210938,5.9140625-7.9394531,6.4990234
	C108.2753906,142.6123047,108.0195312,142.6259766,107.7626953,142.6259766z M103.5947266,136.1787109
	c-0.8291016,0-0.8623047,0.2802734-0.8916016,0.5283203c-0.1015625,0.859375,0.3701172,1.5947266,0.7841797,2.0595703
	c1.1201172,1.2587891,3.0654297,2.0283203,4.8232422,1.8291016c2.9042969-0.3193359,6.3300781-1.3417969,6.1621094-4.4003906
	c-0.0791016-1.4111328-0.6474609-1.4111328-0.9882812-1.4111328c-0.5654297,0-1.2167969,0.2744141-1.4199219,0.3808594
	c-0.3378906,0.1738281-0.7480469,0.1435547-1.0527344-0.0791016c-0.3066406-0.2246094-0.4619141-0.6015625-0.3974609-0.9765625
	l0.7861328-4.5654297l-2.9189453-0.8056641l-0.5244141,7.3525391c-0.0224609,0.3261719-0.2041016,0.6201172-0.4853516,0.7871094
	c-0.28125,0.1689453-0.625,0.1875-0.9238281,0.0527344C106.0839844,136.7216797,104.6484375,136.1787109,103.5947266,136.1787109z"
	/>
<path fill="#FEE7AB" d="M104.2529297,71.0595703L104.2529297,71.0595703c-1.9511719,0-3.5517578-0.7729492-4.3916016-2.1201172
	c-0.5800781-0.9248047-0.4580078-1.7333984-0.2519531-2.2480469c0.5039062-1.2631836,2.0625-2.0859375,3.2460938-2.5463867
	l-4.1181641-5.9672852c-0.1699219-0.246582-0.2207031-0.5561523-0.1376953-0.8442383
	c0.0820312-0.2875977,0.2900391-0.5234375,0.5644531-0.6420898l4.7294922-2.0400391
	c0.4697266-0.2026367,1.0195312-0.0175781,1.2705078,0.4326172l1.8935547,3.4072266
	c0.5341797-0.5771484,1.28125-1.0947266,2.2441406-1.0947266c0.9042969,0,1.7802734,0.4667969,2.6035156,1.387207
	c2.4072266,2.690918,1.6513672,6.2539062-2.1279297,10.0332031
	C108.3730469,70.2211914,106.3076172,71.0595703,104.2529297,71.0595703z M101.0761719,58.0454102l4.1865234,6.0668945
	c0.1855469,0.2685547,0.2275391,0.6113281,0.1132812,0.9174805s-0.3710938,0.5371094-0.6875,0.6186523
	c-1.1289062,0.2919922-2.9335938,1.0610352-3.2216797,1.7851562c-0.0263672,0.0644531-0.0732422,0.184082,0.0898438,0.4448242
	c0.46875,0.7514648,1.4511719,1.1811523,2.6962891,1.1811523l0,0c1.5136719,0,3.0878906-0.6347656,4.1103516-1.6567383
	c2.0634766-2.0634766,4.09375-5.0024414,2.0517578-7.2861328c-0.4160156-0.4643555-0.8105469-0.7202148-1.1132812-0.7202148
	c-0.6064453,0-1.2402344,1.0332031-1.4033203,1.409668c-0.1503906,0.3500977-0.4873047,0.5834961-0.8681641,0.6025391
	c-0.3847656,0.0239258-0.7392578-0.1796875-0.9238281-0.5126953l-2.2509766-4.0498047L101.0761719,58.0454102z"/>
<path fill="#FEE7AB" d="M48.6401367,40.4902344c-2.8344727,0-5.1401367-2.3056641-5.1401367-5.1401367
	c0-2.8286133,2.3056641-5.1298828,5.1401367-5.1298828c2.8339844,0,5.1396484,2.3012695,5.1396484,5.1298828
	C53.7797852,38.1845703,51.4741211,40.4902344,48.6401367,40.4902344z M48.6401367,32.2202148
	c-1.7314453,0-3.1401367,1.4042969-3.1401367,3.1298828c0,1.7314453,1.4086914,3.1401367,3.1401367,3.1401367
	s3.1396484-1.4086914,3.1396484-3.1401367C51.7797852,33.6245117,50.371582,32.2202148,48.6401367,32.2202148z"/>
<path fill="#FEE7AB" d="M103.78125,32.2182617c-0.1103516,0-0.2265625-0.003418-0.3457031-0.0097656
	c-3.6025391-0.1992188-5.5859375-3.2529297-5.5859375-8.5986328c0-3.7041016,2.9267578-7.2060547,6.0224609-7.2060547
	c0.3037109,0,0.6064453,0.0341797,0.9013672,0.1015625c1.0625,0.2441406,1.5458984,0.9008789,1.7646484,1.4086914
	c0.5371094,1.2504883,0.0185547,2.9389648-0.4921875,4.1035156l7.1347656,1.309082
	c0.2939453,0.0537109,0.5488281,0.2368164,0.6943359,0.4990234c0.1445312,0.2617188,0.1650391,0.574707,0.0546875,0.8530273
	l-1.9003906,4.7900391c-0.1894531,0.4770508-0.7050781,0.7373047-1.2060547,0.5922852l-3.7558594-1.078125
	c0.0234375,0.6484375-0.0839844,1.3725586-0.5039062,1.9902344C106.1777344,31.5415039,105.3808594,32.2182617,103.78125,32.2182617
	z M103.8720703,18.4038086c-1.9550781,0-4.0224609,2.6757812-4.0224609,5.2060547
	c0,2.918457,0.6416016,6.4331055,3.6953125,6.6015625c0.0820312,0.0043945,0.1611328,0.0068359,0.2363281,0.0068359
	c0.3994141,0,0.9189453-0.0639648,1.1269531-0.3676758c0.3242188-0.472168,0.0927734-1.4951172-0.0703125-1.9165039
	c-0.1367188-0.3544922-0.0615234-0.7573242,0.1943359-1.0371094c0.2558594-0.28125,0.6474609-0.394043,1.0136719-0.2880859
	l4.4580078,1.2797852l1.1171875-2.8149414l-7.2519531-1.3305664c-0.3203125-0.0585938-0.5927734-0.2709961-0.7285156-0.5673828
	c-0.1357422-0.296875-0.1181641-0.6416016,0.046875-0.9228516c0.5917969-1.0073242,1.3222656-2.8325195,1.0126953-3.5493164
	c-0.0292969-0.0678711-0.078125-0.1811523-0.3740234-0.2490234
	C104.1787109,18.4208984,104.0253906,18.4038086,103.8720703,18.4038086z"/>
<path fill="#FEE7AB" d="M77.5400391,29.4501953c-2.8344727,0-5.1401367-2.3056641-5.1401367-5.1401367
	s2.3056641-5.1401367,5.1401367-5.1401367c2.8398438,0,5.1499023,2.3056641,5.1499023,5.1401367
	S80.3798828,29.4501953,77.5400391,29.4501953z M77.5400391,21.1699219c-1.7314453,0-3.1401367,1.4086914-3.1401367,3.1401367
	s1.4086914,3.1401367,3.1401367,3.1401367c1.7368164,0,3.1499023-1.4086914,3.1499023-3.1401367
	S79.2768555,21.1699219,77.5400391,21.1699219z"/>
<path fill="#FEE7AB" d="M93.5,187C41.9438477,187,0,145.0556641,0,93.5c0-21.4780273,7.081543-41.6733398,20.4794922-58.402832
	C33.4848633,18.8574219,51.7319336,7.2871094,71.859375,2.5170898C78.8974609,0.847168,86.1787109,0,93.5,0
	C145.0556641,0,187,41.9438477,187,93.5C187,145.0556641,145.0556641,187,93.5,187z M93.5,2
	c-7.1660156,0-14.2919922,0.8286133-21.1791992,2.4633789C52.625,9.1308594,34.7685547,20.4541016,22.0405273,36.3476562
	C8.9296875,52.7182617,2,72.4814453,2,93.5C2,143.953125,43.046875,185,93.5,185S185,143.953125,185,93.5S143.953125,2,93.5,2z"/>
<path fill="#FEE7AB" d="M93.5,178.6894531c-46.9741211,0-85.1899414-38.2158203-85.1899414-85.1894531
	c0-46.9741211,38.2158203-85.1899414,85.1899414-85.1899414c46.9736328,0,85.1894531,38.2158203,85.1894531,85.1899414
	C178.6894531,140.4736328,140.4736328,178.6894531,93.5,178.6894531z M93.5,10.3100586
	c-45.8710938,0-83.1899414,37.3188477-83.1899414,83.1899414S47.6289062,176.6894531,93.5,176.6894531
	S176.6894531,139.3710938,176.6894531,93.5S139.3710938,10.3100586,93.5,10.3100586z"/>
<path fill="#FEE7AB" d="M177.6894531,94.5H9.3100586c-0.5522461,0-1-0.4477539-1-1s0.4477539-1,1-1h168.3793945
	c0.5527344,0,1,0.4477539,1,1S178.2421875,94.5,177.6894531,94.5z"/>
<path fill="#FEE7AB" d="M93.5,178.6894531c-0.5522461,0-1-0.4472656-1-1V9.3100586c0-0.5522461,0.4477539-1,1-1s1,0.4477539,1,1
	v168.3793945C94.5,178.2421875,94.0522461,178.6894531,93.5,178.6894531z"/>
<path fill="#FEE7AB" d="M33.9702148,154.0292969c-0.2558594,0-0.5117188-0.0976562-0.7070312-0.2929688
	c-0.390625-0.390625-0.390625-1.0234375,0-1.4140625l119.059082-119.0693359c0.390625-0.390625,1.0234375-0.390625,1.4140625,0
	s0.390625,1.0234375,0,1.4140625L34.6772461,153.7363281C34.4819336,153.9316406,34.2260742,154.0292969,33.9702148,154.0292969z"/>
<path fill="#FEE7AB" d="M153.0292969,154.0292969c-0.2558594,0-0.5117188-0.0976562-0.7070312-0.2929688L33.2631836,34.6669922
	c-0.390625-0.390625-0.390625-1.0234375,0-1.4140625s1.0234375-0.390625,1.4140625,0l119.059082,119.0693359
	c0.390625,0.390625,0.390625,1.0234375,0,1.4140625C153.5410156,153.9316406,153.2851562,154.0292969,153.0292969,154.0292969z"/>
<path fill="#FEE7AB" d="M104.5771484,167.7597656c-1.6123047,0-3.484375-0.5566406-5.5634766-1.6552734
	c-1.9853516-1.0419922-3.5419922-3.1474609-3.9638672-5.3623047c-0.3027344-1.5908203,0.0205078-3.0371094,0.9130859-4.0742188
	c0.6513672-0.7539062,1.3798828-0.9121094,1.8779297-0.9121094c1.4335938,0,2.7626953,1.3134766,3.5917969,2.3535156
	l4.4814453-5.6982422c0.1855469-0.2353516,0.4667969-0.3759766,0.765625-0.3818359
	c0.3173828,0.0048828,0.5869141,0.1230469,0.78125,0.3505859l3.3398438,3.9101562
	c0.3330078,0.390625,0.3164062,0.9697266-0.0380859,1.3408203l-2.6992188,2.8183594
	c0.6064453,0.2910156,1.21875,0.7431641,1.5644531,1.4414062c0.3232422,0.6523438,0.5166016,1.75-0.4003906,3.2753906
	C108.2099609,166.8623047,106.6015625,167.7597656,104.5771484,167.7597656z M97.8408203,157.7558594
	c-0.0527344,0-0.1748047,0-0.3632812,0.2177734c-0.6542969,0.7617188-0.5712891,1.8271484-0.4628906,2.3935547
	c0.3076172,1.6142578,1.4853516,3.2089844,2.9306641,3.9677734c1.7646484,0.9326172,3.3662109,1.4248047,4.6318359,1.4248047
	c1.3203125,0,2.2802734-0.53125,2.9355469-1.6240234c0.2490234-0.4140625,0.5068359-0.984375,0.3251953-1.3544922
	c-0.2539062-0.5166016-1.2822266-0.7949219-1.7402344-0.8486328c-0.3769531-0.0439453-0.6982422-0.2978516-0.8271484-0.6542969
	c-0.1279297-0.3574219-0.0449219-0.7568359,0.2167969-1.0302734l3.2050781-3.3466797l-1.9599609-2.2949219l-4.5556641,5.7910156
	c-0.2021484,0.2568359-0.5009766,0.3974609-0.8427734,0.3798828c-0.3251953-0.0185547-0.6220703-0.1953125-0.7939453-0.4726562
	C99.8779297,159.2363281,98.5712891,157.7558594,97.8408203,157.7558594z"/>
<g>
</g>
<g>
</g>
<g>
</g>
<g>
</g>
<g>
</g>
<g>
</g>
</svg>
