<?xml version="1.0" encoding="utf-8"?>
<!-- Generator: Adobe Illustrator 16.2.0, SVG Export Plug-In . SVG Version: 6.00 Build 0)  -->
<!DOCTYPE svg PUBLIC "-//W3C//DTD SVG 1.1//EN" "http://www.w3.org/Graphics/SVG/1.1/DTD/svg11.dtd">
<svg version="1.1" id="Layer_1" xmlns="http://www.w3.org/2000/svg" xmlns:xlink="http://www.w3.org/1999/xlink" x="0px" y="0px"
	 width="124.0014648px" height="166px" viewBox="0 0 124.0014648 166" enable-background="new 0 0 124.0014648 166"
	 xml:space="preserve">
<g>
	<g>
		
			<path fill-rule="evenodd" clip-rule="evenodd" fill="none" stroke="#FEE7AB" stroke-width="2" stroke-linecap="round" stroke-linejoin="round" stroke-miterlimit="10" d="
			M89.9604492,58.2900391h1.6103516c5.5703125,0,10.0800781-4.5302734,10.0800781-10.1201172
			c0-5.5800781-4.5097656-10.1098633-10.0800781-10.1098633l-3.8603516-0.0400391
			c-0.7392578-1.2602539-1.6201172-2.4599609-2.6103516-3.5898438c-8.0996094,8.0996094-14.3203125,5.8999023-22.9394531,5.8999023
			c-8.6401367,0-18.4902344,1.3398438-22.9702148-5.8598633c-0.9897461,1.1298828-1.8701172,2.3295898-2.6098633,3.5898438
			h-3.8798828c-5.5400391,0-10.0302734,4.5-10.0302734,10.0498047c0,5.550293,4.4902344,10.050293,10.0302734,10.050293h1.659668
			l0.0400391,12.199707l-11.6899414-6.2197266C15.390625,60.2001953,6.390625,63.0200195,2.640625,70.4101562
			c-3.75,7.3798828-0.8500977,16.4902344,6.4399414,20.3798828L25.4106445,99.5
			c-0.4702148,2.3798828-0.7202148,4.8300781-0.7202148,7.3398438c0,8.5195312,2.8701172,16.3603516,7.7099609,22.6308594
			l-6.1499023,15.5898438c-2.8999023,7.359375,0.6098633,15.8193359,7.8500977,18.8496094
			c7.2397461,3.0400391,15.4296875-0.5,18.2900391-7.8701172L57.2207031,143.75
			c1.6196289,0.2099609,3.2700195,0.3203125,4.9399414,0.3203125c1.7597656,0,3.4902344-0.1201172,5.1894531-0.3603516
			l4.8505859,12.3300781c2.8603516,7.3701172,11.0498047,10.9101562,18.2802734,7.8701172
			c7.25-3.0302734,10.7597656-11.4902344,7.8496094-18.8496094l-6.2402344-15.8203125
			c4.7402344-6.2304688,7.5400391-13.9902344,7.5400391-22.4003906c0-2.5703125-0.2597656-5.0703125-0.7597656-7.4902344
			l16.0498047-8.5595703c7.2900391-3.8896484,10.1894531-13,6.4394531-20.3798828
			c-3.75-7.3901367-12.75-10.2099609-20.0693359-6.2700195l-11.3300781,6.0297852V58.2900391z"/>
		
			<path fill-rule="evenodd" clip-rule="evenodd" fill="none" stroke="#FEE7AB" stroke-width="2" stroke-linecap="round" stroke-linejoin="round" stroke-miterlimit="10" d="
			M31.1303711,11.7597656c0.840332,3.5400391,3.9702148,11.8803711,8.0600586,22.7104492
			c4.4799805,7.199707,14.3300781,5.8598633,22.9702148,5.8598633c8.6191406,0,14.8398438,2.199707,22.9394531-5.8999023
			c4.0703125-10.8100586,7.2001953-19.1303711,8.0410156-22.6704102c1.109375-4.6899414-1.78125-9.3999023-6.4511719-10.5195312
			c-0.3896484-0.090332-0.7792969-0.1601562-1.1601562-0.2001953H40.4003906
			c-0.9199219-0.0898438-1.8701172-0.0302734-2.8198242,0.2001953C32.9106445,2.3598633,30.0205078,7.0698242,31.1303711,11.7597656
			z"/>
	</g>
	
		<path fill-rule="evenodd" clip-rule="evenodd" fill="none" stroke="#FEE7AB" stroke-width="2" stroke-linecap="round" stroke-linejoin="round" stroke-miterlimit="10" d="
		M38.5004883,119.5c0,6.9003906,5.6000977,12.5,12.5,12.5c4.75,0,8.8901367-2.6503906,11-6.5605469
		c2.109375,3.9101562,6.25,6.5605469,11,6.5605469c6.9003906,0,12.5-5.5996094,12.5-12.5s-5.5996094-12.5-12.5-12.5
		c-4.75,0-8.890625,2.6503906-11,6.5605469c-2.1098633-3.9101562-6.25-6.5605469-11-6.5605469
		C44.1005859,107,38.5004883,112.5996094,38.5004883,119.5z"/>
</g>
<g>
</g>
<g>
</g>
<g>
</g>
<g>
</g>
<g>
</g>
<g>
</g>
</svg>
