<?xml version="1.0" encoding="utf-8"?>
<!-- Generator: Adobe Illustrator 16.2.0, SVG Export Plug-In . SVG Version: 6.00 Build 0)  -->
<!DOCTYPE svg PUBLIC "-//W3C//DTD SVG 1.1//EN" "http://www.w3.org/Graphics/SVG/1.1/DTD/svg11.dtd">
<svg version="1.1" id="Layer_1" xmlns="http://www.w3.org/2000/svg" xmlns:xlink="http://www.w3.org/1999/xlink" x="0px" y="0px"
	 width="124.0004883px" height="166px" viewBox="0 0 124.0004883 166" enable-background="new 0 0 124.0004883 166"
	 xml:space="preserve">
<g>
	
		<path fill-rule="evenodd" clip-rule="evenodd" fill="none" stroke="#FEE7AB" stroke-width="2" stroke-linecap="round" stroke-linejoin="round" stroke-miterlimit="10" d="
		M59.7407227,126.2597656c0-1.3398438,1.0795898-2.4199219,2.4199219-2.4199219
		c1.3300781,0,2.4199219,1.0800781,2.4199219,2.4199219s-1.0898438,2.4296875-2.4199219,2.4296875
		C60.8203125,128.6894531,59.7407227,127.5996094,59.7407227,126.2597656z"/>
	
		<path fill-rule="evenodd" clip-rule="evenodd" fill="none" stroke="#FEE7AB" stroke-width="2" stroke-linecap="round" stroke-linejoin="round" stroke-miterlimit="10" d="
		M34.7602539,107.25c0-14.9707031,12.2700195-22.859375,27.4003906-22.859375
		c15.1298828,0,27.4003906,7.8886719,27.4003906,22.859375s-12.2705078,27.109375-27.4003906,27.109375
		C47.0302734,134.359375,34.7602539,122.2207031,34.7602539,107.25z"/>
	
		<path fill-rule="evenodd" clip-rule="evenodd" fill="none" stroke="#FEE7AB" stroke-width="2" stroke-linecap="round" stroke-linejoin="round" stroke-miterlimit="10" d="
		M89.9604492,58.2900391h1.6103516c5.5703125,0,10.0800781-4.5302734,10.0800781-10.1201172
		c0-5.5800781-4.5097656-10.1098633-10.0800781-10.1098633l-3.8603516-0.0400391
		c-4.8398438-8.2099609-15.3603516-13.7202148-25.5498047-13.7202148c-10.2099609,0-20.7402344,5.5302734-25.5800781,13.7602539
		h-3.8798828c-5.5400391,0-10.0302734,4.5-10.0302734,10.0498047c0,5.550293,4.4902344,10.050293,10.0302734,10.050293h1.659668
		l0.0400391,12.199707l-11.6899414-6.2197266C15.390625,60.2001953,6.390625,63.0200195,2.640625,70.4101562
		c-3.75,7.3798828-0.8500977,16.4902344,6.4399414,20.3798828L25.4106445,99.5
		c-0.4702148,2.3798828-0.7202148,4.8300781-0.7202148,7.3398438c0,8.5195312,2.8701172,16.3603516,7.7099609,22.6308594
		l-6.1499023,15.5898438c-2.8999023,7.359375,0.6098633,15.8193359,7.8500977,18.8496094
		c7.2397461,3.0400391,15.4296875-0.5,18.2900391-7.8701172L57.2207031,143.75
		c1.6196289,0.2099609,3.2700195,0.3203125,4.9399414,0.3203125c1.7597656,0,3.4902344-0.1201172,5.1894531-0.3603516
		l4.8505859,12.3300781c2.8603516,7.3701172,11.0498047,10.9101562,18.2802734,7.8701172
		c7.25-3.0302734,10.7597656-11.4902344,7.8496094-18.8496094l-6.2402344-15.8203125
		c4.7402344-6.2304688,7.5400391-13.9902344,7.5400391-22.4003906c0-2.5703125-0.2597656-5.0703125-0.7597656-7.4902344
		l16.0498047-8.5595703c7.2900391-3.8896484,10.1894531-13,6.4394531-20.3798828
		c-3.75-7.3901367-12.75-10.2099609-20.0693359-6.2700195l-11.3300781,6.0297852V58.2900391z"/>
	<g>
		
			<path fill-rule="evenodd" clip-rule="evenodd" fill="none" stroke="#FEE7AB" stroke-width="2" stroke-linecap="round" stroke-linejoin="round" stroke-miterlimit="10" d="
			M47.6503906,47.3598633c0-2.8999023,2.3500977-5.2597656,5.2402344-5.2597656
			c2.8896484,0,5.2397461,2.3598633,5.2397461,5.2597656c0,2.9101562-2.3500977,5.2602539-5.2397461,5.2602539
			C50.0004883,52.6201172,47.6503906,50.2700195,47.6503906,47.3598633z"/>
		
			<path fill-rule="evenodd" clip-rule="evenodd" fill="none" stroke="#FEE7AB" stroke-width="2" stroke-linecap="round" stroke-linejoin="round" stroke-miterlimit="10" d="
			M66.1899414,47.3598633c0-2.8999023,2.3398438-5.2597656,5.2402344-5.2597656c2.890625,0,5.2304688,2.3598633,5.2304688,5.2597656
			c0,2.9101562-2.3398438,5.2602539-5.2304688,5.2602539C68.5297852,52.6201172,66.1899414,50.2700195,66.1899414,47.3598633z"/>
	</g>
	
		<path fill-rule="evenodd" clip-rule="evenodd" fill="none" stroke="#FEE7AB" stroke-width="2" stroke-linecap="round" stroke-linejoin="round" stroke-miterlimit="10" d="
		M56.5205078,60.7202148c0,7.1796875,11.5795898,7.3798828,11.5795898,0"/>
	
		<path fill-rule="evenodd" clip-rule="evenodd" fill="none" stroke="#FEE7AB" stroke-width="2" stroke-linecap="round" stroke-linejoin="round" stroke-miterlimit="10" d="
		M43.2207031,51.4101562c-6.4501953,6.6796875-2.8203125,20.6396484,19.3398438,20.6396484
		c22.1606445,0,24.5805664-13.7597656,19.340332-20.6396484C85.5405273,43.2001953,81.8110352,37,75.2504883,33.6298828
		c-3.4003906,1.7402344-8.0097656,2.8100586-13.0898438,2.8100586c-4.9101562,0-9.3701172-1-12.7402344-2.6298828
		C42.9907227,37.2202148,39.390625,43.3398438,43.2207031,51.4101562z"/>
	
		<path fill-rule="evenodd" clip-rule="evenodd" fill="none" stroke="#FEE7AB" stroke-width="2" stroke-linecap="round" stroke-linejoin="round" stroke-miterlimit="10" d="
		M31.1303711,11.7597656c0.840332,3.5400391,3.9702148,11.8803711,8.0600586,22.7104492
		c5.4501953-6.2104492,14.3300781-10.1704102,22.9702148-10.1704102c8.6191406,0,17.4804688,3.9501953,22.9394531,10.1303711
		c4.0703125-10.8100586,7.2001953-19.1303711,8.0410156-22.6704102c1.109375-4.6899414-1.78125-9.3999023-6.4511719-10.5195312
		c-0.3896484-0.090332-0.7792969-0.1601562-1.1601562-0.2001953H40.4003906
		c-0.9199219-0.0898438-1.8701172-0.0302734-2.8198242,0.2001953C32.9106445,2.3598633,30.0205078,7.0698242,31.1303711,11.7597656z
		"/>
	
		<path fill-rule="evenodd" clip-rule="evenodd" fill="none" stroke="#FEE7AB" stroke-width="2" stroke-linecap="round" stroke-linejoin="round" stroke-miterlimit="10" d="
		M79.9008789,29.8701172c-5.1103516-3.5-11.4902344-5.5703125-17.7402344-5.5703125s-12.6303711,2.0800781-17.7402344,5.5703125
		c2.6899414,3.8398438,9.6201172,6.5698242,17.7402344,6.5698242
		C70.2797852,36.4399414,77.2104492,33.7099609,79.9008789,29.8701172z"/>
	
		<polyline fill-rule="evenodd" clip-rule="evenodd" fill="none" stroke="#FEE7AB" stroke-width="2" stroke-linecap="round" stroke-linejoin="round" stroke-miterlimit="10" points="
		55.7104492,17.8300781 55.7104492,8.9301758 62.1606445,15.3999023 68.6098633,8.9301758 68.6098633,17.8300781 	"/>
</g>
<g>
</g>
<g>
</g>
<g>
</g>
<g>
</g>
<g>
</g>
<g>
</g>
</svg>
