<?xml version="1.0" encoding="utf-8"?>
<!-- Generator: Adobe Illustrator 16.2.0, SVG Export Plug-In . SVG Version: 6.00 Build 0)  -->
<!DOCTYPE svg PUBLIC "-//W3C//DTD SVG 1.1//EN" "http://www.w3.org/Graphics/SVG/1.1/DTD/svg11.dtd">
<svg version="1.1" id="Layer_1" xmlns="http://www.w3.org/2000/svg" xmlns:xlink="http://www.w3.org/1999/xlink" x="0px" y="0px"
	 width="181.8510742px" height="155.5957031px" viewBox="0 -0.0002441 181.8510742 155.5957031"
	 enable-background="new 0 -0.0002441 181.8510742 155.5957031" xml:space="preserve">
<g>
	
		<rect x="-69.574707" y="-87.8205566" fill="#FEBE10" stroke="#FEE7AB" stroke-width="2" stroke-linecap="round" stroke-linejoin="round" stroke-miterlimit="10" width="394" height="347.4511719"/>
	<path fill="none" stroke="#FEE7AB" stroke-width="2" stroke-linecap="round" stroke-linejoin="round" stroke-miterlimit="10" d="
		M114.159668,110.9919434h1.6113281c5.5703125,0,10.0800781-4.5302734,10.0800781-10.1201172
		c0-5.5800781-4.5097656-10.109375-10.0800781-10.109375l-3.8613281-0.0410156
		c-4.8398438-8.2089844-15.359375-13.7197266-25.5493164-13.7197266c-10.2099609,0-20.7402344,5.5302734-25.5800781,13.7607422
		h-3.8798828c-5.5400391,0-10.0302734,4.5-10.0302734,10.0488281c0,5.5507812,4.4902344,10.0507812,10.0302734,10.0507812h1.659668
		l0.0400391,12.1992188l-11.6899414-6.21875c-7.3198242-3.9404297-16.3198242-1.1210938-20.0698242,6.2695312
		c-3.75,7.3798828-0.8500977,16.4902344,6.4399414,20.3798828l16.3300781,8.7099609
		c-0.4702148,2.3798828,73.9594727,2.2695312,73.4594727-0.1503906l16.0507812-8.5595703
		c7.2890625-3.8896484,10.1894531-13,6.4394531-20.3798828c-3.75-7.390625-12.75-10.2099609-20.0703125-6.2695312
		l-11.3300781,6.0292969V110.9919434z"/>
	<path fill="none" stroke="#FEE7AB" stroke-width="2" stroke-linecap="round" stroke-linejoin="round" stroke-miterlimit="10" d="
		M71.8500977,100.0612793c0-2.8994141,2.3500977-5.2597656,5.2402344-5.2597656
		c2.8896484,0,5.2397461,2.3603516,5.2397461,5.2597656c0,2.9101562-2.3500977,5.2607422-5.2397461,5.2607422
		C74.2001953,105.3220215,71.8500977,102.9714355,71.8500977,100.0612793z"/>
	<path fill="none" stroke="#FEE7AB" stroke-width="2" stroke-linecap="round" stroke-linejoin="round" stroke-miterlimit="10" d="
		M90.3901367,100.0612793c0-2.8994141,2.3398438-5.2597656,5.2402344-5.2597656c2.890625,0,5.2304688,2.3603516,5.2304688,5.2597656
		c0,2.9101562-2.3398438,5.2607422-5.2304688,5.2607422C92.7299805,105.3220215,90.3901367,102.9714355,90.3901367,100.0612793z"/>
	<path fill="none" stroke="#FEE7AB" stroke-width="2" stroke-linecap="round" stroke-linejoin="round" stroke-miterlimit="10" d="
		M80.7202148,113.4226074c0,7.1796875,11.5800781,7.3789062,11.5800781,0"/>
	<path fill="none" stroke="#FEE7AB" stroke-width="2" stroke-linecap="round" stroke-linejoin="round" stroke-miterlimit="10" d="
		M67.4204102,104.1120605c-6.4501953,6.6796875-2.8203125,20.6396484,19.3398438,20.6396484
		c22.1611328,0,24.5810547-13.7597656,19.3408203-20.6396484c3.6386719-8.2099609-0.0898438-14.4101562-6.6503906-17.7802734
		c-4.640625-2.2197266-8.0097656-3.4697266-13.090332-3.4697266c-4.9101562,0-9.0200195,1.25-12.7402344,3.6503906
		C67.1904297,89.9226074,63.590332,96.041748,67.4204102,104.1120605z"/>
</g>
<g>
	
		<polygon fill="none" stroke="#FEE7AB" stroke-width="2" stroke-linecap="round" stroke-linejoin="round" stroke-miterlimit="10" points="
		91.2001953,68.8688965 91.2001953,68.9382324 91.2802734,68.8688965 	"/>
	<path fill="none" stroke="#FEE7AB" stroke-width="2" stroke-linecap="round" stroke-linejoin="round" stroke-miterlimit="10" d="
		M135.7495117,49.0690918c0,2.2597656-0.5996094,5.5097656-3.4394531,8.1298828
		c-3.0097656,2.7792969-7.9199219,4.2392578-14.1894531,4.2392578h20.5195312
		c10.6699219-11.9394531,1.7109375-33.7294922-15.6191406-31.5996094c-1.4902344,2.9404297-3.6914062,5.9697266-6.7402344,9.0302734
		l-7.0898438,7.0898438c5.75-5.6601562,11.4902344-8.7802734,16.1796875-8.7802734
		C131.7807617,37.1784668,135.7495117,43.3483887,135.7495117,49.0690918z"/>
	<path fill="none" stroke="#FEE7AB" stroke-width="2" stroke-linecap="round" stroke-linejoin="round" stroke-miterlimit="10" d="
		M41.25,61.4382324h-9.449707h-9.6298828c-8,0-15.5200195,3.1201172-21.1704102,8.7705078h5.300293v5.3105469
		c4.0600586-4.0703125,9.6699219-6.5810547,15.8701172-6.5810547h9.6298828h29.9697266
		C51.8500977,68.9382324,45.2001953,65.8688965,41.25,61.4382324z"/>
	<path fill="none" stroke="#FEE7AB" stroke-width="2" stroke-linecap="round" stroke-linejoin="round" stroke-miterlimit="10" d="
		M76.1000977,40.7487793l-7.1796875-7.1796875c-4.4404297-4.4404297-6.8701172-8.9404297-7.0400391-13.0400391
		c-0.1601562-3.8603516,1.7099609-6.5800781,3.3100586-8.1806641c4.0395508-4.0400391,11.2197266-5.5996094,15.75-1.0595703
		c3.3798828,3.3798828,5.2397461,9.8095703,5.2397461,18.0996094v21.4404297l7.5009766,7.5V29.3884277
		c0-47.0292969-50.9907227-27.5400391-36.8208008,0.4501953C62.5200195,30.5388184,69.0600586,33.7790527,76.1000977,40.7487793z"/>
	<path fill="none" stroke="#FEE7AB" stroke-width="2" stroke-linecap="round" stroke-linejoin="round" stroke-miterlimit="10" d="
		M159.6713867,61.4382324h-9.6308594H97.440918v7.4306641l52.5996094,0.0693359h9.6308594
		c6.1992188,0,11.8085938,2.5107422,15.8691406,6.5810547v-5.3105469h5.3105469
		C175.190918,64.5583496,167.6713867,61.4382324,159.6713867,61.4382324z"/>
	<path fill="none" stroke="#FEE7AB" stroke-width="2" stroke-linecap="round" stroke-linejoin="round" stroke-miterlimit="10" d="
		M110.9702148,33.5690918L93.7006836,50.838623V29.3884277c0-8.2900391,1.8691406-14.7197266,5.25-18.0996094
		c4.5292969-4.5400391,11.6992188-2.9804688,15.75,1.0595703c1.5898438,1.6005859,3.4707031,4.3203125,3.3105469,8.1806641
		C117.8413086,24.6286621,115.409668,29.1286621,110.9702148,33.5690918z"/>
	<path fill="none" stroke="#FEE7AB" stroke-width="2" stroke-linecap="round" stroke-linejoin="round" stroke-miterlimit="10" d="
		M82.4404297,68.8688965v-7.4306641H61.7700195c-6.2700195,0-11.1796875-1.4599609-14.1899414-4.2392578
		c-2.8500977-2.6201172-3.4399414-5.8701172-3.4399414-8.1298828c0-5.7207031,3.9702148-11.890625,10.3798828-11.890625
		c4.7802734,0,10.6401367,3.2304688,16.5102539,9.1005859l12.5898438,12.5898438h10.6098633l-17.8999023-17.890625
		c-36.75-36.75-60.0898438,27.9599609-14.5600586,27.9599609L82.4404297,68.8688965z"/>
	<path fill="none" stroke="#FEE7AB" stroke-width="2" stroke-linecap="round" stroke-linejoin="round" stroke-miterlimit="10" d="
		M89.9501953,11.1188965c2.2993164,4.4101562,3.730957,10.4101562,3.730957,18.2695312v28.9404297l0.5488281,0.5400391h2.0507812
		l20-20C143.6010742,11.548584,102.8901367-13.6516113,89.9501953,11.1188965z"/>
	
		<rect x="82.4404297" y="58.8688965" fill="none" stroke="#FEE7AB" stroke-width="2" stroke-linecap="round" stroke-linejoin="round" stroke-miterlimit="10" width="15.0004883" height="10"/>
	
		<rect x="90.2001953" y="68.3688965" fill="none" stroke="#FEE7AB" stroke-width="2" stroke-linecap="round" stroke-linejoin="round" stroke-miterlimit="10" width="8.0004883" height="16"/>
	
		<rect x="16.2001953" y="69.3688965" fill="#FEBE10" stroke="#FEE7AB" stroke-width="2" stroke-linecap="round" stroke-linejoin="round" stroke-miterlimit="10" width="150.0004883" height="15"/>
</g>
</svg>
