<?xml version="1.0" encoding="utf-8"?>
<!-- Generator: Adobe Illustrator 16.2.0, SVG Export Plug-In . SVG Version: 6.00 Build 0)  -->
<!DOCTYPE svg PUBLIC "-//W3C//DTD SVG 1.1//EN" "http://www.w3.org/Graphics/SVG/1.1/DTD/svg11.dtd">
<svg version="1.1" id="Layer_1" xmlns="http://www.w3.org/2000/svg" xmlns:xlink="http://www.w3.org/1999/xlink" x="0px" y="0px"
	 width="181.8505859px" height="85.3686523px" viewBox="0 0 181.8505859 85.3686523"
	 enable-background="new 0 0 181.8505859 85.3686523" xml:space="preserve">
<g>
	
		<polygon fill="none" stroke="#FEE7AB" stroke-width="2" stroke-linecap="round" stroke-linejoin="round" stroke-miterlimit="10" points="
		91.2001953,68.8686523 91.2001953,68.9389648 91.2802734,68.8686523 	"/>
	<path fill="none" stroke="#FEE7AB" stroke-width="2" stroke-linecap="round" stroke-linejoin="round" stroke-miterlimit="10" d="
		M135.75,49.0688477c0,2.2597656-0.5996094,5.5097656-3.4404297,8.1298828
		c-3.0097656,2.7792969-7.9199219,4.2402344-14.1894531,4.2402344h20.5195312
		c10.6699219-11.9404297,1.7109375-33.7304688-15.6191406-31.6000977c-1.4902344,2.9399414-3.6904297,5.9692383-6.7402344,9.0297852
		l-7.0898438,7.0898438c5.75-5.6601562,11.4902344-8.7792969,16.1796875-8.7792969
		C131.7802734,37.1791992,135.75,43.3491211,135.75,49.0688477z"/>
	<path fill="none" stroke="#FEE7AB" stroke-width="2" stroke-linecap="round" stroke-linejoin="round" stroke-miterlimit="10" d="
		M41.25,61.4389648h-9.449707h-9.6298828c-8,0-15.5200195,3.1191406-21.1704102,8.7695312h5.300293v5.3105469
		c4.0600586-4.0703125,9.6699219-6.5800781,15.8701172-6.5800781h9.6298828h29.9697266
		C51.8500977,68.9389648,45.2001953,65.8686523,41.25,61.4389648z"/>
	<path fill="none" stroke="#FEE7AB" stroke-width="2" stroke-linecap="round" stroke-linejoin="round" stroke-miterlimit="10" d="
		M76.1000977,40.7485352l-7.1796875-7.1796875c-4.4404297-4.4404297-6.8701172-8.9404297-7.0400391-13.0400391
		c-0.1601562-3.8603516,1.7099609-6.5800781,3.3100586-8.1801758c4.0395508-4.0400391,11.2197266-5.6000977,15.75-1.0600586
		c3.3798828,3.3798828,5.2397461,9.8100586,5.2397461,18.1000977v21.4399414l7.5004883,7.5V29.3886719
		c0-47.0297852-50.9902344-27.5400391-36.8203125,0.4501953C62.5200195,30.5385742,69.0600586,33.7788086,76.1000977,40.7485352z"/>
	<path fill="none" stroke="#FEE7AB" stroke-width="2" stroke-linecap="round" stroke-linejoin="round" stroke-miterlimit="10" d="
		M159.6708984,61.4389648h-9.6308594H97.4404297v7.4296875l52.5996094,0.0703125h9.6308594
		c6.1992188,0,11.8085938,2.5097656,15.8691406,6.5800781v-5.3105469h5.3105469
		C175.1904297,64.5581055,167.6708984,61.4389648,159.6708984,61.4389648z"/>
	<path fill="none" stroke="#FEE7AB" stroke-width="2" stroke-linecap="round" stroke-linejoin="round" stroke-miterlimit="10" d="
		M110.9697266,33.5688477L93.7001953,50.8393555V29.3886719c0-8.2900391,1.8701172-14.7202148,5.25-18.1000977
		c4.5292969-4.5400391,11.7001953-2.9799805,15.75,1.0600586c1.5898438,1.6000977,3.4707031,4.3198242,3.3105469,8.1801758
		C117.8408203,24.628418,115.4101562,29.128418,110.9697266,33.5688477z"/>
	<path fill="none" stroke="#FEE7AB" stroke-width="2" stroke-linecap="round" stroke-linejoin="round" stroke-miterlimit="10" d="
		M82.4404297,68.8686523v-7.4296875H61.7700195c-6.2700195,0-11.1796875-1.4609375-14.1899414-4.2402344
		c-2.8500977-2.6201172-3.4399414-5.8701172-3.4399414-8.1298828c0-5.7197266,3.9702148-11.8896484,10.3798828-11.8896484
		c4.7802734,0,10.6401367,3.2294922,16.5102539,9.0996094l12.5898438,12.5898438h10.609375l-17.8994141-17.890625
		c-36.75-36.7495117-60.0898438,27.9609375-14.5600586,27.9609375L82.4404297,68.8686523z"/>
	<path fill="none" stroke="#FEE7AB" stroke-width="2" stroke-linecap="round" stroke-linejoin="round" stroke-miterlimit="10" d="
		M89.9501953,11.1186523C92.25,15.5288086,93.6806641,21.5288086,93.6806641,29.3886719v28.9399414l0.5488281,0.5400391h2.0507812
		l20-20C143.6005859,11.5488281,102.8896484-13.6513672,89.9501953,11.1186523z"/>
	
		<rect x="82.4404297" y="58.8686523" fill="none" stroke="#FEE7AB" stroke-width="2" stroke-linecap="round" stroke-linejoin="round" stroke-miterlimit="10" width="15" height="10"/>
	
		<rect x="90.2001953" y="68.3686523" fill="none" stroke="#FEE7AB" stroke-width="2" stroke-linecap="round" stroke-linejoin="round" stroke-miterlimit="10" width="8" height="16"/>
	
		<rect x="16.2001953" y="69.3686523" fill="none" stroke="#FEE7AB" stroke-width="2" stroke-linecap="round" stroke-linejoin="round" stroke-miterlimit="10" width="150" height="15"/>
</g>
<g>
</g>
<g>
</g>
<g>
</g>
<g>
</g>
<g>
</g>
<g>
</g>
</svg>
