<?xml version="1.0" encoding="utf-8"?>
<!-- Generator: Adobe Illustrator 16.2.0, SVG Export Plug-In . SVG Version: 6.00 Build 0)  -->
<!DOCTYPE svg PUBLIC "-//W3C//DTD SVG 1.1//EN" "http://www.w3.org/Graphics/SVG/1.1/DTD/svg11.dtd">
<svg version="1.1" id="Layer_1" xmlns="http://www.w3.org/2000/svg" xmlns:xlink="http://www.w3.org/1999/xlink" x="0px" y="0px"
	 width="102px" height="178px" viewBox="-10 -10 102 178" enable-background="new -10 -10 102 178" xml:space="preserve">
<rect x="-31.5" y="-103.5" fill="#FDBD12" width="265" height="380"/>
<g>
	
		<rect x="14.4702148" y="139.7001953" fill="none" stroke="#FEDD84" stroke-width="2" stroke-linecap="round" stroke-linejoin="round" stroke-miterlimit="10" width="55.9897461" height="10.8603516"/>
	
		<rect x="18.4199219" y="143.3203125" fill="none" stroke="#FEDD84" stroke-width="2" stroke-linecap="round" stroke-linejoin="round" stroke-miterlimit="10" width="3.1801758" height="4.2890625"/>
	
		<rect x="25.2202148" y="143.3203125" fill="none" stroke="#FEDD84" stroke-width="2" stroke-linecap="round" stroke-linejoin="round" stroke-miterlimit="10" width="3.1699219" height="4.2890625"/>
	
		<rect x="31.7797852" y="143.3203125" fill="none" stroke="#FEDD84" stroke-width="2" stroke-linecap="round" stroke-linejoin="round" stroke-miterlimit="10" width="3.1704102" height="4.2890625"/>
	
		<circle fill="none" stroke="#FEDD84" stroke-width="2" stroke-linecap="round" stroke-linejoin="round" stroke-miterlimit="10" cx="64.140625" cy="145.2792969" r="2.5"/>
</g>
<g>
	
		<rect x="14.4702148" y="124.7001953" fill="none" stroke="#FEDD84" stroke-width="2" stroke-linecap="round" stroke-linejoin="round" stroke-miterlimit="10" width="55.9897461" height="10.8603516"/>
	
		<rect x="18.4199219" y="128.3203125" fill="none" stroke="#FEDD84" stroke-width="2" stroke-linecap="round" stroke-linejoin="round" stroke-miterlimit="10" width="3.1801758" height="4.2890625"/>
	
		<rect x="25.2202148" y="128.3203125" fill="none" stroke="#FEDD84" stroke-width="2" stroke-linecap="round" stroke-linejoin="round" stroke-miterlimit="10" width="3.1699219" height="4.2890625"/>
	
		<rect x="31.7797852" y="128.3203125" fill="none" stroke="#FEDD84" stroke-width="2" stroke-linecap="round" stroke-linejoin="round" stroke-miterlimit="10" width="3.1704102" height="4.2890625"/>
	
		<circle fill="none" stroke="#FEDD84" stroke-width="2" stroke-linecap="round" stroke-linejoin="round" stroke-miterlimit="10" cx="64.140625" cy="130.2792969" r="2.5"/>
</g>
<g>
	
		<rect x="14.4702148" y="108.5400391" fill="none" stroke="#FEDD84" stroke-width="2" stroke-linecap="round" stroke-linejoin="round" stroke-miterlimit="10" width="55.9897461" height="10.8603516"/>
	
		<rect x="18.4199219" y="112.1699219" fill="none" stroke="#FEDD84" stroke-width="2" stroke-linecap="round" stroke-linejoin="round" stroke-miterlimit="10" width="3.1801758" height="4.2900391"/>
	
		<rect x="25.2202148" y="112.1699219" fill="none" stroke="#FEDD84" stroke-width="2" stroke-linecap="round" stroke-linejoin="round" stroke-miterlimit="10" width="3.1699219" height="4.2900391"/>
	
		<rect x="31.7797852" y="112.1699219" fill="none" stroke="#FEDD84" stroke-width="2" stroke-linecap="round" stroke-linejoin="round" stroke-miterlimit="10" width="3.1704102" height="4.2900391"/>
	<path fill="none" stroke="#FEDD84" stroke-width="2" stroke-linecap="round" stroke-linejoin="round" stroke-miterlimit="10" d="
		M64.140625,116.6298828c-1.3808594,0-2.5-1.1201172-2.5-2.5s1.1191406-2.5097656,2.5-2.5097656
		c1.3789062,0,2.5,1.1298828,2.5,2.5097656S65.5195312,116.6298828,64.140625,116.6298828z"/>
</g>
<g>
	
		<rect x="14.4702148" y="92.390625" fill="none" stroke="#FEDD84" stroke-width="2" stroke-linecap="round" stroke-linejoin="round" stroke-miterlimit="10" width="55.9897461" height="10.859375"/>
	
		<rect x="18.4199219" y="96.0097656" fill="none" stroke="#FEDD84" stroke-width="2" stroke-linecap="round" stroke-linejoin="round" stroke-miterlimit="10" width="3.1801758" height="4.2900391"/>
	
		<rect x="25.2202148" y="96.0097656" fill="none" stroke="#FEDD84" stroke-width="2" stroke-linecap="round" stroke-linejoin="round" stroke-miterlimit="10" width="3.1699219" height="4.2900391"/>
	
		<rect x="31.7797852" y="96.0097656" fill="none" stroke="#FEDD84" stroke-width="2" stroke-linecap="round" stroke-linejoin="round" stroke-miterlimit="10" width="3.1704102" height="4.2900391"/>
	<path fill="none" stroke="#FEDD84" stroke-width="2" stroke-linecap="round" stroke-linejoin="round" stroke-miterlimit="10" d="
		M64.140625,100.4804688c-1.3808594,0-2.5-1.1210938-2.5-2.5c0-1.390625,1.1191406-2.5097656,2.5-2.5097656
		c1.3789062,0,2.5,1.1191406,2.5,2.5097656C66.640625,99.359375,65.5195312,100.4804688,64.140625,100.4804688z"/>
</g>
<g>
	
		<rect x="14.4702148" y="76.2402344" fill="none" stroke="#FEDD84" stroke-width="2" stroke-linecap="round" stroke-linejoin="round" stroke-miterlimit="10" width="55.9897461" height="10.859375"/>
	
		<rect x="18.4199219" y="79.859375" fill="none" stroke="#FEDD84" stroke-width="2" stroke-linecap="round" stroke-linejoin="round" stroke-miterlimit="10" width="3.1801758" height="4.2910156"/>
	
		<rect x="25.2202148" y="79.859375" fill="none" stroke="#FEDD84" stroke-width="2" stroke-linecap="round" stroke-linejoin="round" stroke-miterlimit="10" width="3.1699219" height="4.2910156"/>
	
		<rect x="31.7797852" y="79.859375" fill="none" stroke="#FEDD84" stroke-width="2" stroke-linecap="round" stroke-linejoin="round" stroke-miterlimit="10" width="3.1704102" height="4.2910156"/>
	<path fill="none" stroke="#FEDD84" stroke-width="2" stroke-linecap="round" stroke-linejoin="round" stroke-miterlimit="10" d="
		M64.140625,84.3300781c-1.3808594,0-2.5-1.1201172-2.5-2.5097656c0-1.3808594,1.1191406-2.5004883,2.5-2.5004883
		c1.3789062,0,2.5,1.1196289,2.5,2.5004883C66.640625,83.2099609,65.5195312,84.3300781,64.140625,84.3300781z"/>
</g>
<rect x="1" y="1" fill="none" stroke="#FEDD84" stroke-width="2" stroke-linecap="round" stroke-linejoin="round" stroke-miterlimit="10" width="80" height="156"/>
<g>
	
		<rect x="14.4702148" y="60.0898438" fill="none" stroke="#FEDD84" stroke-width="2" stroke-linecap="round" stroke-linejoin="round" stroke-miterlimit="10" width="55.9897461" height="10.8603516"/>
	
		<rect x="18.4199219" y="63.7099609" fill="none" stroke="#FEDD84" stroke-width="2" stroke-linecap="round" stroke-linejoin="round" stroke-miterlimit="10" width="3.1801758" height="4.2900391"/>
	
		<rect x="25.2202148" y="63.7099609" fill="none" stroke="#FEDD84" stroke-width="2" stroke-linecap="round" stroke-linejoin="round" stroke-miterlimit="10" width="3.1699219" height="4.2900391"/>
	
		<rect x="31.7797852" y="63.7099609" fill="none" stroke="#FEDD84" stroke-width="2" stroke-linecap="round" stroke-linejoin="round" stroke-miterlimit="10" width="3.1704102" height="4.2900391"/>
	<path fill="none" stroke="#FEDD84" stroke-width="2" stroke-linecap="round" stroke-linejoin="round" stroke-miterlimit="10" d="
		M64.140625,68.1699219c-1.3808594,0-2.5-1.1098633-2.5-2.5c0-1.3798828,1.1191406-2.5,2.5-2.5c1.3789062,0,2.5,1.1201172,2.5,2.5
		C66.640625,67.0600586,65.5195312,68.1699219,64.140625,68.1699219z"/>
</g>
<g>
	
		<rect x="14.4702148" y="43.9399414" fill="none" stroke="#FEDD84" stroke-width="2" stroke-linecap="round" stroke-linejoin="round" stroke-miterlimit="10" width="55.9897461" height="10.8500977"/>
	
		<rect x="18.4199219" y="47.5600586" fill="none" stroke="#FEDD84" stroke-width="2" stroke-linecap="round" stroke-linejoin="round" stroke-miterlimit="10" width="3.1801758" height="4.2900391"/>
	
		<rect x="25.2202148" y="47.5600586" fill="none" stroke="#FEDD84" stroke-width="2" stroke-linecap="round" stroke-linejoin="round" stroke-miterlimit="10" width="3.1699219" height="4.2900391"/>
	
		<rect x="31.7797852" y="47.5600586" fill="none" stroke="#FEDD84" stroke-width="2" stroke-linecap="round" stroke-linejoin="round" stroke-miterlimit="10" width="3.1704102" height="4.2900391"/>
	
		<circle fill="none" stroke="#FEDD84" stroke-width="2" stroke-linecap="round" stroke-linejoin="round" stroke-miterlimit="10" cx="64.140625" cy="49.5200195" r="2.5"/>
</g>
<g>
	
		<rect x="14.4702148" y="27.7797852" fill="none" stroke="#FEDD84" stroke-width="2" stroke-linecap="round" stroke-linejoin="round" stroke-miterlimit="10" width="55.9897461" height="10.8603516"/>
	
		<rect x="18.4199219" y="31.4101562" fill="none" stroke="#FEDD84" stroke-width="2" stroke-linecap="round" stroke-linejoin="round" stroke-miterlimit="10" width="3.1801758" height="4.2900391"/>
	
		<rect x="25.2202148" y="31.4101562" fill="none" stroke="#FEDD84" stroke-width="2" stroke-linecap="round" stroke-linejoin="round" stroke-miterlimit="10" width="3.1699219" height="4.2900391"/>
	
		<rect x="31.7797852" y="31.4101562" fill="none" stroke="#FEDD84" stroke-width="2" stroke-linecap="round" stroke-linejoin="round" stroke-miterlimit="10" width="3.1704102" height="4.2900391"/>
	<path fill="none" stroke="#FEDD84" stroke-width="2" stroke-linecap="round" stroke-linejoin="round" stroke-miterlimit="10" d="
		M64.140625,35.8701172c-1.3808594,0-2.5-1.1201172-2.5-2.5s1.1191406-2.5102539,2.5-2.5102539
		c1.3789062,0,2.5,1.1303711,2.5,2.5102539S65.5195312,35.8701172,64.140625,35.8701172z"/>
</g>
<g>
	
		<rect x="14.4702148" y="11.6298828" fill="none" stroke="#FEDD84" stroke-width="2" stroke-linecap="round" stroke-linejoin="round" stroke-miterlimit="10" width="55.9897461" height="10.8603516"/>
	
		<rect x="18.4199219" y="15.25" fill="none" stroke="#FEDD84" stroke-width="2" stroke-linecap="round" stroke-linejoin="round" stroke-miterlimit="10" width="3.1801758" height="4.2900391"/>
	
		<rect x="25.2202148" y="15.25" fill="none" stroke="#FEDD84" stroke-width="2" stroke-linecap="round" stroke-linejoin="round" stroke-miterlimit="10" width="3.1699219" height="4.2900391"/>
	
		<rect x="31.7797852" y="15.25" fill="none" stroke="#FEDD84" stroke-width="2" stroke-linecap="round" stroke-linejoin="round" stroke-miterlimit="10" width="3.1704102" height="4.2900391"/>
	<path fill="none" stroke="#FEDD84" stroke-width="2" stroke-linecap="round" stroke-linejoin="round" stroke-miterlimit="10" d="
		M64.140625,19.7202148c-1.3808594,0-2.5-1.1201172-2.5-2.5c0-1.3901367,1.1191406-2.5102539,2.5-2.5102539
		c1.3789062,0,2.5,1.1201172,2.5,2.5102539C66.640625,18.6000977,65.5195312,19.7202148,64.140625,19.7202148z"/>
</g>
</svg>
