<?xml version="1.0" encoding="utf-8"?>
<!-- Generator: Adobe Illustrator 16.2.0, SVG Export Plug-In . SVG Version: 6.00 Build 0)  -->
<!DOCTYPE svg PUBLIC "-//W3C//DTD SVG 1.1//EN" "http://www.w3.org/Graphics/SVG/1.1/DTD/svg11.dtd">
<svg version="1.1" id="Layer_1" xmlns="http://www.w3.org/2000/svg" xmlns:xlink="http://www.w3.org/1999/xlink" x="0px" y="0px"
	 width="130px" height="116px" viewBox="0 0 130 116" enable-background="new 0 0 130 116" xml:space="preserve">
<line fill="none" stroke="#FEE7AB" stroke-width="2" stroke-linecap="round" stroke-linejoin="round" stroke-miterlimit="10" x1="125.7597656" y1="17.0097656" x2="119.9394531" y2="39.4902344"/>
<polygon fill="none" stroke="#FEE7AB" stroke-width="2" stroke-linecap="round" stroke-linejoin="round" stroke-miterlimit="10" points="
	80.0703125,1.3701172 129,18.1699219 123.4296875,39.3999023 101.8701172,39.3999023 101.8701172,115 65,115 65,115 28.1298828,115 
	28.1298828,39.3999023 6.5698242,39.3999023 1,18.1699219 49.9301758,1.3701172 "/>
<path fill="none" stroke="#FEE7AB" stroke-width="2" stroke-linecap="round" stroke-linejoin="round" stroke-miterlimit="10" d="
	M46.6098633,2.5898438c0,0,3.6103516,15.2001953,18.3901367,15.2001953c14.7792969,0,18.390625-15.2001953,18.390625-15.2001953"/>
<line fill="none" stroke="#FEE7AB" stroke-width="2" stroke-linecap="round" stroke-linejoin="round" stroke-miterlimit="10" x1="4.6201172" y1="17.0097656" x2="10.4399414" y2="39.4902344"/>
<path fill="none" stroke="#FEE7AB" stroke-width="2" stroke-linecap="round" stroke-linejoin="round" stroke-miterlimit="10" d="
	M27.5200195,9.1499023c0,0,4.9501953,4.8999023,4.4897461,14.7001953
	c-0.4599609,9.7998047-3.8798828,16.5698242-3.8798828,16.5698242"/>
<path fill="none" stroke="#FEE7AB" stroke-width="2" stroke-linecap="round" stroke-linejoin="round" stroke-miterlimit="10" d="
	M102.7998047,9.1499023c0,0-4.9501953,4.8999023-4.4892578,14.7001953
	c0.4589844,9.7998047,3.8789062,16.5698242,3.8789062,16.5698242"/>
<path fill="none" stroke="#FEE7AB" stroke-width="2" stroke-linecap="round" stroke-linejoin="round" stroke-miterlimit="10" d="
	M49.8398438,1c0,0,2.9799805,12.5200195,15.1601562,12.5200195C77.1796875,13.5200195,80.1601562,1,80.1601562,1"/>
<g>
</g>
<g>
</g>
<g>
</g>
<g>
</g>
<g>
</g>
<g>
</g>
</svg>
