<?xml version="1.0" encoding="utf-8"?>
<!-- Generator: Adobe Illustrator 16.2.0, SVG Export Plug-In . SVG Version: 6.00 Build 0)  -->
<!DOCTYPE svg PUBLIC "-//W3C//DTD SVG 1.1//EN" "http://www.w3.org/Graphics/SVG/1.1/DTD/svg11.dtd">
<svg version="1.1" id="Layer_1" xmlns="http://www.w3.org/2000/svg" xmlns:xlink="http://www.w3.org/1999/xlink" x="0px" y="0px"
	 width="215.0703125px" height="113.5102539px" viewBox="0 0 215.0703125 113.5102539"
	 enable-background="new 0 0 215.0703125 113.5102539" xml:space="preserve">
<g>
	<path fill="#FEE7AB" d="M142.6308594,92.590332c-0.3417969,0-0.6650391-0.1757812-0.8496094-0.4726562l-1.0605469-1.7099609
		c-0.2050781-0.3310547-0.2001953-0.7509766,0.0136719-1.0761719l1.2792969-1.9501953
		c0.2216797-0.3398438,0.6269531-0.5146484,1.0263672-0.4326172l3.8613281,0.75
		c0.3271484,0.0634766,0.6015625,0.2851562,0.7304688,0.5927734c0.1298828,0.3066406,0.0986328,0.6582031-0.0839844,0.9365234
		l-1.6308594,2.4902344c-0.1523438,0.2324219-0.3945312,0.390625-0.6679688,0.4375l-2.4492188,0.4199219
		C142.7431641,92.5854492,142.6865234,92.590332,142.6308594,92.590332z M142.7568359,89.8950195l0.3691406,0.5957031
		l1.3564453-0.2324219l0.5761719-0.8808594l-1.7412109-0.3378906L142.7568359,89.8950195z"/>
	<path fill="#FEE7AB" d="M156.5703125,103.4204102c-0.2851562,0-0.5615234-0.1220703-0.7548828-0.34375l-1.5302734-1.7597656
		c-0.2675781-0.3076172-0.3212891-0.7470703-0.1357422-1.1103516l1.7900391-3.5097656
		c0.1513672-0.296875,0.4394531-0.4980469,0.7695312-0.5390625c0.3359375-0.0400391,0.6591797,0.0878906,0.8769531,0.3388672
		l1.9394531,2.2392578c0.1806641,0.2089844,0.2675781,0.4833984,0.2382812,0.7587891l-0.2597656,2.4794922
		c-0.0419922,0.40625-0.328125,0.7460938-0.7207031,0.8574219l-1.9394531,0.5507812
		C156.7529297,103.4077148,156.6611328,103.4204102,156.5703125,103.4204102z M156.2373047,100.5141602l0.6708984,0.7705078
		l0.6777344-0.1923828l0.1435547-1.375l-0.6835938-0.7890625L156.2373047,100.5141602z"/>
	<path fill="#FEE7AB" d="M143.7109375,104.4399414c-0.296875,0-0.5849609-0.1328125-0.7773438-0.3710938l-1.2607422-1.5595703
		c-0.2451172-0.3027344-0.2919922-0.7197266-0.1201172-1.0693359l1.0302734-2.1005859
		c0.1787109-0.3652344,0.5449219-0.5917969,0.96875-0.5566406l3.9296875,0.2802734
		c0.3320312,0.0234375,0.6298828,0.2099609,0.7958984,0.4990234c0.1660156,0.2880859,0.1767578,0.6396484,0.0302734,0.9384766
		l-1.3105469,2.6708984c-0.1230469,0.2509766-0.3447266,0.4384766-0.6132812,0.5185547l-2.3886719,0.7089844
		C143.9013672,104.4262695,143.8056641,104.4399414,143.7109375,104.4399414z M143.6289062,101.7475586l0.4394531,0.5429688
		l1.3261719-0.3935547l0.4638672-0.9453125l-1.7773438-0.1259766L143.6289062,101.7475586z"/>
	<path fill="#FEE7AB" d="M161.4707031,83.8305664c-0.1367188,0-0.2734375-0.0273438-0.4023438-0.0849609
		c-0.3447266-0.1513672-0.5742188-0.4824219-0.5957031-0.8583984c-0.0117188-0.1757812-0.3046875-3.84375-4.3837891-6.1464844
		c-1.8017578-1.0126953-3.9365234-1.2246094-5.4091797-1.2246094c-1.3046875,0-2.2294922,0.1650391-2.2392578,0.1669922
		c-0.3271484,0.0605469-0.6660156-0.0488281-0.8974609-0.2880859c-0.2324219-0.2392578-0.3310547-0.5791016-0.2607422-0.90625
		c0.0117188-0.0566406,1.1943359-5.7402344-1.3027344-8.5771484c-2.0048828-2.2832031-3.3808594-2.3964844-7.9404297-2.7705078
		l-0.3007812-0.0244141c-0.2988281-0.0253906-0.5703125-0.1826172-0.7412109-0.4287109
		c-0.1699219-0.2460938-0.2207031-0.5566406-0.1376953-0.8447266l17.5498047-61.1186523
		c0.0732422-0.2548828,0.2441406-0.4707031,0.4765625-0.5991211c0.2314453-0.128418,0.5048828-0.1601562,0.7607422-0.0859375
		c11.4833984,3.2998047,22.4287109,8.331543,32.5322266,14.9541016
		C198.25,21.6069336,207.2207031,29.6445312,214.8417969,38.8837891c0.1689453,0.2045898,0.2490234,0.4682617,0.2236328,0.7324219
		s-0.1542969,0.5073242-0.359375,0.6757812l-52.5996094,43.3110352
		C161.9238281,83.7524414,161.6982422,83.8305664,161.4707031,83.8305664z M150.6796875,73.5161133
		c1.7109375,0,4.2089844,0.2568359,6.390625,1.4814453c3.1933594,1.8027344,4.5009766,4.3339844,5.0351562,6.015625
		l50.5537109-41.6264648C205.3046875,30.625,196.7041016,22.984375,187.0820312,16.6660156
		c-9.6533203-6.3276367-20.0869141-11.1777344-31.0283203-14.4238281l-16.9355469,58.9819336
		c4.1162109,0.3486328,5.9941406,0.6699219,8.3632812,3.3662109c2.3261719,2.6425781,2.2138672,6.8261719,1.9667969,8.9677734
		C149.8066406,73.5336914,150.2226562,73.5161133,150.6796875,73.5161133z"/>
	<path fill="#FEE7AB" d="M204.9404297,47.9301758c-0.2587891,0-0.5175781-0.1000977-0.7138672-0.2998047
		c-0.140625-0.1435547-14.1992188-14.4277344-23.8457031-20.7539062
		c-9.6484375-6.3378906-28.3408203-13.5507812-28.5283203-13.6225586c-0.515625-0.1982422-0.7734375-0.7768555-0.5751953-1.2924805
		c0.1992188-0.515625,0.7753906-0.7724609,1.2919922-0.574707c0.7744141,0.2978516,19.0830078,7.362793,28.9091797,13.8173828
		c9.8271484,6.4453125,23.5947266,20.4331055,24.1757812,21.0258789c0.3867188,0.394043,0.3808594,1.0268555-0.0136719,1.4140625
		C205.4462891,47.8349609,205.1933594,47.9301758,204.9404297,47.9301758z"/>
	<path fill="#FEE7AB" d="M162.4423828,30.0576172c-1.2744141,0-2.5126953-0.3701172-3.5810547-1.0712891
		c-3.0146484-1.9892578-3.8554688-6.0595703-1.8769531-9.074707c1.2158203-1.8525391,3.265625-2.9589844,5.484375-2.9589844
		c1.2744141,0,2.5117188,0.3706055,3.5800781,1.0717773c3.0214844,1.9868164,3.8671875,6.0571289,1.8867188,9.074707
		C166.7128906,28.9526367,164.6591797,30.0576172,162.4423828,30.0576172z M162.46875,18.9526367
		c-1.5419922,0-2.9677734,0.7685547-3.8125,2.0561523c-1.375,2.0957031-0.7900391,4.9248047,1.3046875,6.3071289
		c0.7392578,0.4848633,1.5986328,0.7416992,2.4814453,0.7416992c1.5429688,0,2.9716797-0.769043,3.8222656-2.0581055
		c1.375-2.0942383,0.7861328-4.9228516-1.3144531-6.3037109C164.2099609,19.2099609,163.3515625,18.9526367,162.46875,18.9526367z"
		/>
	<path fill="#FEE7AB" d="M163.5595703,79.6674805c-1.2753906,0-2.515625-0.3701172-3.5869141-1.0703125
		c-3.015625-1.9912109-3.8564453-6.0605469-1.8789062-9.0751953c1.2148438-1.8515625,3.2626953-2.9570312,5.4765625-2.9570312
		c1.2792969,0,2.5205078,0.3740234,3.5917969,1.0820312c1.4599609,0.9541016,2.4628906,2.4238281,2.8203125,4.1357422
		c0.3574219,1.7128906,0.0253906,3.4628906-0.9355469,4.9267578
		C167.8300781,78.5620117,165.7792969,79.6674805,163.5595703,79.6674805z M163.5703125,68.5649414
		c-1.5380859,0-2.9599609,0.7685547-3.8046875,2.0546875c-1.3740234,2.0947266-0.7890625,4.9238281,1.3046875,6.3056641
		c0.7412109,0.4853516,1.6035156,0.7421875,2.4892578,0.7421875c1.5439453,0,2.9697266-0.7685547,3.8154297-2.0556641
		c0.6669922-1.0166016,0.8974609-2.2314453,0.6494141-3.4208984c-0.2480469-1.1875-0.9443359-2.2080078-1.9609375-2.8730469
		C165.3164062,68.824707,164.4560547,68.5649414,163.5703125,68.5649414z"/>
	<path fill="#FEE7AB" d="M185.9248047,52.1079102c-1.2753906,0-2.5146484-0.3706055-3.5830078-1.0717773
		c-3.0146484-1.9897461-3.8564453-6.0600586-1.8769531-9.074707c1.2148438-1.8510742,3.2617188-2.9560547,5.4755859-2.9560547
		c1.2783203,0,2.5195312,0.3735352,3.5908203,1.0805664c1.4609375,0.9541016,2.4638672,2.4238281,2.8203125,4.1347656
		c0.3574219,1.7133789,0.0253906,3.4633789-0.9355469,4.9277344
		C190.2001953,51.0014648,188.1474609,52.1079102,185.9248047,52.1079102z M185.9404297,41.0053711
		c-1.5380859,0-2.9599609,0.7675781-3.8037109,2.0532227c-1.375,2.0952148-0.7900391,4.9243164,1.3046875,6.3071289
		c0.7392578,0.4848633,1.5986328,0.7421875,2.4833984,0.7421875c1.546875,0,2.9746094-0.7685547,3.8193359-2.0561523
		c0.6669922-1.0175781,0.8984375-2.2329102,0.6494141-3.4228516c-0.2470703-1.1870117-0.9433594-2.2070312-1.9599609-2.871582
		C187.6865234,41.2646484,186.8261719,41.0053711,185.9404297,41.0053711z"/>
	<path fill="#FEE7AB" d="M165.5615234,58.550293c-0.2832031,0-0.5625-0.1191406-0.7587891-0.3476562l-3.7216797-4.3217773
		c-0.6240234,1.2192383-1.6894531,2.3686523-3.3085938,2.3686523c-0.9052734,0-1.8730469-0.375-2.8759766-1.1147461
		c-3.7207031-2.75-3.6679688-7.4672852,0.1484375-13.2832031c1.7568359-2.6787109,5.0400391-4.4790039,8.1699219-4.4790039
		c1.7519531,0,3.2314453,0.5761719,4.2763672,1.6655273c0.9150391,0.956543,0.96875,1.9360352,0.8525391,2.5898438
		c-0.3222656,1.8183594-2.3945312,3.3759766-3.7841797,4.2333984l7.3417969,7.0053711
		c0.2167969,0.2070312,0.3291016,0.5,0.3066406,0.7988281s-0.1777344,0.5717773-0.4228516,0.7436523l-5.6503906,3.9604492
		C165.9609375,58.4907227,165.7597656,58.550293,165.5615234,58.550293z M160.7216797,50.9311523
		c0.2871094,0,0.5644531,0.1230469,0.7568359,0.3466797l4.2490234,4.934082l3.9101562-2.7402344l-7.4375-7.0976562
		c-0.2363281-0.2255859-0.3466797-0.5522461-0.2978516-0.875c0.0498047-0.3227539,0.2539062-0.6010742,0.546875-0.7456055
		c1.5068359-0.7436523,3.7207031-2.3129883,3.9257812-3.4750977c0.0351562-0.2021484,0.0302734-0.4819336-0.328125-0.8564453
		c-0.8320312-0.8671875-1.9990234-1.0493164-2.8320312-1.0493164c-2.4443359,0-5.1162109,1.4707031-6.4980469,3.5761719
		c-2.2265625,3.3930664-4.1435547,7.9824219-0.6318359,10.5771484c0.6416016,0.4731445,1.2255859,0.7236328,1.6875,0.7236328
		c1.3945312,0,1.9638672-2.4990234,1.9697266-2.5244141c0.0791016-0.371582,0.3613281-0.6679688,0.7294922-0.762207
		C160.5546875,50.9418945,160.6386719,50.9311523,160.7216797,50.9311523z"/>
</g>
<g>
	<path fill="#FEE7AB" d="M51.9902344,104.0102539c-0.3540039,0-0.6889648-0.1884766-0.8691406-0.5058594L27.2509766,61.5336914
		L0.1376953,15.3466797c-0.1352539-0.2304688-0.1728516-0.5053711-0.1040039-0.7636719
		c0.0688477-0.2578125,0.237793-0.4780273,0.4697266-0.6108398C9.2866211,8.9462891,18.7973633,5.2661133,28.7719727,3.0341797
		C38.7368164,0.8046875,48.9980469,0.0625,59.0771484,0.8432617c0.550293,0.0424805,0.9619141,0.5224609,0.9199219,1.0727539
		l-4.3295898,56.980957l-2.6791992,44.1738281c-0.0268555,0.4414062-0.3408203,0.8134766-0.7719727,0.9130859
		C52.1411133,104.0014648,52.0649414,104.0102539,51.9902344,104.0102539z M2.3769531,15.2104492l26.6054688,45.3232422
		L51.1958008,99.590332l2.4765625-40.8300781l4.2543945-55.9951172c-9.5834961-0.644043-19.2739258,0.1079102-28.7182617,2.2211914
		C19.762207,7.0996094,10.7402344,10.5380859,2.3769531,15.2104492z"/>
	<path fill="#FEE7AB" d="M6.0708008,24.3500977c-0.3774414,0-0.7392578-0.2148438-0.9082031-0.5805664
		c-0.2319336-0.5009766-0.0131836-1.0952148,0.4882812-1.3271484c0.637207-0.2944336,15.7177734-7.2397461,25.4394531-9.4277344
		c9.7231445-2.1787109,26.3774414-2.3383789,27.081543-2.3442383c0.0029297,0,0.0058594,0,0.0083008,0
		c0.5488281,0,0.9956055,0.4423828,1,0.9916992c0.0043945,0.5522461-0.4394531,1.0039062-0.9916992,1.0083008
		c-0.1704102,0.0014648-17.1464844,0.1640625-26.659668,2.2954102c-9.5126953,2.1411133-24.8847656,9.2207031-25.0390625,9.2919922
		C6.3540039,24.3208008,6.2114258,24.3500977,6.0708008,24.3500977z"/>
	<path fill="#FEE7AB" d="M18.9345703,29.3271484c-2.6699219,0-4.9589844-1.8085938-5.5678711-4.3984375
		c-0.3398438-1.4711914-0.0854492-2.9824219,0.7158203-4.2573242c0.8085938-1.2866211,2.0756836-2.1806641,3.5678711-2.5166016
		c0.4165039-0.09375,0.8422852-0.1411133,1.2651367-0.1411133c2.6787109,0,4.96875,1.8144531,5.5688477,4.4116211
		c0.3452148,1.4614258,0.09375,2.972168-0.7089844,4.2490234c-0.8105469,1.2900391-2.0820312,2.1821289-3.5795898,2.5126953
		C19.7841797,29.2797852,19.3583984,29.3271484,18.9345703,29.3271484z M18.9155273,20.0136719
		c-0.2758789,0-0.5537109,0.03125-0.8261719,0.0922852c-0.9682617,0.2182617-1.7905273,0.796875-2.3134766,1.6293945
		c-0.5161133,0.8212891-0.6796875,1.7939453-0.4614258,2.7397461c0.3945312,1.6777344,1.8833008,2.8520508,3.6201172,2.8520508
		c0.2758789,0,0.5541992-0.0307617,0.8261719-0.0922852c0.9750977-0.2148438,1.7978516-0.7915039,2.3212891-1.6245117
		c0.5151367-0.8203125,0.6767578-1.7895508,0.4550781-2.7304688C22.152832,21.2172852,20.6303711,20.0136719,18.9155273,20.0136719z
		"/>
	<path fill="#FEE7AB" d="M49.965332,57.5571289c-2.6782227,0-4.9682617-1.8100586-5.5693359-4.4008789
		c-0.3432617-1.4599609-0.0927734-2.9677734,0.7050781-4.2426758c0.809082-1.2929688,2.0805664-2.1914062,3.5795898-2.5288086
		c0.4160156-0.09375,0.8422852-0.1416016,1.2661133-0.1416016c2.6689453,0,4.9580078,1.8085938,5.5668945,4.3979492
		c0.3398438,1.472168,0.0854492,2.9829102-0.715332,4.2578125c-0.8085938,1.2866211-2.0756836,2.1806641-3.5683594,2.5170898
		C50.8134766,57.5092773,50.3881836,57.5571289,49.965332,57.5571289z M49.9467773,48.2431641
		c-0.2763672,0-0.5541992,0.03125-0.8266602,0.0927734c-0.9746094,0.2192383-1.7998047,0.8012695-2.3237305,1.6386719
		c-0.5126953,0.8193359-0.6733398,1.7875977-0.4526367,2.7265625c0.4453125,1.9223633,2.4799805,3.2016602,4.4477539,2.7636719
		c0.9682617-0.2182617,1.7900391-0.7973633,2.3129883-1.6298828c0.5161133-0.8212891,0.6796875-1.7939453,0.4614258-2.7397461
		C53.1713867,49.4174805,51.6826172,48.2431641,49.9467773,48.2431641z"/>
	<path fill="#FEE7AB" d="M46.2036133,27.9970703c-2.6791992,0-4.96875-1.8100586-5.5673828-4.4018555
		c-0.3393555-1.4677734-0.0849609-2.9790039,0.7163086-4.2539062c0.8085938-1.2866211,2.0756836-2.1806641,3.5678711-2.5166016
		c0.4160156-0.09375,0.8422852-0.1411133,1.2661133-0.1411133c2.6791992,0,4.9692383,1.8095703,5.5678711,4.4013672
		c0.3393555,1.4682617,0.0849609,2.9790039-0.7158203,4.2539062c-0.8085938,1.2866211-2.0761719,2.1806641-3.5688477,2.5170898
		C47.0537109,27.949707,46.6274414,27.9970703,46.2036133,27.9970703z M46.1865234,18.6835938
		c-0.2763672,0-0.5546875,0.0307617-0.8266602,0.0922852c-0.96875,0.2182617-1.7910156,0.796875-2.3139648,1.6293945
		c-0.5161133,0.8212891-0.6796875,1.7939453-0.4614258,2.7397461c0.4433594,1.9189453,2.4858398,3.2016602,4.4458008,2.7597656
		c0.9692383-0.2182617,1.7915039-0.7973633,2.3144531-1.6303711c0.5161133-0.8208008,0.6796875-1.793457,0.4614258-2.7392578
		C49.4238281,19.8828125,47.9018555,18.6835938,46.1865234,18.6835938z"/>
	<path fill="#FEE7AB" d="M32.7929688,46.9091797c-3.440918,0-5.9057617-2.7773438-7.1269531-8.0322266
		c-0.5595703-2.4082031,0.0800781-5.2241211,1.6293945-7.1748047c1.1176758-1.4072266,2.5678711-2.1821289,4.0839844-2.1821289
		c1.206543,0.0073242,1.8754883,0.5878906,2.2265625,1.0737305c0.9067383,1.2529297,0.7143555,3.2817383,0.4301758,4.6621094
		l8.4033203-0.3447266c0.3032227-0.0024414,0.5874023,0.1098633,0.7871094,0.3330078
		c0.1992188,0.2231445,0.2880859,0.5239258,0.2421875,0.8198242l-0.8901367,5.7202148
		c-0.0791016,0.5078125-0.5209961,0.8676758-1.0439453,0.8447266l-4.6030273-0.2568359
		c0.2265625,0.737793,0.3261719,1.6240234-0.0249023,2.456543c-0.4462891,1.059082-1.4633789,1.7280273-3.0219727,1.987793
		C33.5146484,46.8779297,33.1474609,46.9091797,32.7929688,46.9091797z M31.3837891,31.5200195
		c-0.8974609,0-1.7919922,0.5063477-2.5224609,1.4262695c-1.1660156,1.4682617-1.6674805,3.6694336-1.2470703,5.4775391
		c0.6875,2.9589844,2.144043,6.4853516,5.1787109,6.4853516c0.2446289,0,0.5009766-0.0219727,0.7626953-0.0654297
		c0.5751953-0.0957031,1.3032227-0.3105469,1.5073242-0.7895508c0.2709961-0.6367188-0.2709961-1.7612305-0.5756836-2.2055664
		c-0.2158203-0.3144531-0.2348633-0.7255859-0.0478516-1.0576172c0.1875-0.3320312,0.5488281-0.5239258,0.9262695-0.5092773
		l5.3759766,0.2998047l0.5634766-3.6225586l-8.5336914,0.3500977c-0.3349609,0.0107422-0.6391602-0.1337891-0.8364258-0.3935547
		c-0.1977539-0.2597656-0.2563477-0.6005859-0.1567383-0.9116211c0.4052734-1.2651367,0.7514648-3.4873047,0.2070312-4.2382812
		C31.9282227,31.6865234,31.8095703,31.5224609,31.3837891,31.5200195z"/>
	<path fill="#FEE7AB" d="M43.8183594,80.4038086c-0.0004883,0-0.0004883,0-0.0004883,0
		c-1.1870117,0-2.2563477-0.3535156-3.0922852-1.0224609c-0.9272461-0.7382812-1.0893555-1.6035156-1.0615234-2.1992188
		c0.0722656-1.5390625,1.5068359-3.0029297,2.6049805-3.9042969l-6.7763672-4.9179688
		c-0.2441406-0.1777344-0.3950195-0.4550781-0.4111328-0.7558594s0.1040039-0.5927734,0.3276367-0.7949219l4.3100586-3.8994141
		c0.3779297-0.34375,0.9526367-0.3457031,1.3344727-0.0068359l3.4521484,3.0615234
		c0.4711914-1.1503906,1.3754883-2.2451172,2.9448242-2.2451172c0.6875,0,1.4418945,0.2236328,2.2426758,0.6650391
		c3.5107422,1.9326172,4.0141602,5.9355469,1.4160156,11.2734375C49.7661133,78.4086914,46.699707,80.4038086,43.8183594,80.4038086
		z M37.6650391,67.465332l6.8828125,4.9951172c0.2661133,0.1933594,0.4199219,0.5048828,0.4121094,0.8330078
		c-0.0078125,0.3291016-0.1767578,0.6328125-0.4516602,0.8134766c-1.1230469,0.7363281-2.8041992,2.2529297-2.8461914,3.1699219
		c-0.0043945,0.0917969-0.0131836,0.2832031,0.3110352,0.5410156c0.4863281,0.3886719,1.1064453,0.5859375,1.8447266,0.5859375
		c2.0888672,0,4.5019531-1.5908203,5.4941406-3.6220703c1.4570312-2.9951172,2.5395508-6.9267578-0.5834961-8.6455078
		c-0.4951172-0.2724609-0.9365234-0.4169922-1.277832-0.4169922c-1.1625977,0-1.371582,2.1425781-1.3730469,2.1640625
		c-0.027832,0.3789062-0.2685547,0.7099609-0.6210938,0.8535156c-0.3520508,0.1396484-0.7553711,0.0732422-1.0400391-0.1787109
		l-4.0195312-3.5644531L37.6650391,67.465332z"/>
</g>
<g>
	<path fill="#FEE7AB" d="M102.9902344,113.5102539c-10.6674805,0-21.1972656-1.5898438-31.2963867-4.7246094
		c-0.5273438-0.1640625-0.8222656-0.7236328-0.6586914-1.2509766L88.875,49.984375l13.1557617-44.7563477
		c0.125-0.425293,0.515625-0.7177734,0.9589844-0.7177734h0.0004883c0.4433594,0,0.8334961,0.2919922,0.9589844,0.7172852
		l14.3398438,48.6098633l16.65625,53.6972656c0.1640625,0.5273438-0.1308594,1.0869141-0.6582031,1.2509766
		C124.1875,111.9204102,113.6582031,113.5102539,102.9902344,113.5102539z M73.2426758,107.1674805
		c9.6152344,2.8818359,19.6171875,4.3427734,29.7475586,4.3427734c10.1298828,0,20.1318359-1.4609375,29.7470703-4.3427734
		L116.375,54.4165039L102.9921875,9.050293L90.7895508,50.5625L73.2426758,107.1674805z"/>
	<path fill="#FEE7AB" d="M102.9902344,102.7202148c-10.3881836,0-27.3461914-3.6669922-28.0629883-3.8222656
		c-0.5395508-0.1181641-0.8818359-0.6503906-0.7641602-1.1904297c0.1176758-0.5390625,0.6503906-0.8837891,1.1899414-0.7646484
		c0.1733398,0.0380859,17.4658203,3.7773438,27.637207,3.7773438c10.1748047,0,27.4638672-3.7392578,27.6367188-3.7773438
		c0.5458984-0.1201172,1.0722656,0.2255859,1.1904297,0.7646484c0.1171875,0.5400391-0.2255859,1.0722656-0.7646484,1.1904297
		C130.3359375,99.0532227,113.3789062,102.7202148,102.9902344,102.7202148z"/>
	<path fill="#FEE7AB" d="M117.8603516,100.5297852c-3.2587891,0-5.9101562-2.6513672-5.9101562-5.9101562
		c0-3.2529297,2.6513672-5.8994141,5.9101562-5.8994141c3.2529297,0,5.8994141,2.6464844,5.8994141,5.8994141
		C123.7597656,97.878418,121.1132812,100.5297852,117.8603516,100.5297852z M117.8603516,90.7202148
		c-2.15625,0-3.9101562,1.7490234-3.9101562,3.8994141c0,2.15625,1.7539062,3.9101562,3.9101562,3.9101562
		c2.1503906,0,3.8994141-1.7539062,3.8994141-3.9101562C121.7597656,92.4692383,120.0107422,90.7202148,117.8603516,90.7202148z"/>
	<path fill="#FEE7AB" d="M93,64.3901367c-3.2587891,0-5.909668-2.6464844-5.909668-5.8994141
		c0-3.2592773,2.6508789-5.9106445,5.909668-5.9106445c3.253418,0,5.9003906,2.6513672,5.9003906,5.9106445
		C98.9003906,61.7436523,96.253418,64.3901367,93,64.3901367z M93,54.5800781c-2.1557617,0-3.909668,1.7543945-3.909668,3.9106445
		c0,2.1503906,1.7539062,3.8994141,3.909668,3.8994141c2.1508789,0,3.9003906-1.7490234,3.9003906-3.8994141
		C96.9003906,56.3344727,95.1508789,54.5800781,93,54.5800781z"/>
	<path fill="#FEE7AB" d="M89.8300781,95.6196289c-3.253418,0-5.8999023-2.6464844-5.8999023-5.8994141
		c0-3.2587891,2.6464844-5.9101562,5.8999023-5.9101562c3.2587891,0,5.9101562,2.6513672,5.9101562,5.9101562
		C95.7402344,92.9731445,93.0888672,95.6196289,89.8300781,95.6196289z M89.8300781,85.8100586
		c-2.1503906,0-3.8999023,1.7539062-3.8999023,3.9101562c0,2.1503906,1.7495117,3.8994141,3.8999023,3.8994141
		c2.15625,0,3.9101562-1.7490234,3.9101562-3.8994141C93.7402344,87.5639648,91.9863281,85.8100586,89.8300781,85.8100586z"/>
	<path fill="#FEE7AB" d="M107.6162109,85.8110352c0,0,0,0-0.0004883,0c-0.3476562,0-0.6943359-0.0390625-1.0302734-0.1162109
		c-1.1850586-0.2734375-1.722168-1.0029297-1.9638672-1.5664062c-0.6430664-1.4990234,0.0595703-3.5722656,0.6787109-4.9189453
		l-8.6611328-1.5957031c-0.2939453-0.0537109-0.5483398-0.2373047-0.6933594-0.4980469
		c-0.1450195-0.2617188-0.1655273-0.5742188-0.0556641-0.8525391l2.2397461-5.6699219
		c0.1894531-0.4794922,0.7133789-0.734375,1.2060547-0.59375l4.6928711,1.3457031
		c-0.0673828-0.7978516,0.0205078-1.7265625,0.546875-2.5019531c0.4614258-0.6816406,1.434082-1.4990234,3.5400391-1.3808594
		c4.1557617,0.2304688,6.4448242,3.78125,6.4448242,9.9980469c0,1.9814453-0.7548828,4.0527344-2.0703125,5.6835938
		C111.1230469,84.8393555,109.3466797,85.8110352,107.6162109,85.8110352z M98.1967773,75.8666992l8.7944336,1.6201172
		c0.3208008,0.0585938,0.5927734,0.2714844,0.7285156,0.5683594c0.1352539,0.296875,0.1171875,0.6416016-0.0483398,0.9228516
		c-0.7407227,1.2587891-1.6064453,3.4443359-1.2114258,4.3632812c0.0644531,0.1494141,0.1831055,0.3144531,0.5751953,0.4042969
		c0.1884766,0.0439453,0.3842773,0.0654297,0.5810547,0.0654297l0,0c1.1225586,0,2.3320312-0.7001953,3.3173828-1.9228516
		c1.0341797-1.28125,1.6269531-2.8955078,1.6269531-4.4277344c0-3.5351562-0.7900391-7.7919922-4.5561523-8.0019531
		c-0.9077148-0.0449219-1.5102539,0.1230469-1.7724609,0.5058594c-0.4584961,0.6708984-0.0947266,2.0195312,0.0688477,2.4394531
		c0.1376953,0.3544922,0.0639648,0.7578125-0.1923828,1.0380859c-0.2558594,0.2822266-0.6489258,0.3945312-1.0141602,0.2890625
		l-5.4375-1.5595703L98.1967773,75.8666992z"/>
	<path fill="#FEE7AB" d="M105.4907227,49.6103516c-0.3144531,0-0.6230469-0.1484375-0.8164062-0.421875l-2.8183594-3.9780273
		c-0.6264648,0.9213867-1.5688477,1.737793-2.8359375,1.737793c-0.909668,0-1.8447266-0.425293-2.7783203-1.2641602
		c-3.0961914-2.7910156-2.6630859-6.9951172,1.2182617-11.8393555c1.6206055-2.0288086,4.3544922-3.3408203,6.9638672-3.3408203
		c1.8666992,0,3.4296875,0.6772461,4.4008789,1.90625c0.7543945,0.9555664,0.7182617,1.8608398,0.5541992,2.4516602
		c-0.4365234,1.5737305-2.2822266,2.7524414-3.6083984,3.4160156l5.7666016,6.6679688
		c0.1953125,0.2265625,0.2792969,0.5288086,0.2285156,0.8237305s-0.2304688,0.5517578-0.4912109,0.699707l-5.2895508,3.0102539
		C105.8291016,49.5678711,105.6591797,49.6103516,105.4907227,49.6103516z M101.7006836,42.2617188
		c0.3208008,0,0.6264648,0.1538086,0.8154297,0.4204102l3.2666016,4.6113281l3.4448242-1.9604492l-5.8535156-6.7685547
		c-0.2133789-0.2470703-0.2929688-0.5830078-0.2128906-0.8994141s0.3095703-0.5742188,0.6147461-0.6899414
		c1.3657227-0.5185547,3.4091797-1.6831055,3.6757812-2.6479492c0.043457-0.1572266,0.0541992-0.3603516-0.1962891-0.6767578
		c-0.5839844-0.7392578-1.5898438-1.1464844-2.831543-1.1464844c-1.9936523,0-4.1645508,1.0410156-5.4023438,2.590332
		c-2.2084961,2.7563477-4.25,6.5717773-1.4418945,9.1035156c0.5463867,0.4907227,1.0449219,0.7504883,1.4404297,0.7504883
		c0.8994141,0,1.5634766-1.4697266,1.7250977-1.984375c0.1137695-0.362793,0.4238281-0.6308594,0.7993164-0.6899414
		C101.5966797,42.265625,101.6489258,42.2617188,101.7006836,42.2617188z"/>
</g>
<g>
</g>
<g>
</g>
<g>
</g>
<g>
</g>
<g>
</g>
<g>
</g>
</svg>
