<?xml version="1.0" encoding="utf-8"?>
<!-- Generator: Adobe Illustrator 16.2.0, SVG Export Plug-In . SVG Version: 6.00 Build 0)  -->
<!DOCTYPE svg PUBLIC "-//W3C//DTD SVG 1.1//EN" "http://www.w3.org/Graphics/SVG/1.1/DTD/svg11.dtd">
<svg version="1.1" id="Layer_1" xmlns="http://www.w3.org/2000/svg" xmlns:xlink="http://www.w3.org/1999/xlink" x="0px" y="0px"
	 width="18.5844727px" height="13.3359375px" viewBox="0 0 18.5844727 13.3359375"
	 enable-background="new 0 0 18.5844727 13.3359375" xml:space="preserve">
<path fill="#FBBC16" d="M1.4741211,2.7753906l0.340332,0.2099609l0.699707,0.25L2.734375,3.265625
	c0.2597656,0.0302734,0.6396484,0.1699219,0.8598633,0.3203125L3.684082,3.6455078
	C3.9741211,3.8359375,4.0644531,4.2353516,3.894043,4.5253906L2.9941406,6.0556641
	c-0.1000977,0.1699219-0.199707,0.5-0.2197266,0.6894531L2.7041016,7.7558594l0.1103516,0.7294922l0.0996094,0.2705078
	C3.0141602,9.0351562,2.984375,9.4355469,2.8442383,9.7060547l-1.1298828,2.1298828
	c0.1396484,0.0097656,0.2700195,0.0498047,0.3500977,0.109375c0.1499023,0.1103516,0.3798828,0.2304688,0.5297852,0.2705078
	c0.1499023,0.0292969,0.3999023,0.2001953,0.5698242,0.359375l0.4599609,0.4599609
	c0.1601562,0.1708984,0.4902344,0.3007812,0.7202148,0.3007812h0.2099609c0.2402344,0,0.6201172-0.0205078,0.8500977-0.0400391
	l0.3500977-0.0400391c0.2299805-0.0302734,0.5698242-0.1103516,0.75-0.1806641
	c0.1899414-0.0693359,0.5297852-0.1591797,0.75-0.1992188l1.5498047-0.2607422
	c0.2299805-0.0400391,0.5898438-0.1591797,0.7998047-0.2597656l0.5703125-0.2900391
	c0.2099609-0.0996094,0.5097656-0.3203125,0.6796875-0.4794922l2.0507812-2.0605469
	c0.1699219-0.1601562,0.2988281-0.4902344,0.2988281-0.7197266V8.3251953c0-0.2294922,0.0908203-0.5400391,0.2011719-0.6894531
	c0.109375-0.140625,0.2792969-0.4404297,0.3789062-0.6503906l0.3105469-0.6894531
	c0.0898438-0.2099609,0.3398438-0.4804688,0.5400391-0.5898438l2.0498047-1.1708984
	c0.2001953-0.1191406,0.5195312-0.3291016,0.7099609-0.4697266l0.9101562-0.6796875
	c0.1005859-0.0800781,0.2001953-0.1904297,0.2802734-0.3105469l-0.6904297-0.5
	c-0.1396484-0.0996094-0.3603516-0.1298828-0.4501953-0.0898438l-0.7792969,0.2001953l-0.4003906,0.0595703
	c-0.2998047,0.0400391-0.6894531-0.0996094-0.890625-0.3193359l-0.1386719-0.1699219
	c-0.1308594-0.1298828-0.390625-0.2705078-0.5703125-0.2998047l-0.5800781-0.0703125l-0.8603516-0.1796875l-1.2998047-0.3808594
	c-0.2695312-0.0800781-0.609375-0.3193359-0.7597656-0.5595703l-0.390625-0.5703125l-0.0800781,0.0898438
	c-0.1494141,0.1806641-0.4589844,0.3300781-0.699707,0.3505859L6.3339844,0.8457031
	C6.1040039,0.8652344,5.7241211,0.8251953,5.5043945,0.765625L3.8041992,0.3154297
	C3.5742188,0.2558594,3.2041016,0.1757812,2.9741211,0.1455078L2.0839844,0.0058594
	c-0.2299805-0.0302734-0.5595703,0.0595703-0.75,0.2099609L0.5341797,0.8652344
	C0.3540039,1.015625,0.1743164,1.3251953,0.1240234,1.5556641L0.0244141,2.0458984
	C-0.0058594,2.1855469-0.0058594,2.3554688,0.0141602,2.515625h0.5698242
	C0.8540039,2.515625,1.2441406,2.6259766,1.4741211,2.7753906z"/>
<g>
</g>
<g>
</g>
<g>
</g>
<g>
</g>
<g>
</g>
<g>
</g>
</svg>
