<?xml version="1.0" encoding="utf-8"?>
<!-- Generator: Adobe Illustrator 16.2.0, SVG Export Plug-In . SVG Version: 6.00 Build 0)  -->
<!DOCTYPE svg PUBLIC "-//W3C//DTD SVG 1.1//EN" "http://www.w3.org/Graphics/SVG/1.1/DTD/svg11.dtd">
<svg version="1.1" id="Layer_1" xmlns="http://www.w3.org/2000/svg" xmlns:xlink="http://www.w3.org/1999/xlink" x="0px" y="0px"
	 width="9.78125px" height="13.2089844px" viewBox="0 0 9.78125 13.2089844" enable-background="new 0 0 9.78125 13.2089844"
	 xml:space="preserve">
<path fill="#FBBC16" d="M2.3730469,11.9101562l-0.2402344,0.0605469c-0.2197266,0.0498047-0.5898438,0.1699219-0.8095703,0.25
	l-0.6601562,0.2392578c-0.2202148,0.0800781-0.4902344,0.2607422-0.6000977,0.4101562
	c-0.1098633,0.140625-0.0698242,0.2900391,0.0698242,0.3300781c0.1503906,0.0302734,0.4404297-0.0195312,0.6503906-0.1201172
	l0.0297852-0.0195312c0.2099609-0.1103516,0.5698242-0.1601562,0.7998047-0.1103516l0.4902344,0.1005859
	c0.2299805,0.0390625,0.6000977,0.0195312,0.8198242-0.0605469L3.5830078,12.75
	c0.2202148-0.0800781,0.5898438-0.1699219,0.8198242-0.1992188L7.0029297,12.25
	c0.2294922-0.0195312,0.6103516-0.0898438,0.8408203-0.1494141l0.2392578-0.0605469
	c0.2197266-0.0595703,0.3095703-0.2695312,0.2001953-0.4697266l-0.1103516-0.1904297
	c-0.1201172-0.1992188-0.1201172-0.4892578-0.0097656-0.6396484c0.1005859-0.1396484,0.3701172-0.3398438,0.5800781-0.4296875
	L8.8925781,10.25c0.2207031-0.0898438,0.5302734-0.2998047,0.6904297-0.4697266l0.0693359-0.0595703
	C9.8125,9.5507812,9.8232422,9.2705078,9.6835938,9.0898438L9.5527344,8.9501953
	C9.4023438,8.7705078,9.09375,8.6005859,8.8632812,8.5605469L8.7734375,8.5507812
	C8.5429688,8.5205078,8.203125,8.6103516,8.0234375,8.75C7.84375,8.9003906,7.6328125,8.8398438,7.5527344,8.6201172
	L6.9023438,6.7705078c-0.0693359-0.2197266-0.25-0.5605469-0.3789062-0.75L5.8129883,4.9902344
	C5.6831055,4.8007812,5.4428711,4.5,5.2832031,4.3300781L4.5332031,3.5
	C4.3730469,3.3300781,4.0532227,3.1806641,3.8232422,3.1806641H3.6030273c-0.2299805,0-0.2900391-0.140625-0.1298828-0.3105469
	l0.8798828-0.9599609c0.1601562-0.1796875,0.2001953-0.4394531,0.0898438-0.5800781
	c-0.1098633-0.1494141-0.3798828-0.3095703-0.6098633-0.359375L3.4628906,0.890625
	C3.2431641,0.8398438,3.0229492,0.6201172,2.9829102,0.4003906C2.953125,0.1806641,2.8032227,0,2.652832,0
	C2.5131836,0,2.2329102,0.1103516,2.0332031,0.2402344L1.5429688,0.5605469
	C1.3530273,0.6904297,1.112793,0.9707031,1.0029297,1.1806641l-0.409668,0.8300781
	c-0.1103516,0.2099609-0.1303711,0.5595703-0.050293,0.7792969l0.2402344,0.6601562
	C0.862793,3.6699219,0.8730469,4,0.7929688,4.1806641C0.7231445,4.3603516,0.7128906,4.7001953,0.7631836,4.9199219
	l0.0600586,0.2402344C0.8828125,5.390625,0.8730469,5.7607422,0.8129883,5.9804688l-0.0297852,0.109375
	c-0.0703125,0.2304688-0.1801758,0.5302734-0.25,0.6806641c-0.0703125,0.1396484,0.0200195,0.3798828,0.199707,0.5302734
	c0.1801758,0.1396484,0.4902344,0.1591797,0.6899414,0.0390625l0.340332-0.2197266
	C1.9628906,7,2.0732422,6.7099609,2.0229492,6.4902344L1.9628906,6.25C1.902832,6.0205078,1.9428711,5.6904297,2.0532227,5.5107422
	C2.1630859,5.3203125,2.402832,5.1699219,2.5830078,5.1699219c0.1899414,0,0.3598633,0.1904297,0.3999023,0.4199219
	l0.0102539,0.0908203c0.0297852,0.2294922,0.1499023,0.5898438,0.25,0.7998047l0.1499023,0.2998047
	c0.1000977,0.2099609,0.1000977,0.5302734-0.0102539,0.7099609C3.2729492,7.6806641,3.0029297,7.8798828,2.7729492,7.9404297
	L2.1328125,8.1103516C1.9130859,8.1699219,1.6030273,8.3701172,1.4628906,8.5605469
	C1.3129883,8.7402344,1.2431641,9.0703125,1.3129883,9.3007812l0.0302734,0.109375
	C1.402832,9.6298828,1.3330078,9.9599609,1.1928711,10.140625l-0.1196289,0.1494141
	c-0.1503906,0.1806641-0.090332,0.3798828,0.1298828,0.4404297l0.5097656,0.1601562
	c0.2299805,0.0693359,0.6000977,0.1699219,0.8203125,0.2197266l0.2397461,0.0595703
	c0.2299805,0.0605469,0.3203125,0.2207031,0.2099609,0.3701172C2.8730469,11.6904297,2.6030273,11.8505859,2.3730469,11.9101562z"/>
<g>
</g>
<g>
</g>
<g>
</g>
<g>
</g>
<g>
</g>
<g>
</g>
</svg>
