<?xml version="1.0" encoding="utf-8"?>
<!-- Generator: Adobe Illustrator 16.2.0, SVG Export Plug-In . SVG Version: 6.00 Build 0)  -->
<!DOCTYPE svg PUBLIC "-//W3C//DTD SVG 1.1//EN" "http://www.w3.org/Graphics/SVG/1.1/DTD/svg11.dtd">
<svg version="1.1" id="Layer_1" xmlns="http://www.w3.org/2000/svg" xmlns:xlink="http://www.w3.org/1999/xlink" x="0px" y="0px"
	 width="119.9428711px" height="78.1567383px" viewBox="0 0 119.9428711 78.1567383"
	 enable-background="new 0 0 119.9428711 78.1567383" xml:space="preserve">
<g>
	<path fill="#F9BB18" d="M33.1533203,63.2905273c0.1899414,0.1289062,0.3803711,0.4199219,0.4101562,0.6396484
		c0.0400391,0.2197266,0.1801758,0.5615234,0.3100586,0.75l0.0600586,0.0898438l0.0698242,0.1416016h3.1899414
		c0.2602539,0,0.6601562,0.0996094,0.8901367,0.2285156l3.8999023,2.109375c0.1699219,0.1005859,0.5,0.1806641,0.7001953,0.1806641
		h3.3896484c0.1904297,0,0.4902344-0.1005859,0.6401367-0.2099609l0.3798828-0.2900391
		c0.2099609-0.1601562,0.590332-0.3095703,0.8603516-0.3505859l1.0097656-0.1494141
		c0.2900391-0.0400391,0.6899414,0.0693359,0.9199219,0.25l0.6601562,0.5302734l0.6699219,0.3789062l0.2700195,0.1005859
		c0.2900391,0.1103516,0.550293,0.4199219,0.6098633,0.7294922l0.1000977,0.4902344l0.090332,0.8808594v0.2089844
		c0,0.1806641,0.1196289,0.4394531,0.2397461,0.5605469l0.7001953,0.6201172
		c0.0996094,0.0898438,0.2900391,0.0996094,0.3999023,0.0205078l0.2299805-0.1699219l0.7900391-0.4306641l0.5400391-0.2099609
		c0.2397461-0.0996094,0.6499023-0.1484375,0.9199219-0.1201172l0.2099609,0.0302734
		c0.2797852,0.0292969,0.6499023,0.2099609,0.8500977,0.4101562l1.1201172,1.1191406
		c0.199707,0.1992188,0.3896484,0.5693359,0.4296875,0.8398438l0.1298828,0.75l0.2099609,0.78125l0.6201172,1.5898438
		l0.4101562,0.6191406l0.3203125,0.3300781c0.1298828,0.1308594,0.3994141,0.2392578,0.5800781,0.2392578h1.0097656
		c0.0292969-0.1396484,0.0800781-0.2900391,0.1601562-0.3798828c0.1396484-0.1894531,0.2998047-0.5195312,0.3496094-0.75
		l0.2207031-1.0302734c0.0488281-0.2294922,0.2089844-0.5595703,0.3496094-0.75l0.4101562-0.5195312
		c0.1396484-0.1904297,0.4394531-0.4003906,0.6494141-0.4902344l2.2607422-0.8798828
		c0.21875-0.0898438,0.5488281-0.2802734,0.7294922-0.4199219l1.8603516-1.4707031
		c0.1796875-0.140625,0.5195312-0.2607422,0.75-0.2607422h1.6699219c0.2402344,0,0.5996094,0.0908203,0.8095703,0.1904297
		l1.1005859,0.5498047c0.1992188,0.1005859,0.5595703,0.2216797,0.7890625,0.2705078l1.2910156,0.2392578
		c0.2294922,0.0400391,0.5693359-0.0380859,0.75-0.1884766c0.1796875-0.140625,0.3691406-0.4501953,0.4199219-0.6796875
		l0.0800781-0.3603516c0.0595703-0.2304688,0.2695312-0.4804688,0.4892578-0.5703125l1.3300781-0.4892578
		c0.2197266-0.0908203,0.5898438-0.1806641,0.8203125-0.2109375l0.2197266-0.0195312
		c0.2304688-0.0302734,0.5800781,0.0400391,0.7802734,0.1601562l1.5302734,0.8984375
		c0.1992188,0.1103516,0.5488281,0.2402344,0.7792969,0.2802734l0.7597656,0.1298828
		c0.2304688,0.0302734,0.6005859,0.0117188,0.8203125-0.0498047l0.1201172-0.0302734
		c0.2197266-0.0683594,0.5595703-0.0097656,0.75,0.1201172l0.6298828,0.4501953
		c0.1894531,0.1298828,0.4101562,0.4199219,0.4707031,0.6503906l0.1591797,0.5097656
		c0.0595703,0.2197266,0.0800781,0.5898438,0.0302734,0.8203125l-0.0898438,0.3583984
		c-0.0507812,0.2294922-0.0400391,0.6005859,0.0195312,0.8300781l0.1904297,0.7705078
		c0.0498047,0.2294922,0.1298828,0.6005859,0.1591797,0.8300781l0.1503906,1.0205078
		c0.0302734,0.2294922,0.1796875,0.5595703,0.3398438,0.7392578l0.3603516,0.4199219
		c0.1601562,0.1699219,0.4697266,0.3710938,0.6904297,0.4306641l0.109375,0.0400391
		c0.2304688,0.0605469,0.5302734-0.0302734,0.6796875-0.2099609l0.1308594-0.1503906
		c0.1396484-0.1796875,0.3300781-0.5,0.4199219-0.7197266l0.0898438-0.2695312
		c0.0898438-0.2109375,0.1503906-0.5800781,0.1503906-0.8203125v-1.0078125c0-0.2304688-0.0205078-0.6103516-0.0410156-0.8398438
		l-0.1796875-1.8115234l-0.0800781-0.8505859l-0.1894531-2.0693359c-0.0195312-0.2294922,0.0703125-0.5800781,0.1894531-0.7802734
		l1-1.5400391c0.1308594-0.1982422,0.390625-0.4599609,0.5800781-0.5898438l0.4902344-0.3300781
		c0.2001953-0.1201172,0.4902344-0.3701172,0.6601562-0.5283203l1.25-1.2617188
		c0.1699219-0.1582031,0.4697266-0.3798828,0.6796875-0.4882812l1.6308594-0.8115234
		c0.2089844-0.1083984,0.5595703-0.25,0.7792969-0.3300781l0.7900391-0.2597656
		c0.2197266-0.0703125,0.5302734-0.2705078,0.6904297-0.4501953l1.9492188-2.1484375
		c0.1503906-0.1816406,0.3603516-0.4902344,0.4501953-0.7011719l0.1904297-0.4199219
		c0.0996094-0.2207031,0.1191406-0.5693359,0.0498047-0.7988281l-0.1494141-0.5117188
		c-0.0703125-0.2197266-0.0800781-0.5898438-0.0205078-0.8183594l0.1904297-0.7714844
		c0.0595703-0.2207031,0.2792969-0.4707031,0.5-0.5400391c0.21875-0.0693359,0.4589844,0.0498047,0.5292969,0.2597656
		c0.0703125,0.2216797,0.2207031,0.3408203,0.3300781,0.2714844c0.109375-0.0703125,0.2402344-0.3203125,0.2802734-0.5498047
		l0.0996094-0.4902344c0.0498047-0.2304688,0.2197266-0.5507812,0.3896484-0.7207031l0.1904297-0.1992188
		c0.1699219-0.1601562,0.4697266-0.3808594,0.6806641-0.4804688l1.8994141-0.9492188
		c0.2001953-0.109375,0.4794922-0.3505859,0.6201172-0.5390625l0.4394531-0.6308594
		c0.140625-0.1894531,0.4101562-0.4394531,0.6103516-0.5605469l0.1904297-0.1103516
		c0.2089844-0.1083984,0.5595703-0.2597656,0.7792969-0.3193359l1.0410156-0.2988281l0.8095703-0.25l1.1904297-0.4003906
		c0.21875-0.0703125,0.5488281-0.25,0.7294922-0.4003906l0.6591797-0.5292969c0.1914062-0.140625,0.4101562-0.4394531,0.5-0.6494141
		l0.5908203-1.3505859c0.1005859-0.2089844,0.3505859-0.4589844,0.5693359-0.5390625l2.6503906-1.0214844
		c0.2207031-0.0800781,0.5605469-0.25,0.7597656-0.3701172l2.0703125-1.2783203l0.1894531-0.1103516l-0.4199219-0.5800781
		c-0.1699219-0.2402344-0.2695312-0.6005859-0.21875-0.8408203l0.21875-0.6494141c0,0,0.1699219-0.6201172,0.1806641-0.7099609
		c0.0302734-0.1894531-0.0107422-0.5097656-0.0908203-0.6894531l-0.0585938-0.1494141
		c-0.0800781-0.1801758-0.2304688-0.3203125-0.2910156-0.3398438c-0.0703125-0.0102539-0.2792969,0.0195312-0.4394531,0.1098633
		l-0.7900391,0.340332l-0.6396484,0.1699219c-0.1904297,0.0498047-0.4707031,0.2197266-0.6005859,0.3583984l-1.9404297,2.0400391
		c-0.1894531,0.2001953-0.5595703,0.390625-0.9296875,0.4404297l-0.6992188,0.1796875l-0.8300781,0.1601562l-3.2607422,0.1103516
		l-0.7294922,0.1699219l-3.3496094,1.4697266c0.0195312,0.0615234,0,0.1298828-0.0605469,0.2197266l-0.5302734,0.6601562
		c-0.1494141,0.1816406-0.4599609,0.359375-0.6904297,0.3798828l-0.21875,0.0302734
		c-0.2304688,0.0292969-0.6113281,0.0400391-0.8408203,0.0292969l-0.8193359-0.0605469l-1.7402344,0.6601562l-0.75,0.3398438
		l-0.8105469,0.4316406l0.0302734,0.0488281c0.0693359,0.1806641-0.0302734,0.4306641-0.2294922,0.5507812l-1.4003906,0.8798828
		c-0.2001953,0.1201172-0.5507812,0.2402344-0.7802734,0.2597656l-0.6201172,0.0615234
		c-0.2304688,0.0195312-0.5996094,0.0097656-0.8203125-0.0302734c-0.21875-0.0400391-0.3095703-0.2402344-0.1992188-0.4384766
		l0.1503906-0.3115234c0.0595703-0.1201172,0.1699219-0.2402344,0.2890625-0.3398438
		c-0.0097656-0.0302734-0.0390625-0.0595703-0.0498047-0.0908203l-0.1005859-0.2705078
		c-0.109375-0.2900391-0.0390625-0.6982422,0.1601562-0.9296875l0.25-0.2900391
		c0.1210938-0.140625,0.2705078-0.4394531,0.3105469-0.640625l0.0097656-0.0800781
		c-0.0898438-0.0205078-0.1699219-0.0488281-0.2402344-0.0898438L94.862793,45.331543
		c-0.1894531-0.1289062-0.2695312-0.3994141-0.1591797-0.609375l0.0205078-0.0400391
		c0.0996094-0.2099609,0.3193359-0.5107422,0.4892578-0.6806641l0.1904297-0.1992188
		c0.1699219-0.1601562,0.3798828-0.4707031,0.4697266-0.6904297l0.0595703-0.1396484
		c0.1005859-0.2207031,0.0507812-0.5097656-0.0996094-0.6601562c-0.140625-0.140625-0.4501953-0.25-0.6796875-0.2285156
		l-0.6201172,0.0595703c-0.2294922,0.0205078-0.6005859,0.1005859-0.8203125,0.1699219l-1.1904297,0.3994141
		c-0.21875,0.0703125-0.5097656,0.28125-0.6601562,0.4707031l-1.2089844,1.5800781
		c-0.140625,0.1796875-0.2802734,0.5292969-0.3203125,0.7597656l-0.1298828,0.8798828
		c-0.0400391,0.2304688-0.1806641,0.5703125-0.3300781,0.7607422l-0.8095703,1.0507812
		c-0.140625,0.1796875-0.4306641,0.3984375-0.6503906,0.4785156l-0.2695312,0.1015625
		c-0.2207031,0.0800781-0.53125,0.0195312-0.7011719-0.1503906l-0.1894531-0.1894531
		c-0.1699219-0.1699219-0.2998047-0.4902344-0.2998047-0.7294922v-0.0800781c0-0.2294922,0.1201172-0.5693359,0.2705078-0.7392578
		l0.25-0.2910156c0.1494141-0.1699219,0.359375-0.4882812,0.4589844-0.6992188l0.2910156-0.5693359
		c0.0996094-0.2099609,0.2792969-0.5400391,0.3994141-0.75l0.6396484-1.1201172
		c0.1103516-0.2001953,0.3300781-0.5097656,0.4902344-0.6796875l0.3701172-0.4316406
		c0.1494141-0.1699219,0.4599609-0.359375,0.6904297-0.4199219l1.1699219-0.3183594
		c0.2197266-0.0615234,0.5996094-0.1308594,0.8300781-0.1601562l1.1494141-0.1503906
		c0.2294922-0.0400391,0.4794922-0.1796875,0.5498047-0.3300781c0.0703125-0.1396484-0.0195312-0.3798828-0.1992188-0.5292969
		c-0.1806641-0.140625-0.4511719-0.2607422-0.6005859-0.2607422c-0.1396484,0-0.4404297,0.0302734-0.6591797,0.0615234
		c-0.2207031,0.0390625-0.5800781,0.0683594-0.8007812,0.0683594c-0.2099609,0-0.5703125-0.0898438-0.7695312-0.1884766
		l-0.3105469-0.1503906c-0.1992188-0.0996094-0.5498047-0.2597656-0.7695312-0.3583984l-0.140625-0.0683594
		c-0.2197266-0.0898438-0.5800781-0.1088867-0.7998047-0.0498047l-0.5097656,0.1591797
		c-0.2294922,0.0703125-0.5800781,0.2109375-0.7802734,0.3203125l-0.7197266,0.390625
		c-0.2001953,0.1191406-0.5498047,0.1484375-0.7705078,0.0703125l-0.3896484-0.1318359
		c-0.2197266-0.0693359-0.4902344-0.2783203-0.6005859-0.4599609c-0.109375-0.1894531-0.0195312-0.4086914,0.1904297-0.5
		l0.1503906-0.0688477c0.2099609-0.0898438,0.5498047-0.2709961,0.75-0.3911133l0.7392578-0.4697266
		c0.1210938-0.0800781,0.2910156-0.1699219,0.4511719-0.2602539l-0.2607422-0.0610352l-0.8300781-0.2099609l-1.1699219-0.3188477
		l-0.8193359-0.2402344l-0.7910156-0.2597656l-0.8095703-0.3798828l-0.6005859-0.3603516
		c-0.1289062-0.0795898-0.2597656-0.0795898-0.4296875,0l-0.7792969,0.2104492H42.4033203
		c0,0.159668-0.0400391,0.3095703-0.1098633,0.4199219l-0.8701172,1.3999023
		c-0.1298828,0.1987305-0.3896484,0.4697266-0.5800781,0.6000977L40.753418,39.019043
		c-0.2001953,0.1298828-0.4399414,0.1499023-0.5498047,0.0400391c-0.1103516-0.1088867-0.1699219-0.3500977-0.1401367-0.5302734
		C40.1035156,38.3491211,39.9833984,38.1088867,39.8032227,38c-0.1796875-0.1098633-0.5195312-0.1699219-0.75-0.1298828
		L38.293457,38c-0.2299805,0.0288086-0.4599609,0.25-0.5200195,0.4790039l-0.0600586,0.2402344
		c-0.0498047,0.2197266-0.1899414,0.5800781-0.2900391,0.7900391l-0.949707,1.8896484
		c-0.1000977,0.2099609-0.2802734,0.5517578-0.4003906,0.75l-0.6396484,1.1201172
		c-0.1103516,0.2001953-0.340332,0.5097656-0.5,0.6699219l-1.800293,1.9101562
		c-0.159668,0.1699219-0.3798828,0.4804688-0.5,0.6796875l-0.5200195,0.9804688
		c-0.1098633,0.1992188-0.25,0.5595703-0.3100586,0.7792969l-0.0595703,0.2392578
		c-0.050293,0.2304688-0.2299805,0.5517578-0.4003906,0.7119141l-0.1899414,0.1982422
		c-0.1699219,0.1601562-0.409668,0.4599609-0.5297852,0.6494141l-0.7402344,1.1503906
		c-0.1196289,0.1894531-0.199707,0.5-0.159668,0.6894531c0.0297852,0.1796875,0.0600586,0.5097656,0.0600586,0.7304688
		c0,0.2089844-0.1201172,0.5390625-0.2700195,0.71875l-0.1201172,0.140625
		c-0.1499023,0.1816406-0.2001953,0.5097656-0.1201172,0.7304688l0.1010742,0.2597656
		c0.0800781,0.2197266,0.2397461,0.5703125,0.3398438,0.7792969l0.1499023,0.3007812
		c0.1103516,0.2089844,0.1000977,0.5292969-0.0097656,0.7089844c-0.1098633,0.1904297-0.1401367,0.4511719-0.0698242,0.6005859
		c0.0795898,0.1494141,0.159668,0.4501953,0.1899414,0.6904297l0.0297852,0.2197266
		c0.0302734,0.2294922,0.1401367,0.5693359,0.25,0.75s0.2099609,0.5205078,0.2290039,0.75l0.0698242,1.1494141
		c0.0200195,0.2294922,0.1000977,0.6005859,0.1904297,0.8105469l0.2099609,0.5400391
		c0.0898438,0.2197266,0.3300781,0.4697266,0.5498047,0.5693359l0.6801758,0.3105469
		c0.2099609,0.1015625,0.5498047,0.2900391,0.7299805,0.4199219L33.1533203,63.2905273z"/>
	<path fill="#F9BB18" d="M32.9936523,17.3798828h0.8798828c0.2299805,0,0.5600586,0.1303711,0.7197266,0.300293l0.2001953,0.1899414
		c0.1601562,0.1699219,0.4799805,0.3588867,0.7001953,0.4301758c0.2197266,0.0795898,0.5297852,0.2695312,0.6899414,0.4399414
		l0.7299805,0.7197266c0.1699219,0.1699219,0.4799805,0.3701172,0.699707,0.4501953l1.3300781,0.5
		c0.2202148,0.0800781,0.4702148,0.3188477,0.5600586,0.5400391l0.0600586,0.1489258
		c0.1000977,0.2099609,0.2797852,0.5400391,0.4199219,0.7299805l0.1699219,0.2387695
		c0.1303711,0.1904297,0.1103516,0.4799805-0.0498047,0.6503906l-0.2001953,0.1899414
		c-0.1699219,0.1699219-0.3598633,0.4487305-0.4296875,0.6298828c-0.0800781,0.1889648-0.050293,0.4790039,0.0600586,0.6699219
		c0.1098633,0.1801758,0.2299805,0.5200195,0.25,0.75l0.0297852,0.2202148c0.0097656,0.0498047,0.0097656,0.0996094,0,0.159668
		l0.6000977,0.1103516c0.159668,0.0288086,0.4199219-0.0512695,0.5297852-0.1713867l0.2001953-0.1889648l0.3999023-0.6298828
		l0.1000977-0.2597656c0.0498047-0.1411133,0-0.3701172-0.1000977-0.4799805l-0.2001953-0.1904297
		c-0.2099609-0.2099609-0.3496094-0.5898438-0.3198242-0.8896484l0.0498047-0.6201172l0.1704102-0.8701172l0.159668-0.5097656
		c0.050293-0.1699219,0.0102539-0.4501953-0.0800781-0.6000977l-0.6196289-1
		c-0.090332-0.1601562-0.3300781-0.3398438-0.5200195-0.4101562l-0.6303711-0.2299805
		c-0.1298828-0.0498047-0.3496094-0.0898438-0.6796875,0.0703125c-0.2299805,0.1899414-0.6201172,0.2900391-0.8999023,0.2397461
		c-0.2700195-0.0400391-0.6103516-0.25-0.7900391-0.4799805l-0.4101562-0.5200195l-0.4799805-0.7299805l-0.1098633-0.1889648
		c-0.1601562-0.2709961-0.1499023-0.6899414,0.0097656-0.9501953l0.3598633-0.5996094
		c0.1303711-0.2211914,0.4101562-0.5209961,0.6303711-0.6601562l0.0898438-0.0610352l0.6899414-0.4790039l2.1000977-1.5
		l0.6699219-0.5l3.3100586-2.6601562l0.6699219-0.5209961l5.1699219-3.9887695l0.6699219-0.5209961l2.9501953-2.2290039
		l-0.3798828-0.1201172l-1.4399414-0.4199219c-0.2299805-0.0698242-0.6000977-0.1298828-0.8300781-0.1499023l-2.8701172-0.2001953
		c-0.2299805-0.0200195-0.6098633-0.0600586-0.8398438-0.0800781l-3.800293-0.4389648
		c-0.2397461-0.0209961-0.6098633-0.1010742-0.8295898-0.159668l-1.5703125-0.4301758
		C40.7133789,0.050293,40.3432617,0,40.1035156,0h-0.7402344c-0.2299805,0-0.5996094,0.0688477-0.8198242,0.1489258L38.2734375,0.25
		c-0.2202148,0.0800781-0.5898438,0.1489258-0.8198242,0.1489258h-1.0102539c-0.2299805,0-0.6098633,0.0209961-0.8398438,0.0400391
		l-2.0800781,0.1899414c-0.2299805,0.0200195-0.6098633,0.0800781-0.8300781,0.1303711l-2.4897461,0.5996094
		c-0.2299805,0.0610352-0.6000977,0.1601562-0.8203125,0.2402344l-1.449707,0.5097656
		c-0.2202148,0.0800781-0.5703125,0.2211914-0.7900391,0.3110352l-1.0800781,0.4599609
		c-0.2099609,0.1000977-0.5800781,0.1801758-0.8100586,0.1889648l-2.3398438,0.1010742
		c-0.2299805,0.0102539-0.590332,0.1088867-0.7900391,0.2290039l-0.8598633,0.5
		c-0.2001953,0.1201172-0.4501953,0.3603516-0.5600586,0.5400391c-0.1103516,0.1899414-0.0703125,0.4711914,0.0996094,0.6411133
		l0.590332,0.5898438c0.1699219,0.1601562,0.3598633,0.4501953,0.4399414,0.6303711
		c0.0698242,0.1796875-0.0400391,0.4296875-0.2402344,0.5395508l-0.1899414,0.1103516
		c-0.199707,0.1186523-0.5498047,0.2788086-0.7700195,0.3588867l-0.2597656,0.1010742
		c-0.2202148,0.0800781-0.5898438,0.1796875-0.8203125,0.2099609l-0.0898438,0.0097656
		c-0.2299805,0.0400391-0.6000977,0-0.8198242-0.0698242L18.253418,7.4301758
		c-0.2197266-0.0703125-0.5898438-0.1699219-0.8198242-0.2001953l-0.7602539-0.1298828
		c-0.2299805-0.0400391-0.5898438,0.0097656-0.7998047,0.1010742l-0.4199219,0.1889648
		c-0.2099609,0.0898438-0.5703125,0.2299805-0.7900391,0.3110352l-1.5800781,0.5200195
		c-0.2202148,0.0800781-0.5102539,0.2998047-0.6411133,0.4897461l-0.0600586,0.090332
		c-0.1298828,0.1899414-0.0898438,0.409668,0.090332,0.4897461c0.1899414,0.0688477,0.4296875,0.25,0.5395508,0.3901367
		c0.1103516,0.1499023,0.3901367,0.2709961,0.6201172,0.2709961h0.2099609c0.2402344,0,0.5800781,0.0898438,0.7602539,0.1987305
		c0.1796875,0.1103516,0.5209961,0.2001953,0.75,0.2001953h0.2197266c0.2299805,0,0.6000977-0.0800781,0.8100586-0.1699219
		l0.8100586-0.3300781c0.2211914-0.0898438,0.5698242-0.1401367,0.7900391-0.1000977s0.3701172,0.1889648,0.3300781,0.3300781
		c-0.0400391,0.1489258-0.25,0.3188477-0.4702148,0.3798828l-0.1196289,0.0400391
		c-0.2202148,0.0600586-0.5600586,0.2202148-0.75,0.3588867l-0.7700195,0.5610352
		c-0.1904297,0.1401367-0.5302734,0.2700195-0.7602539,0.2900391l-0.6201172,0.0600586
		c-0.2299805,0.0209961-0.5996094,0.1098633-0.8100586,0.2001953l-0.1499023,0.0698242
		c-0.2099609,0.0898438-0.5800781,0.1801758-0.8100586,0.2001953l-0.6196289,0.0600586
		c-0.2299805,0.0200195-0.6000977,0.0698242-0.8300781,0.1196289l-1.6879883,0.359375
		c-0.2299805,0.0507812-0.5703125,0.2109375-0.75,0.3598633l-0.800293,0.6499023
		c-0.1796875,0.1489258-0.4897461,0.3798828-0.6796875,0.5l-0.0913086,0.0698242
		c-0.1899414,0.1201172-0.2900391,0.4101562-0.2099609,0.6313477l0.2402344,0.6586914
		c0.0800781,0.2211914,0.0800781,0.5800781,0,0.8012695l-0.1010742,0.2597656
		c-0.0800781,0.2202148-0.3300781,0.4790039-0.5400391,0.5693359L6.5625,17.4702148
		c-0.2099609,0.0898438-0.5297852,0.2998047-0.7099609,0.449707l-0.2802734,0.2402344
		C5.3925781,18.309082,5.2827148,18.5898438,5.3125,18.769043c0.0400391,0.1811523,0.25,0.3798828,0.4799805,0.4399414
		l1.1699219,0.3100586c0.2290039,0.0610352,0.5898438,0.0610352,0.8203125-0.0097656l1.0395508-0.2900391
		c0.2202148-0.0703125,0.5,0,0.6000977,0.1499023c0.1103516,0.1401367,0.050293,0.3701172-0.1396484,0.5l-0.6303711,0.4389648
		c-0.199707,0.1411133-0.5297852,0.3300781-0.7397461,0.4199219l-3.340332,1.5112305
		c-0.2099609,0.0996094-0.5595703,0.2387695-0.7895508,0.3100586l-1.1801758,0.3999023
		c-0.2202148,0.0688477-0.5698242,0.2197266-0.7700195,0.3398438l-0.4599609,0.25
		c-0.2001953,0.1088867-0.550293,0.2387695-0.7802734,0.2900391l-0.3696289,0.0898438
		c-0.2202148,0.050293-0.2900391,0.2099609-0.1503906,0.3500977c0.1503906,0.1499023,0.4604492,0.2709961,0.6904297,0.2709961h0.75
		c0.2299805,0,0.6098633-0.0498047,0.8295898-0.1010742l0.2402344-0.0600586
		c0.2290039-0.0610352,0.5898438-0.1796875,0.7998047-0.2709961l4.3901367-1.7998047
		c0.2202148-0.0898438,0.5698242-0.2402344,0.7797852-0.3398438l2.550293-1.2290039
		c0.2099609-0.1010742,0.5698242-0.2114258,0.7998047-0.25l1.550293-0.2612305
		c0.2299805-0.0400391,0.5898438-0.1489258,0.7998047-0.25l1.4902344-0.7001953
		c0.2099609-0.0996094,0.5200195-0.3095703,0.699707-0.4599609l0.6899414-0.6298828
		c0.1801758-0.1601562,0.5-0.3398438,0.7299805-0.4101562l1.840332-0.5498047
		c0.2197266-0.0600586,0.5800781-0.0600586,0.8100586,0.0209961l0.7797852,0.2602539
		c0.2202148,0.0698242,0.5498047,0.0996094,0.7402344,0.0698242l0.7397461-0.1699219l1.2998047-0.3300781
		c0.2202148-0.0610352,0.5800781-0.1899414,0.7802734-0.3012695l1.2397461-0.6586914
		c0.2099609-0.1098633,0.5703125-0.1699219,0.7900391-0.1201172l1.1601562,0.2290039
		c0.2290039,0.0498047,0.6000977,0.1298828,0.8300781,0.1899414l3.2900391,0.8500977
		C32.3935547,17.3310547,32.7636719,17.3798828,32.9936523,17.3798828z"/>
</g>
<g>
	<path fill="#F9BB18" d="M2.815918,60.2231445c-0.0712891,0.0869141-0.2114258,0.1884766-0.331543,0.1513672
		c0.0317383,0.0097656,0.0756836,0.1796875,0.1044922,0.2167969c0.1479492,0.1875,0.1210938,0.0605469,0.3330078,0.1542969
		C3.46875,60.987793,2.8828125,60.2045898,2.815918,60.2231445z"/>
	<path fill="#F9BB18" d="M3.6811523,60.8178711c-0.0292969,0.0390625-0.0136719,0.1113281-0.0825195,0.1455078
		c0.2041016-0.1025391,0.5195312,0.2197266,0.6992188-0.0400391C4.2363281,60.9145508,3.6811523,60.8901367,3.6811523,60.8178711z"
		/>
	<path fill="#F9BB18" d="M3.9462891,61.2045898c-0.0273438,0.0371094-0.0175781,0.1962891,0.0942383,0.2285156
		C4.2324219,61.487793,4.2255859,61.1479492,3.9462891,61.2045898z"/>
	<path fill="#F9BB18" d="M0.9145508,59.6108398c-0.2709961,0.203125-0.1826172,0.0908203-0.0512695,0.3535156
		C1.0532227,60.3432617,1.6323242,59.269043,0.9145508,59.6108398z"/>
	<path fill="#F9BB18" d="M4.4433594,61.0620117c-0.1220703,0.0634766-0.0942383,0.3632812,0.0307617,0.2949219
		c0.1538086-0.0839844,0.0541992,0.25,0.2519531,0.2666016c0.0893555,0.0078125,0.3276367-0.0253906,0.3896484-0.1025391
		c0.1220703-0.1523438-0.128418-0.171875-0.2016602-0.2773438C4.7084961,60.9467773,4.6586914,61.2416992,4.4433594,61.0620117z"/>
	<path fill="#F9BB18" d="M5.2490234,62.034668c-0.0751953,0.1396484,0.0888672,0.2148438,0.0839844,0.3378906
		c-0.0068359,0.1855469-0.2973633,0.1503906-0.2353516,0.3681641c0.0703125,0.2470703,0.1464844,0.4248047,0.1464844,0.6904297
		c0,0.203125,0.1831055,0.1074219,0.2573242,0.2880859C5.4013672,63.4750977,6.6616211,63.0444336,6.46875,62.934082
		c-0.3056641-0.1748047-0.4082031-0.8007812-0.8779297-0.8007812c0.0151367,0.0087891,0.0307617,0.0166016,0.046875,0.0234375
		C5.6166992,62.1518555,5.2758789,61.9858398,5.2490234,62.034668C5.2387695,62.0541992,5.2700195,61.9956055,5.2490234,62.034668z"
		/>
</g>
<g>
</g>
<g>
</g>
<g>
</g>
<g>
</g>
<g>
</g>
<g>
</g>
</svg>
